<svg width="194" height="189" viewBox="0 0 194 189" fill="none" xmlns="http://www.w3.org/2000/svg">
<path d="M96.7498 159.393C134.55 159.393 165.192 129.45 165.192 92.5146C165.192 55.579 134.55 25.6367 96.7498 25.6367C58.95 25.6367 28.3071 55.579 28.3071 92.5146C28.3071 129.45 58.95 159.393 96.7498 159.393Z" fill="#E0E0E0"/>
<path d="M96.7498 155.936C131.829 155.936 160.266 128.149 160.266 93.8719C160.266 59.5948 131.829 31.8077 96.7498 31.8077C61.6707 31.8077 33.2335 59.5948 33.2335 93.8719C33.2335 128.149 61.6707 155.936 96.7498 155.936Z" fill="#FAFAFA"/>
<path d="M92.876 70.9583L88.9677 138.224" stroke="#E0E0E0" stroke-width="2" stroke-miterlimit="10"/>
<path d="M83.6273 83.6628L134.513 126.927L81.3409 86.7989L83.6273 83.6628Z" fill="#E0E0E0"/>
<path d="M83.6273 102.817L113.142 56.1124L87.3716 104.756L83.6273 102.817Z" fill="#E0E0E0"/>
</svg>
