<svg width="24" height="24" viewBox="0 0 24 24" fill="none" xmlns="http://www.w3.org/2000/svg">
<g clip-path="url(#clip0_912_2191)">
<path fill-rule="evenodd" clip-rule="evenodd" d="M19.3865 5.88637C19.738 5.5349 19.738 4.96505 19.3865 4.61358C19.035 4.26211 18.4652 4.26211 18.1137 4.61358L12.0001 10.7272L5.88649 4.61358C5.53502 4.26211 4.96517 4.26211 4.6137 4.61358C4.26223 4.96505 4.26223 5.5349 4.6137 5.88637L10.7273 12L4.6137 18.1136C4.26223 18.4651 4.26223 19.0349 4.6137 19.3864C4.96517 19.7378 5.53502 19.7378 5.88649 19.3864L12.0001 13.2728L18.1137 19.3864C18.4652 19.7378 19.035 19.7378 19.3865 19.3864C19.738 19.0349 19.738 18.4651 19.3865 18.1136L13.2729 12L19.3865 5.88637Z" fill="#333333"/>
</g>
<defs>
<clipPath id="clip0_912_2191">
<rect width="24" height="24" fill="white"/>
</clipPath>
</defs>
</svg>
