<svg width="20" height="20" viewBox="0 0 20 20" fill="none" xmlns="http://www.w3.org/2000/svg">
<path d="M17.5 17.5H2.5C2.00272 17.5 1.52581 17.3025 1.17417 16.9508C0.822544 16.5992 0.625 16.1223 0.625 15.625V4.375C0.625 3.87772 0.822544 3.40081 1.17417 3.04918C1.52581 2.69754 2.00272 2.5 2.5 2.5H7.5C7.59182 2.49985 7.68254 2.51994 7.76572 2.55882C7.8489 2.59771 7.92249 2.65445 7.98125 2.725L9.875 5H17.5C17.9973 5 18.4742 5.19754 18.8258 5.54918C19.1775 5.90081 19.375 6.37772 19.375 6.875V15.625C19.375 16.1223 19.1775 16.5992 18.8258 16.9508C18.4742 17.3025 17.9973 17.5 17.5 17.5ZM2.5 3.75C2.33424 3.75 2.17527 3.81585 2.05806 3.93306C1.94085 4.05027 1.875 4.20924 1.875 4.375V15.625C1.875 15.7908 1.94085 15.9497 2.05806 16.0669C2.17527 16.1842 2.33424 16.25 2.5 16.25H17.5C17.6658 16.25 17.8247 16.1842 17.9419 16.0669C18.0592 15.9497 18.125 15.7908 18.125 15.625V6.875C18.125 6.70924 18.0592 6.55027 17.9419 6.43306C17.8247 6.31585 17.6658 6.25 17.5 6.25H9.58125C9.49049 6.24924 9.40098 6.22872 9.31895 6.18986C9.23692 6.151 9.16434 6.09475 9.10625 6.025L7.20625 3.75H2.5Z" fill="#304299"/>
</svg>
