<?xml version="1.0" encoding="UTF-8"?> <svg xmlns="http://www.w3.org/2000/svg" width="970" height="1309" viewBox="0 0 970 1309" fill="none"> <g clip-path="url(#clip0_63_1971)"> <path d="M334.116 229.079C334.116 229.079 358.997 238.374 362.747 247.669C366.497 256.964 362.747 278.041 362.747 278.041L334.116 229.079Z" fill="#33231D"></path> <path d="M545.604 558.396C545.604 558.396 537.003 573.272 535.492 573.076C533.981 572.881 568.53 596.589 568.495 594.047C568.459 591.506 567.126 579.83 567.126 579.83L545.604 558.396Z" fill="#CCB9B2"></path> <path d="M722.082 472.966L695.53 1187.1L729.688 1191.26L763.829 1014.93L722.082 472.966Z" fill="#EDCBB9"></path> <path d="M805.415 505.027C805.415 505.027 864.72 532.29 884.82 613.757C904.921 695.225 865.84 891.109 865.84 891.109C865.84 891.109 952.586 1176.44 950.613 1189.34C948.64 1202.25 915.744 1206.51 915.744 1206.51C915.744 1206.51 788.602 914.781 791.144 882.383C793.685 849.984 763.828 517.095 763.828 517.095L805.415 505.027Z" fill="#EDCBB9"></path> <path d="M722.863 495.377C722.863 495.377 645.803 604.64 638.979 722.416C632.154 840.192 599.667 913.253 592.771 922.868C585.875 932.482 570.716 993.263 570.716 993.263C570.716 993.263 610.152 987.398 645.181 995.769C680.21 1004.14 787.731 1028.42 811.261 1004.99L810.604 983.862C810.604 983.862 926.727 997.564 949.884 962.393C949.884 962.393 912.243 890.931 916.863 806.14C921.484 721.35 921.537 648.608 906.467 605.955C891.396 563.302 823.471 489.548 823.471 489.548L722.863 495.377Z" fill="#263F8C"></path> <path d="M741.63 501.49C741.63 501.49 723.627 723.055 739.017 784.262C754.408 845.47 804.152 935.965 805.414 958.927C805.414 958.927 781.351 879.166 790.503 827.164C799.656 775.163 809.946 673.489 798.607 638.282C787.269 603.076 805.414 504.991 805.414 504.991" fill="#20325B"></path> <path d="M822.192 494.346C822.192 494.346 864.472 589.071 875.384 653.015C886.296 716.959 888.695 794.499 881.639 852.703C874.584 910.906 874.193 969.057 892.303 984.998C892.303 984.998 929.624 981.711 938.03 972.931C938.03 972.931 910.839 934.881 906.272 866.298C901.384 793.326 938.013 608.372 822.192 494.346Z" fill="#18124C"></path> <path d="M728.532 502.61C728.532 502.61 708.521 541.709 717.229 638.603C725.938 735.496 719.433 812.538 715.968 830.666C712.502 848.793 694.374 967.671 721.548 1009.2C721.548 1009.2 680.103 1002.45 673.563 1002.31C667.023 1002.17 712.218 790.145 705.162 745.609C698.107 701.072 702.159 538.777 728.532 502.61Z" fill="#20325B"></path> <path d="M716.714 502.237C716.714 502.237 675.003 581.768 668.943 697.962C662.882 814.156 614.062 882.187 601.817 904.527C589.572 926.867 635.762 806.229 631.55 769.103C627.871 736.705 663.646 550.631 716.714 502.237Z" fill="#425FA8"></path> <path d="M666.455 229.648C666.455 229.648 622.86 251.864 618.47 283.782C614.08 315.701 629.915 464.72 635.034 465.982C640.152 467.244 680.655 478.138 680.513 436.498C680.37 394.858 666.455 229.648 666.455 229.648Z" fill="#22366D"></path> <path d="M662.901 239.849C662.901 239.849 636.154 335.019 649.821 371.594C663.488 408.169 714.28 510.057 737.42 508.671C760.559 507.284 819.171 498.007 819.171 498.007C819.171 498.007 870.551 239.316 720.82 209.175L707.847 225.365L662.901 239.849Z" fill="#304299"></path> <path d="M739.995 111.02C739.995 111.02 760.807 134.479 734.326 143.685C734.326 143.685 772.554 187.866 711.436 192.931C711.436 192.931 674.772 136.949 739.995 111.02Z" fill="#A07537"></path> <path d="M711.293 151.824C711.293 151.824 729.314 162.292 727.981 190.017C727.981 190.017 714.208 194.069 711.471 191.883C708.734 189.697 695.192 154.241 711.293 151.824Z" fill="#8C632D"></path> <path d="M705.998 150.438C709.356 152.6 712.43 155.173 715.151 158.097C717.941 161.028 720.331 164.315 722.26 167.872C723.198 169.673 723.994 171.545 724.641 173.47C725.255 175.413 725.666 177.414 725.867 179.442C726.048 181.46 726.006 183.492 725.743 185.502C725.42 187.485 724.866 189.424 724.09 191.278C724.993 187.457 725.138 183.496 724.517 179.619C723.823 175.814 722.514 172.146 720.642 168.761C718.786 165.318 716.602 162.062 714.12 159.039C712.894 157.511 711.578 156.053 710.21 154.632C708.842 153.21 707.455 151.788 705.998 150.438Z" fill="#D8A377"></path> <path d="M601.551 157.369C601.551 157.369 616.053 238.997 663.327 192.203C663.327 192.203 665.175 128.49 601.551 157.369Z" fill="#BC8F48"></path> <path d="M636.686 169.738C636.686 169.738 629.044 195.721 646.355 204.465C646.355 204.465 653.606 202.35 662.954 192.575C672.302 182.801 640.792 165.402 636.686 169.738Z" fill="#AA7F3F"></path> <path d="M627.587 166.663C628.725 173.541 629.525 180.419 630.431 187.279C630.857 190.709 631.337 194.121 631.906 197.533C632.19 199.31 632.493 200.928 632.901 202.581C633.184 204.279 633.853 205.89 634.856 207.29C634.142 206.754 633.569 206.053 633.186 205.246C632.757 204.476 632.389 203.674 632.084 202.847C631.466 201.204 630.95 199.524 630.538 197.818C629.732 194.417 629.109 190.977 628.671 187.51C627.751 180.601 627.388 173.63 627.587 166.663V166.663Z" fill="#D8A377"></path> <path d="M634.038 165.206C635.708 171.977 637.006 178.784 638.445 185.555C639.138 188.95 639.867 192.326 640.685 195.667C641.111 197.338 641.538 199.009 642.071 200.644C642.473 202.317 643.258 203.874 644.363 205.193C643.63 204.7 643.021 204.043 642.586 203.274C642.104 202.536 641.677 201.764 641.307 200.964C640.57 199.368 639.929 197.73 639.387 196.058C638.322 192.726 637.438 189.339 636.739 185.911C635.289 179.092 634.386 172.168 634.038 165.206V165.206Z" fill="#D8A377"></path> <path d="M670.009 222.344C670.009 222.344 700.915 244.932 720.926 209.264C720.926 209.264 703.03 163.749 703.865 144.324L648.967 162.452C648.967 162.452 674.115 210.472 670.009 222.344Z" fill="#E5AD9C"></path> <path d="M618.133 152.588C618.47 153.157 618.773 153.726 619.057 154.366C620.141 156.605 624.78 162.363 631.16 168.583C633.47 170.805 634.536 172.547 636.705 174.359C650.638 186.018 668.694 198.725 688.83 180.437C723.113 149.212 718.901 105.226 716.839 93.8516C714.778 82.4775 704.239 21.6613 642.605 30.9383C583.122 39.8244 587.511 91.3635 605.159 122.394C606.327 124.453 607.217 126.658 607.807 128.952C610.181 137.255 613.654 145.204 618.133 152.588V152.588Z" fill="#EDCBB9"></path> <path opacity="0.33" d="M601.658 71.4935C601.658 71.4935 609.354 161.332 665.922 186.728C665.922 186.728 644.933 179.903 638.02 172.866C631.107 165.828 591.066 128.293 587.903 111.41C584.739 94.5261 580.51 75.2256 587.458 71.1025C594.407 66.9794 603.311 61.3456 601.658 71.4935Z" fill="#F7E0CD"></path> <path d="M666.455 30.4937C665.644 30.1555 664.769 29.9971 663.891 30.0295C663.013 30.0619 662.153 30.2842 661.369 30.6812C660.585 31.0781 659.897 31.6403 659.351 32.3289C658.805 33.0176 658.416 33.8163 658.208 34.6702C656.431 42.3299 650.673 55.7124 632.066 58.9469C616.693 61.6127 605.816 67.4597 599.454 73.3778C594.833 77.6965 592.594 82.0506 592.772 85.3029C593.216 92.9805 601.658 102.346 605.763 115.036C609.868 127.725 604.945 128.08 611.503 140.734C618.061 153.388 627.889 158.773 631.213 167.392C634.767 176.687 579.478 166.148 574.893 126.516C570.308 86.8847 580.224 87.2223 580.224 87.2223C580.224 87.2223 567.5 30.3515 614.613 9.48707C661.727 -11.3774 699.92 6.50135 711.24 21.7321C722.561 36.9628 726.382 58.7869 733.029 61.9681C739.676 65.1494 783.626 96.7482 741.204 133.714C714.155 157.262 710.672 126.943 709.517 115.942C708.255 104.124 692.1 98.5609 678.131 65.4337C670.898 48.2125 672.231 32.893 666.455 30.4937Z" fill="#EFBB81"></path> <path d="M665.441 29.9426C665.441 29.9426 656.555 20.7011 653.338 32.2886C650.121 43.876 652.983 47.6259 649.215 50.736C652.499 47.936 655.055 44.3805 656.661 40.3749C658.563 34.5812 664.037 29.5872 665.441 29.9426Z" fill="#DBA25E"></path> <path d="M679.162 41.8503C679.162 41.8503 676.407 21.2524 666.17 28.6812C665.641 29.2494 665.044 29.7507 664.393 30.174C663.629 30.6894 668.552 28.8233 679.162 41.8503Z" fill="#C6965C"></path> <path d="M601.318 71.6005C601.318 71.6005 585.928 68.757 587.972 89.106C590.015 109.455 600.412 106.878 601.727 116.12C603.042 125.361 601.39 134.585 606.863 142.262C612.337 149.94 623.036 155.432 623.036 155.432C623.036 155.432 610.898 76.1679 601.318 71.6005Z" fill="#D8A766"></path> <path d="M714.972 60.7422C722.57 63.8656 729.685 68.0544 736.103 73.1827C739.375 75.7446 742.355 78.659 744.989 81.8732C747.654 85.064 749.784 88.665 751.298 92.5365C752.764 96.5094 753.311 100.763 752.898 104.977C752.416 109.14 751.104 113.165 749.041 116.813C744.851 123.912 739.235 130.066 732.549 134.887L736.956 130.675C738.325 129.165 739.746 127.708 741.061 126.161L742.874 123.78L743.816 122.607L744.651 121.345L746.429 118.821L747.833 116.173C749.652 112.616 750.802 108.755 751.227 104.781C751.544 100.825 750.973 96.8483 749.557 93.1408C746.855 85.6409 741.31 79.4385 735.232 74.1601C732.162 71.518 728.913 69.0894 725.511 66.8913C722.121 64.6373 718.602 62.5841 714.972 60.7422V60.7422Z" fill="#F4D7B8"></path> <path d="M667.662 23.278C670.283 22.4607 673.092 22.4607 675.713 23.278C678.328 24.1094 680.746 25.4638 682.822 27.2589C686.884 30.9642 690.16 35.4488 692.454 40.4458C697.395 50.2561 699.403 61.097 702.531 71.3516C703.804 76.4832 706.075 81.3142 709.213 85.5693C710.864 87.5695 712.949 89.1679 715.309 90.2433C717.722 91.2751 720.296 91.8765 722.916 92.0205C728.26 92.2476 733.607 91.6481 738.768 90.2433C741.345 89.5275 743.759 88.3205 745.877 86.6889C748.031 85.0332 749.443 82.5927 749.805 79.9C749.72 81.2629 749.362 82.5948 748.751 83.8161C748.141 85.0375 747.29 86.1233 746.25 87.0088C744.163 88.8038 741.75 90.1796 739.142 91.0608C733.898 92.6692 728.436 93.4546 722.951 93.389C720.15 93.3648 717.379 92.7975 714.794 91.7184C712.203 90.5716 709.906 88.8519 708.076 86.6889C704.755 82.2633 702.34 77.2267 700.967 71.867C697.946 61.4169 695.938 50.7537 691.37 41.0323C689.312 36.1117 686.291 31.6524 682.484 27.9165C680.554 26.0747 678.268 24.6474 675.766 23.7223C673.171 22.7646 670.347 22.6098 667.662 23.278V23.278Z" fill="#F4D7B8"></path> <path d="M671.307 17.2896C677.217 15.2607 683.581 14.9403 689.665 16.3654C695.898 17.856 701.327 21.6701 704.843 27.0287C705.737 28.3236 706.522 29.6908 707.189 31.1163C707.953 32.5203 708.504 33.9065 709.143 35.3105C710.37 38.1007 711.756 40.8199 713.124 43.539C714.521 46.2468 716.075 48.8698 717.781 51.3943C719.339 54.0162 721.457 56.2616 723.983 57.9699C722.556 57.3678 721.267 56.4785 720.198 55.3574C719.092 54.2725 718.053 53.1211 717.088 51.9097C715.216 49.4471 713.489 46.8776 711.916 44.2143C710.352 41.5485 708.948 38.8827 707.615 36.0036C706.958 34.6352 706.353 33.1778 705.625 31.8805C704.991 30.5291 704.235 29.2383 703.368 28.0239C700.063 23.0196 695.076 19.3632 689.31 17.7161C686.425 16.8647 683.432 16.4338 680.424 16.4365C677.362 16.3733 674.303 16.6595 671.307 17.2896V17.2896Z" fill="#F4D7B8"></path> <path d="M664.162 19.6527C658.728 17.3321 653.008 15.7482 647.154 14.9431C641.369 14.0191 635.454 14.3157 629.791 15.814C624.189 17.3954 619.18 20.5984 615.395 25.0199C611.476 29.3976 608.011 34.1612 605.052 39.2376C602.106 44.3371 599.465 49.6069 597.143 55.0193C595.936 57.7638 594.534 60.4186 592.949 62.9634C592.553 63.6102 592.12 64.2333 591.652 64.8295C591.2 65.4543 590.707 66.048 590.176 66.6067C589.11 67.7441 588.097 68.7038 587.191 69.8057C583.699 74.4926 581.991 80.2705 582.375 86.1027C582.542 91.985 584.011 97.7571 586.675 103.004C583.685 97.8227 581.933 92.02 581.557 86.0494C581.001 79.9559 582.633 73.8635 586.16 68.8638C587.102 67.673 588.204 66.5534 589.128 65.5048C590.124 64.4634 591.022 63.3331 591.812 62.1281C593.327 59.6313 594.663 57.03 595.81 54.3439C598.088 48.861 600.694 43.5197 603.612 38.349C606.669 33.2119 610.242 28.4003 614.276 23.9891C618.261 19.3636 623.572 16.0753 629.488 14.5699C635.317 13.1811 641.372 13.0358 647.261 14.1434C653.128 15.1636 658.82 17.0189 664.162 19.6527V19.6527Z" fill="#F4D7B8"></path> <path d="M581.38 93.7627C580.659 97.4848 580.237 101.259 580.118 105.048C579.943 108.813 580.062 112.586 580.473 116.333C581.187 123.811 583.316 131.084 586.747 137.766C590.215 144.412 595.063 150.241 600.965 154.863C606.976 159.453 613.62 163.147 620.692 165.829C618.915 165.242 617.137 164.709 615.36 164.051C613.583 163.394 611.806 162.701 610.028 161.83C608.291 161.018 606.6 160.111 604.963 159.111C603.305 158.146 601.698 157.096 600.147 155.965C593.923 151.343 588.806 145.393 585.165 138.548C581.695 131.65 579.641 124.127 579.123 116.422C578.545 108.795 579.309 101.126 581.38 93.7627V93.7627Z" fill="#F4E3D3"></path> <path d="M715.949 146.795C719.307 148.991 722.381 151.594 725.101 154.544C727.892 157.474 730.282 160.761 732.21 164.318C733.149 166.119 733.945 167.991 734.592 169.916C735.186 171.856 735.579 173.851 735.765 175.87C735.94 177.895 735.892 179.933 735.622 181.948C735.3 183.926 734.745 185.859 733.97 187.706C734.873 183.885 735.018 179.924 734.396 176.048C733.718 172.256 732.44 168.597 730.611 165.207C728.742 161.773 726.552 158.524 724.071 155.503C722.844 153.975 721.529 152.5 720.161 151.078C718.792 149.656 717.406 148.163 715.949 146.795Z" fill="#D8A377"></path> <path d="M606.029 110.717C606.029 110.717 605.851 111.108 608.517 109.757C613.849 107.038 616.106 106.629 622.486 106.398C628.866 106.167 631.888 104.159 632.012 102.222C632.136 100.284 627.604 98.8449 621.171 101.244C614.737 103.643 604.412 105.652 606.029 110.717Z" fill="#BC8F48"></path> <path d="M682.325 83.2416C682.325 83.2416 682.769 83.4371 679.179 84.1302C672.07 85.5342 669.458 86.7249 662.882 90.7592C656.306 94.7934 651.917 95.2378 650.442 93.816C648.967 92.3942 652.645 88.2533 660.732 85.8718C668.818 83.4904 680.477 78.2831 682.325 83.2416Z" fill="#BC8F48"></path> <path d="M645.857 160.443C645.857 160.443 656.236 173.435 677.847 148.536L645.857 160.443Z" fill="white"></path> <path d="M678.132 149.016C678.132 149.016 672.569 163.766 662.368 167.374C651.225 171.302 643.992 160.461 643.992 160.461C643.992 160.461 647.031 159.341 647.688 160.177C649.821 162.931 657.943 166.095 675.519 150.988L678.132 149.016Z" fill="#EF7362"></path> <path d="M656.272 151.593C656.64 151.466 657.022 151.383 657.409 151.344C667.539 150.544 678.647 147.985 679.304 147.363C679.304 147.363 679.464 147.363 679.429 147.363C678.896 148.785 673.902 152.695 673.866 152.695C662.439 153.832 649.945 159.288 647.35 160.053C645.854 160.437 644.303 160.563 642.765 160.426C642.738 160.416 642.714 160.398 642.698 160.374C642.681 160.35 642.672 160.322 642.672 160.293C642.672 160.263 642.681 160.235 642.698 160.211C642.714 160.187 642.738 160.169 642.765 160.159C644.702 159.768 645.271 158.382 646.319 157.209C647.316 155.963 648.475 154.857 649.767 153.921L656.272 151.593Z" fill="#C4453F"></path> <path opacity="0.51" d="M646.71 128.614C646.71 128.614 665.3 134.727 657.622 139.046C657.142 139.312 657.071 139.17 657.071 139.17C657.071 139.17 648.327 143.187 644.542 137.393C644.542 137.464 645.128 128.56 646.71 128.614Z" fill="#ED9B64"></path> <path d="M640.028 101.103C640.028 101.103 643.12 135.367 644.702 137.873C646.283 140.379 650.762 141.907 657.569 139.046C657.569 139.046 649.074 140.183 648.38 136.238C647.687 132.293 640.028 101.103 640.028 101.103Z" fill="#ED9B64"></path> <path d="M670.808 114.558C673.329 113.594 674.355 110.152 673.1 106.87C671.845 103.588 668.783 101.709 666.262 102.673C663.741 103.637 662.715 107.08 663.97 110.362C665.226 113.644 668.287 115.523 670.808 114.558Z" fill="#263F8C"></path> <path d="M683.534 100.018C685.774 101.493 667.362 93.2469 657.552 107.731" stroke="#ED9B64" stroke-linecap="round" stroke-linejoin="round"></path> <path opacity="0.76" d="M672.788 105.721C674.506 105.165 675.684 104.048 675.418 103.227C675.152 102.405 673.543 102.189 671.825 102.745C670.107 103.301 668.929 104.418 669.195 105.24C669.461 106.062 671.07 106.277 672.788 105.721Z" fill="white"></path> <path d="M687.16 102.453C687.341 101.902 687.591 101.376 687.907 100.889C688.197 100.458 688.517 100.048 688.866 99.6629C689.599 98.8521 690.48 98.1885 691.461 97.708C691.498 98.3212 691.376 98.9335 691.106 99.4852C690.868 100.005 690.55 100.485 690.164 100.907C689.379 101.764 688.314 102.313 687.16 102.453V102.453Z" fill="#ED9B64"></path> <path d="M688.581 104.639C689.185 104.008 689.966 103.574 690.82 103.395C691.182 103.306 691.551 103.253 691.922 103.235C692.334 103.265 692.748 103.229 693.148 103.128C693.308 103.714 692.829 104.23 692.473 104.514C692.105 104.8 691.681 105.005 691.229 105.118C690.779 105.234 690.31 105.252 689.852 105.169C689.395 105.086 688.962 104.905 688.581 104.639V104.639Z" fill="#ED9B64"></path> <path d="M688.101 103.288C688.477 102.649 689.051 102.15 689.736 101.866C690.026 101.751 690.331 101.679 690.642 101.653C690.962 101.653 691.246 101.653 691.744 101.528C691.794 101.759 691.786 101.998 691.721 102.224C691.656 102.451 691.535 102.657 691.371 102.826C691.101 103.12 690.775 103.355 690.411 103.519C690.036 103.671 689.63 103.73 689.227 103.689C688.825 103.649 688.438 103.511 688.101 103.288V103.288Z" fill="#ED9B64"></path> <path d="M623.247 129.096C625.256 128.55 626.264 125.828 625.499 123.014C624.735 120.201 622.488 118.363 620.48 118.909C618.472 119.454 617.463 122.177 618.228 124.99C618.992 127.803 621.239 129.642 623.247 129.096Z" fill="#263F8C"></path> <path d="M633.541 118.679C633.541 118.679 619.768 109.953 612.534 123.193" stroke="#ED9B64" stroke-linecap="round" stroke-linejoin="round"></path> <path opacity="0.76" d="M625.903 122.075C627.603 121.675 628.825 120.685 628.632 119.863C628.439 119.041 626.904 118.699 625.203 119.099C623.502 119.499 622.28 120.489 622.473 121.311C622.667 122.133 624.202 122.475 625.903 122.075Z" fill="white"></path> <path d="M616.693 125.22C615.704 125.713 614.586 125.887 613.494 125.717C612.931 125.643 612.384 125.474 611.877 125.22C611.679 125.111 611.504 124.967 611.361 124.793C611.265 124.678 611.209 124.534 611.201 124.384C611.108 124.135 610.989 123.897 610.846 123.673C611.167 123.597 611.504 123.629 611.805 123.762C611.965 123.762 612.125 124.011 612.161 123.958C612.196 123.904 612.161 123.958 612.303 123.958C612.782 123.924 613.263 123.924 613.743 123.958C614.826 124.089 615.849 124.527 616.693 125.22V125.22Z" fill="#EDAE83"></path> <path d="M616.693 127.547C616.532 127.985 616.24 128.363 615.858 128.631C615.526 128.87 615.152 129.045 614.756 129.146C614.357 129.218 613.947 129.218 613.548 129.146C613.072 129.108 612.628 128.892 612.304 128.542C612.614 128.253 612.953 127.996 613.317 127.778C613.633 127.593 613.974 127.456 614.33 127.369C615.118 127.201 615.939 127.262 616.693 127.547V127.547Z" fill="#EDAE83"></path> <path d="M616.337 126.303C616.319 126.894 616.107 127.463 615.733 127.92C615.472 128.235 615.102 128.44 614.696 128.493C614.29 128.545 613.88 128.443 613.547 128.205C613.283 128.043 613.057 127.826 612.885 127.568C612.713 127.31 612.599 127.018 612.552 126.712C613.049 126.108 613.192 125.681 613.476 125.415C613.67 125.18 613.941 125.023 614.24 124.97C614.549 124.942 614.857 125.024 615.111 125.201C615.573 125.505 615.986 125.876 616.337 126.303Z" fill="#EDAE83"></path> <path d="M639.436 159.344C642.667 156.508 641.05 149.383 635.824 143.431C630.598 137.478 623.743 134.952 620.512 137.788C617.281 140.625 618.899 147.749 624.124 153.702C629.35 159.654 636.205 162.181 639.436 159.344Z" fill="#F2BEB1"></path> <path d="M705.809 135.879C710.283 126.15 706.928 115.052 698.314 111.09C689.7 107.128 679.089 111.802 674.614 121.531C670.14 131.26 673.495 142.358 682.109 146.32C690.723 150.282 701.334 145.608 705.809 135.879Z" fill="#F2BEB1"></path> <path opacity="0.2" d="M658.724 108.068L658.599 112.973L670.169 122.375L674.079 120.935L658.724 108.068Z" fill="white"></path> <path opacity="0.2" d="M659.381 103.448L658.653 105.385L677.136 121.078" fill="white"></path> <path opacity="0.2" d="M601.516 126.126L601.41 131.031L612.962 140.433L616.889 138.993L601.516 126.126Z" fill="white"></path> <path opacity="0.2" d="M601.461 123.442L619.944 139.135L622.006 137.073L602.19 121.505L601.461 123.442Z" fill="white"></path> <path d="M695.245 96.3223C695.245 96.3223 692.544 97.9751 692.472 99.148" stroke="#5C7C99" stroke-linecap="round" stroke-linejoin="round"></path> <path d="M653.428 113.791C653.428 113.791 641.912 109.65 635.407 119.745" stroke="#5C7C99" stroke-linecap="round" stroke-linejoin="round"></path> <path opacity="0.3" d="M673.831 128.08C685.157 128.08 694.34 119.185 694.34 108.211C694.34 97.2376 685.157 88.3418 673.831 88.3418C662.504 88.3418 653.322 97.2376 653.322 108.211C653.322 119.185 662.504 128.08 673.831 128.08Z" fill="#C9D5E2"></path> <path d="M693.219 101.227C694.077 103.741 694.424 106.402 694.237 109.052C694.05 111.702 693.334 114.288 692.132 116.657C690.929 119.026 689.264 121.13 687.234 122.845C685.205 124.56 682.853 125.85 680.316 126.641C675.187 128.388 669.579 128.066 664.684 125.742C659.788 123.419 655.992 119.279 654.102 114.2C653.241 111.686 652.893 109.025 653.078 106.374C653.264 103.723 653.979 101.136 655.182 98.7665C656.385 96.3968 658.051 94.2926 660.082 92.5784C662.113 90.8641 664.467 89.5747 667.005 88.7863C672.131 86.9722 677.767 87.2627 682.68 89.5942C687.593 91.9257 691.382 96.1083 693.219 101.227V101.227Z" stroke="#5C7C99" stroke-linecap="round" stroke-linejoin="round"></path> <path opacity="0.3" d="M628.178 143.848C636.832 139.516 640.076 128.469 635.423 119.174C630.771 109.879 619.983 105.856 611.329 110.188C602.675 114.52 599.431 125.566 604.083 134.861C608.736 144.156 619.523 148.18 628.178 143.848Z" fill="#C9D5E2"></path> <path d="M630.589 142.886C638.641 137.377 640.325 125.832 634.35 117.099C628.376 108.367 617.005 105.754 608.953 111.263C600.901 116.772 599.217 128.317 605.191 137.05C611.166 145.782 622.537 148.395 630.589 142.886Z" stroke="#5C7C99" stroke-linecap="round" stroke-linejoin="round"></path> <path d="M729.138 211.788C729.138 211.788 775.505 209.584 795.925 217.955C816.346 226.325 864.099 314.208 872.665 357.661C881.232 401.114 892.09 437.334 887.878 438.631C883.666 439.928 849.384 459.495 821.837 396.12C794.29 332.745 773.248 285.933 769.018 269.849C765.677 257.035 758.888 238.375 758.888 238.375L726.774 221.118L729.138 211.788Z" fill="#304299"></path> <path d="M670.844 220.3L718.828 203.754C718.828 203.754 731.482 202.51 755.368 210.863C776.819 218.327 710.298 283.729 687.674 239.049C687.674 239.049 685.897 271.946 656.484 260.749C656.484 260.731 666.045 227.178 670.844 220.3Z" fill="#90AAD6"></path> <path d="M631.604 453.399C631.604 453.399 549.941 540.198 545.604 558.396L567.126 579.847C567.126 579.847 609.086 564.83 675.252 457.344C661.514 449.933 646.816 450.129 631.532 453.399H631.604Z" fill="#20325B"></path> <path d="M721.334 493.227C721.334 493.227 714.972 497.119 716.891 503.446C718.811 509.772 734.663 519.014 763.952 520.738C793.24 522.462 829.513 503.819 829.709 497.065C829.815 491.112 823.346 481.355 821.196 483.79C818.601 486.686 764.823 523.653 721.334 493.227Z" fill="#90AAD6"></path> <path d="M950.614 1189.34C950.614 1189.34 946.597 1255.44 915.158 1259.7C880.361 1264.41 915.158 1205.27 915.158 1205.27L950.614 1189.34Z" fill="#EDCBB9"></path> <path d="M950.648 1186.38C950.648 1186.38 965.008 1194.09 967.585 1203.03L970 1228.81L953.5 1248L957.775 1228.81C957.775 1228.81 949.671 1259.7 938.012 1276.39C926.354 1293.08 886.473 1312.47 886.473 1307.33C886.473 1302.2 888.997 1286.82 892.445 1260.11C895.892 1233.4 914.837 1204.36 914.837 1204.36L915.211 1205.27C915.211 1205.27 897.99 1245.91 901.508 1251.47C905.027 1257.04 921.698 1265.96 931.721 1246.55C941.744 1227.14 950.648 1186.38 950.648 1186.38Z" fill="#263F8C"></path> <path d="M740.068 1180.3C740.068 1180.3 688.351 1246.96 683.588 1227.07C680.247 1213.21 703.688 1175.71 703.688 1175.71L740.068 1180.3Z" fill="#EDCBB9"></path> <path d="M731.163 1183.55C731.163 1183.55 736.495 1192.43 735.784 1200.79C735.073 1209.14 739.889 1226.9 739.889 1226.9L721.868 1239.42L719.344 1225.94C719.344 1225.94 698.96 1255.67 689.558 1263.99C680.157 1272.3 651.508 1284.41 650.033 1280.94C648.558 1277.47 647.847 1257.05 656.431 1236.01C661.034 1224.74 695.53 1187.1 695.53 1187.1C695.53 1187.1 671.946 1220.87 676.354 1229.97C680.761 1239.07 703.012 1229.97 731.163 1183.55Z" fill="#263F8C"></path> <path d="M224.035 384.728H254.87C266.351 376.926 274.17 361.446 274.17 343.621C274.277 332.906 271.224 322.397 265.391 313.408H210.457C204.625 322.397 201.571 332.906 201.678 343.621C201.678 360.007 208.289 374.42 218.277 382.719C219.905 384.038 221.941 384.748 224.035 384.728V384.728Z" fill="#60453A"></path> <path d="M330.437 267.254H308.791V386.327H330.437V267.254Z" stroke="#263238" stroke-linecap="round" stroke-linejoin="round"></path> <path d="M354.216 267.254H332.569V386.327H354.216V267.254Z" stroke="#263238" stroke-linecap="round" stroke-linejoin="round"></path> <path d="M35.9885 811.899C35.9885 811.899 0 606.844 0 560.761C0 514.678 47.3627 441.528 157.248 412.915C267.133 384.301 407.319 403.389 448.995 424.04C490.67 444.691 515.267 489.228 524.74 562.343C534.212 635.457 553.175 929.532 553.175 929.532L53.0676 937.476L35.9885 811.899Z" fill="#90AAD6"></path> <path d="M445.867 622.803C431.027 582.531 400.957 499.109 404.138 477.942C407.319 456.776 415.797 441.794 426.389 441.794C426.389 441.794 455.002 448.156 464.528 485.247C474.054 522.337 517.844 674.875 517.844 674.875L474.356 694.816L445.867 622.803Z" fill="#E5BFB3"></path> <path d="M538.496 789.648L518.058 788.119C509.84 787.494 501.582 788.587 493.809 791.33C486.037 794.073 478.921 798.404 472.916 804.049C466.91 809.693 462.146 816.527 458.927 824.115C455.708 831.702 454.106 839.877 454.221 848.118L458.042 1260.98C458.07 1264.13 459.34 1267.14 461.576 1269.36C463.812 1271.58 466.834 1272.83 469.985 1272.84H656.965L704.95 788.066L538.496 789.648Z" fill="#333333" stroke="#263238" stroke-linecap="round" stroke-linejoin="round"></path> <path d="M656.911 1272.87C653.757 1272.87 650.731 1271.63 648.491 1269.41C646.251 1267.19 644.979 1264.17 644.951 1261.02L641.13 848.154C641.017 839.913 642.622 831.74 645.842 824.154C649.061 816.567 653.825 809.735 659.83 804.091C665.836 798.447 672.95 794.115 680.721 791.371C688.492 788.628 696.749 787.532 704.967 788.155L725.405 789.683C733.468 790.29 741.322 792.537 748.486 796.285C755.65 800.033 761.974 805.204 767.07 811.482C772.166 817.759 775.928 825.011 778.123 832.793C780.319 840.574 780.904 848.722 779.841 856.738L726.045 1262.39C725.677 1265.26 724.274 1267.9 722.098 1269.82C719.923 1271.73 717.124 1272.78 714.226 1272.78L656.911 1272.87Z" fill="#90AAD6"></path> <path d="M224.124 881.85H583.37C588.38 881.847 593.341 882.832 597.97 884.748C602.6 886.663 606.806 889.472 610.349 893.014C613.893 896.556 616.704 900.761 618.622 905.389C620.539 910.018 621.526 914.979 621.526 919.989V1272.87H224.124V881.85Z" fill="#6887AD"></path> <path d="M469.468 729.667L486.404 747.688C522.836 749.427 558.713 757.304 592.522 770.987C645.5 793.238 713.372 819.754 717.566 850.464C721.761 881.174 665.654 1053.94 656.11 1096.34C646.567 1138.75 645.447 1153.57 645.447 1153.57C645.447 1153.57 654.973 1162.03 652.876 1169.46C650.779 1176.88 639.085 1212.89 639.085 1212.89C622.372 1216.75 605.373 1219.23 588.256 1220.32C570.848 1220.63 553.452 1219.21 536.326 1216.07C536.326 1216.07 533.163 1180.05 536.326 1171.64C539.49 1163.24 551.184 1153.66 552.232 1147.29C553.281 1140.93 557.564 1040.25 557.564 1001.05C557.564 961.842 579.815 899.195 579.815 899.195C579.815 899.195 474.959 894.948 444.16 891.767C413.361 888.585 339.305 817.586 337.119 782.61C334.933 747.635 418.604 709.531 469.468 729.667Z" fill="#20325B"></path> <path d="M640.223 1200.17C640.223 1200.17 630.679 1182.18 619.003 1190.64C607.327 1199.1 605.247 1210.79 598.885 1210.79C592.523 1210.79 536.345 1200.13 536.345 1200.13C536.345 1200.13 521.505 1258.44 526.819 1264.8C532.133 1271.17 580.864 1276.43 602.066 1279.61C623.268 1282.79 669.885 1294.46 700.613 1294.46C731.341 1294.46 726.045 1272.21 718.616 1264.8C711.187 1257.39 658.191 1228.74 650.797 1219.2C646.316 1213.42 642.749 1206.99 640.223 1200.13V1200.17Z" fill="#9B9897"></path> <path d="M724.072 1280.92C711.437 1283.59 698.561 1284.94 685.648 1284.96C658.084 1284.96 635.887 1274.29 600.858 1268.02C573.364 1262.99 539.277 1254.73 526.019 1251.42C525.291 1258.07 525.326 1263.19 526.695 1264.84C532.026 1271.18 580.74 1276.46 601.942 1279.64C623.144 1282.82 669.742 1294.5 700.488 1294.5C717.016 1294.5 723.13 1288.05 724.072 1280.92Z" fill="#494B59"></path> <path d="M251.155 432.944C251.155 432.944 187.566 457.327 164.267 473.233C140.968 489.139 155.772 549.529 155.772 583.42C155.772 617.312 149.427 708.483 148.361 726.486C147.295 744.489 170.612 768.89 186.607 778.434C202.602 787.977 338.149 793.238 374.174 793.238C410.198 793.238 487.577 769.939 481.215 701.054C474.853 632.169 452.602 579.191 449.421 567.532C446.24 555.874 445.173 517.77 446.257 507.107C447.341 496.444 455.783 464.72 439.895 449.881C424.007 435.041 357.219 418.104 326.402 419.188C295.585 420.272 251.155 432.944 251.155 432.944Z" fill="#EFC59C"></path> <path d="M268.892 216.745C268.892 216.745 238.875 225.507 226.346 250.512C213.816 275.517 212.59 294.32 218.846 315.594C225.102 336.867 248.863 396.919 256.398 414.424C263.934 431.93 266.404 464.506 281.421 484.375C296.439 504.245 332.73 521.928 332.73 521.928C332.73 521.928 360.223 484.375 365.253 465.626C370.282 446.876 355.816 405.201 355.816 405.201C355.816 405.201 381.123 377.085 377.373 344.562C373.623 312.039 360.223 267.964 354.092 255.506C347.96 243.048 325.23 204.305 268.892 216.745Z" fill="#E5BFB3"></path> <path d="M235.125 343.105C235.125 343.105 220.09 323.076 210.084 334.326C200.079 345.576 217.584 373.123 227.59 376.872C237.596 380.622 250.143 370.51 250.143 370.51" fill="white"></path> <path d="M240.83 375.877L248.898 371.647L253.448 375.202C271.234 390.075 292.161 400.721 314.655 406.339C350.892 414.905 358.89 401.434 358.89 401.434C358.89 401.434 369.677 447.215 365.608 464.08C361.538 480.946 332.729 521.911 332.729 521.911C332.729 521.911 282.594 499.696 270.989 464.258L244.917 386.256L240.83 375.877Z" fill="#D1A69B"></path> <path d="M270.136 298.853C269.787 298.851 269.439 298.797 269.106 298.693C268.677 298.575 268.277 298.369 267.933 298.089C267.598 297.799 267.321 297.449 267.115 297.058C266.92 296.665 266.811 296.235 266.795 295.796C266.77 295.355 266.837 294.913 266.991 294.499C272.589 277.722 293.862 274.861 294.751 274.754C295.616 274.653 296.486 274.897 297.172 275.433C297.858 275.97 298.305 276.755 298.415 277.619C298.525 278.483 298.289 279.356 297.76 280.047C297.23 280.739 296.449 281.193 295.586 281.312C295.391 281.312 277.547 283.747 273.318 296.596C273.119 297.27 272.699 297.858 272.127 298.266C271.547 298.678 270.847 298.884 270.136 298.853V298.853Z" fill="#60453A"></path> <path d="M351.48 278.024C351.047 278.035 350.618 277.957 350.218 277.793C349.825 277.628 349.468 277.386 349.169 277.082C346.74 274.712 343.646 273.137 340.3 272.569C336.953 272.001 333.513 272.465 330.437 273.901C329.655 274.29 328.75 274.353 327.92 274.077C327.091 273.8 326.405 273.207 326.012 272.426C325.812 272.039 325.694 271.616 325.663 271.182C325.633 270.748 325.691 270.313 325.834 269.902C325.968 269.488 326.184 269.105 326.467 268.776C326.751 268.446 327.098 268.177 327.487 267.983C331.79 265.902 336.631 265.207 341.345 265.993C346.059 266.78 350.413 269.008 353.808 272.372C354.132 272.668 354.387 273.032 354.554 273.439C354.741 273.836 354.838 274.27 354.838 274.709C354.838 275.149 354.741 275.583 354.554 275.98C354.387 276.386 354.132 276.751 353.808 277.046C353.511 277.366 353.147 277.614 352.741 277.775C352.343 277.948 351.913 278.032 351.48 278.024V278.024Z" fill="#60453A"></path> <path d="M296.794 309C297.913 312.964 296.989 316.696 294.732 317.318C292.475 317.94 289.809 315.221 288.69 311.257C287.57 307.294 288.494 303.527 290.751 302.922C293.008 302.318 295.781 305.019 296.794 309Z" fill="#1F3F14"></path> <path d="M346.753 294.943C347.837 298.906 346.913 302.638 344.691 303.26C342.47 303.882 339.733 301.163 338.649 297.165C337.564 293.166 338.453 289.469 340.675 288.83C342.896 288.19 345.633 290.838 346.753 294.943Z" fill="#1F3F14"></path> <path d="M674.043 740.116C674.043 740.116 697.574 750.673 701.892 753.73C706.211 756.787 718.1 775.341 719.096 781.134C720.091 786.928 718.9 789.292 715.275 787.195C711.649 785.098 701.377 772.799 693.433 764.411C685.489 756.022 675.341 750.744 672.87 745.75C670.4 740.756 670.098 739.245 674.043 740.116Z" fill="#C69F95"></path> <path d="M550.029 701.018C550.029 701.018 642.319 727.676 655.915 731.692C666.096 734.854 675.461 740.204 683.355 747.367C687.23 751.028 708.627 775.287 710.955 782.343C713.283 789.398 716.482 808.272 712.502 810.032C708.521 811.791 704.469 807.135 702.674 803.136C700.678 799.346 698.296 795.773 695.565 792.473C695.565 792.473 700.363 807.757 699.546 815.452C698.728 823.148 696.364 827.893 690.002 828.906C683.64 829.919 676.531 819.362 671.608 809.517C668.606 803.551 664.751 798.054 660.163 793.202L644.95 786.093C647.567 793.737 650.999 801.078 655.186 807.988C661.016 816.679 667.911 818.651 665.405 823.45C662.9 828.248 651.312 829.101 645.856 822.526C640.4 815.95 631.638 808.823 626.787 799.991C621.935 791.158 609.832 772.55 609.832 772.55L592.948 764.038C584.398 759.706 575.043 757.194 565.473 756.662C540.147 755.294 489.657 751.331 488.288 741.716C487.062 722.7 541.64 696.024 550.029 701.018Z" fill="#E5BFB3"></path> <path d="M290.503 780.53C290.503 780.53 361.503 772.071 397.527 784.778C433.551 797.485 468.615 842.004 468.615 879.077C468.615 916.15 461.098 1119.57 463.23 1124.9C465.363 1130.23 477.004 1131.26 477.004 1141.84C477.004 1152.41 468.544 1207.59 468.544 1207.59C468.544 1207.59 418.782 1225.58 401.774 1225.58H384.802C384.802 1225.58 360.454 1160.96 361.503 1150.37C362.551 1139.78 368.914 1131.3 368.914 1125.98C368.914 1120.67 338.203 1009.38 338.203 976.575V903.46L278.845 890.735C278.845 890.735 252.364 815.488 290.503 780.53Z" fill="#20325B"></path> <path d="M511.837 1255.3C511.837 1255.3 480.043 1218.2 467.407 1198.07C454.771 1177.93 431.382 1166.27 417.645 1176.87C403.907 1187.46 403.853 1213.97 403.853 1213.97L380.554 1209.71C380.554 1209.71 389.049 1238.32 393.261 1254.14C397.473 1269.96 403.925 1280.66 431.418 1284.89C458.911 1289.12 504.532 1292.3 517.257 1279.55C529.982 1266.81 511.837 1255.3 511.837 1255.3Z" fill="#9B9897"></path> <path d="M517.168 1279.64C519.227 1277.98 520.687 1275.7 521.329 1273.13C521.97 1270.56 521.758 1267.86 520.723 1265.43C514.807 1268.79 508.674 1271.76 502.364 1274.31C479.047 1283.85 447.27 1281.72 420.772 1273.24C410.987 1270.43 401.989 1265.38 394.487 1258.49C398.841 1272 406.412 1281.06 431.364 1284.9C459 1289.19 504.426 1292.37 517.168 1279.64Z" fill="#494B59"></path> <path d="M232.815 789.647L111.662 788.226C108.54 787.959 105.401 787.959 102.278 788.226L81.7515 789.754C73.6923 790.361 65.8419 792.607 58.6814 796.354C51.5208 800.102 45.2011 805.273 40.1094 811.549C35.0177 817.825 31.2613 825.076 29.0706 832.855C26.8798 840.634 26.3007 848.779 27.3688 856.79L81.4139 1262.55C81.7971 1265.42 83.2121 1268.06 85.3957 1269.98C87.5793 1271.89 90.383 1272.94 93.2856 1272.94H244.349L232.815 789.647Z" fill="#6381AD"></path> <path d="M301.327 1272.87C304.477 1272.87 307.499 1271.62 309.735 1269.4C311.971 1267.18 313.241 1264.17 313.269 1261.02L317.09 848.154C317.203 839.913 315.598 831.74 312.378 824.154C309.159 816.567 304.395 809.735 298.389 804.091C292.384 798.447 285.27 794.115 277.499 791.371C269.728 788.628 261.471 787.532 253.253 788.155L232.779 789.683C224.719 790.293 216.868 792.541 209.706 796.29C202.545 800.04 196.224 805.211 191.131 811.489C186.038 817.766 182.28 825.017 180.088 832.798C177.895 840.578 177.314 848.725 178.379 856.738L232.424 1262.48C232.8 1265.35 234.21 1267.99 236.392 1269.91C238.573 1271.82 241.376 1272.87 244.278 1272.87H301.327Z" fill="#90AAD6"></path> <path d="M193.929 461.557C193.929 461.557 149.499 462.605 132.473 488.037C115.448 513.469 101.728 600.392 98.5464 622.643C95.3652 644.894 81.6095 723.304 86.9234 738.162C92.2373 753.019 105.993 755.117 131.354 756.183C156.715 757.249 168.426 743.476 173.74 727.588C179.054 711.699 192.881 563.302 192.881 563.302" fill="#6879AF"></path> <path d="M193.929 461.557C193.929 461.557 149.499 462.605 132.473 488.037C126.395 497.172 120.708 514.233 115.785 533.374C106.899 567.55 100.59 608.39 98.5462 622.643C95.3828 644.912 81.6094 723.304 86.9232 738.162C92.2371 753.019 105.993 755.117 131.354 756.183C156.714 757.249 168.426 743.476 173.74 727.588C179.054 711.699 192.881 563.302 192.881 563.302L193.929 461.557Z" fill="#D3A171"></path> <path d="M133.522 685.147C139.885 687.28 197.111 701.054 201.358 712.712C202.712 715.684 203.135 718.996 202.57 722.213C202.005 725.429 200.48 728.4 198.195 730.733C198.195 730.733 179.108 776.301 162.135 780.495C145.163 784.689 107.042 773.084 87.9722 764.5C68.9027 755.916 87.9722 691.385 90.1048 688.204" fill="#6879AF"></path> <path d="M134.002 682.873C140.364 684.988 197.111 701.054 201.358 712.712C202.712 715.684 203.135 718.997 202.57 722.213C202.005 725.43 200.48 728.4 198.195 730.733C198.195 730.733 179.108 776.301 162.135 780.495C145.163 784.69 107.042 773.084 87.9722 764.5C68.9027 755.916 88.3631 688.205 90.4958 685.023L134.002 682.873Z" fill="#D3A171"></path> <path d="M211.026 743.458C211.026 743.458 215.256 737.095 209.942 733.914C204.628 730.733 196.187 721.207 186.643 721.207C177.099 721.207 160.163 729.667 155.897 747.687C151.632 765.708 154.849 778.433 162.26 780.53C169.671 782.627 185.594 786.893 193.005 786.893C200.416 786.893 205.73 770.987 206.779 767.806C207.827 764.624 211.026 743.458 211.026 743.458Z" fill="#BF8E66"></path> <path d="M279.769 749.909C279.769 749.909 297.789 772.16 306.285 776.39C314.78 780.619 322.173 785.915 315.81 792.278C309.448 798.64 294.608 795.459 288.246 786.946C281.883 778.433 279.769 749.909 279.769 749.909Z" fill="#C69F95"></path> <path d="M218.313 743.458C218.313 743.458 268.075 736.012 275.539 736.012C283.003 736.012 294.608 789.008 295.657 797.503C296.705 805.998 300.989 811.277 295.657 815.489C293.349 817.756 290.392 819.247 287.197 819.754C284.282 822.24 281.085 824.376 277.672 826.116C274.49 827.165 262.814 825.032 262.814 825.032C262.814 825.032 261.765 829.298 253.288 828.213C244.811 827.129 216.18 791.141 216.18 791.141C216.18 791.141 195.013 785.809 186.518 778.434C178.023 771.058 181.187 758.262 186.518 749.821C191.85 741.379 203.473 739.157 203.473 739.157L218.313 743.458Z" fill="#E5BFB3"></path> <path d="M276.587 311.186C279.378 305.855 292.209 299.794 296.954 297.697C298.496 296.971 300.258 296.863 301.877 297.395C302.255 297.509 302.607 297.696 302.912 297.946C303.217 298.196 303.469 298.504 303.654 298.852" stroke="#B77E72" stroke-linecap="round" stroke-linejoin="round"></path> <path d="M354.215 286.874C351.958 285.595 339.66 286.341 334.666 286.714C333.928 286.753 333.218 287.011 332.627 287.453C332.035 287.896 331.588 288.505 331.343 289.202C331.137 289.771 331.052 290.376 331.094 290.979" stroke="#B77E72" stroke-linecap="round" stroke-linejoin="round"></path> <path opacity="0.77" d="M297.42 307.685C299.777 306.732 301.315 305.037 300.855 303.9C300.395 302.762 298.111 302.613 295.755 303.566C293.398 304.519 291.86 306.214 292.32 307.351C292.78 308.489 295.064 308.638 297.42 307.685Z" fill="white"></path> <path opacity="0.77" d="M347.808 294.905C350.255 294.215 351.969 292.699 351.636 291.518C351.303 290.337 349.05 289.939 346.603 290.628C344.156 291.318 342.442 292.834 342.775 294.015C343.108 295.196 345.361 295.594 347.808 294.905Z" fill="white"></path> <path d="M276.587 263.664C280.853 262.047 285.207 260.679 289.597 259.417C293.998 258.073 298.513 257.133 303.086 256.609C307.529 256.609 311.776 254.743 316.095 253.339C320.413 251.935 324.803 250.193 329.424 250.407C327.162 250.6 324.938 251.103 322.813 251.899C320.662 252.61 318.565 253.446 316.45 254.299C314.335 255.152 312.185 255.951 309.999 256.662C307.791 257.436 305.477 257.867 303.139 257.942C298.65 258.407 294.205 259.227 289.845 260.394C285.42 261.443 281.013 262.58 276.587 263.664Z" fill="#B77E72"></path> <path d="M273.335 257.034C277.618 255.417 281.954 254.031 286.344 252.769C290.752 251.431 295.273 250.497 299.851 249.979C304.294 249.979 308.542 248.202 312.842 246.709C317.143 245.216 321.568 243.563 326.189 243.776C323.928 243.97 321.703 244.472 319.578 245.269C317.428 245.98 315.313 246.815 313.198 247.669C311.083 248.522 308.95 249.321 306.747 250.032C304.545 250.806 302.237 251.237 299.904 251.312C295.415 251.774 290.97 252.594 286.611 253.764C282.185 254.813 277.778 255.95 273.335 257.034Z" fill="#B77E72"></path> <path opacity="0.54" d="M311.208 337.827C311.282 341.03 310.862 344.225 309.964 347.3C309.103 350.423 307.734 353.383 305.912 356.061C304.053 358.758 301.627 361.014 298.803 362.673L297.755 363.241C297.429 363.417 297.114 363.613 296.813 363.828C296.183 364.253 295.588 364.728 295.035 365.25C294.431 365.725 293.927 366.315 293.552 366.986C293.177 367.657 292.938 368.396 292.849 369.159C292.787 368.343 292.893 367.522 293.162 366.748C293.432 365.974 293.857 365.265 294.413 364.663C294.948 364.016 295.544 363.421 296.191 362.886C296.505 362.609 296.837 362.353 297.186 362.122L298.146 361.482C300.641 359.718 302.807 357.528 304.544 355.013C306.269 352.462 307.678 349.711 308.738 346.82C309.807 343.895 310.634 340.888 311.208 337.827V337.827Z" fill="#B77E72"></path> <path opacity="0.64" d="M347.197 326.755C348.974 328.372 350.751 330.007 352.528 331.642C354.306 333.277 355.976 334.877 357.86 336.334C358.73 337.057 359.664 337.7 360.65 338.253C361.108 338.517 361.598 338.72 362.108 338.858C362.715 338.995 363.31 339.185 363.885 339.426C365.062 339.881 366.142 340.557 367.066 341.417C368.017 342.24 368.647 343.373 368.843 344.616C368.346 343.561 367.54 342.681 366.533 342.092C365.575 341.479 364.525 341.023 363.423 340.742C362.89 340.582 362.321 340.475 361.77 340.368C361.113 340.248 360.474 340.045 359.868 339.764C358.749 339.198 357.694 338.513 356.723 337.72C354.847 336.168 353.116 334.449 351.551 332.584C349.943 330.763 348.486 328.814 347.197 326.755Z" fill="#B77E72"></path> <path d="M359.529 346.197C359.529 346.197 359.423 355.919 355.3 362.192C351.176 368.466 333.458 373.886 311.847 364.982L359.529 346.197Z" fill="#CE948A"></path> <path d="M361.396 342.928C361.396 342.928 342.22 355.013 308.897 365.285C307.867 365.605 333.067 363.295 344.335 359.207C355.994 354.906 361.396 342.928 361.396 342.928Z" fill="#B77E72"></path> <path d="M282.044 533.374C282.044 533.374 330.74 583.776 354.217 585.162L366.657 517.415L332.339 498.132L282.044 533.374Z" fill="#D0DADD"></path> <path opacity="0.16" d="M332.871 301.768C332.871 301.768 309.056 320.499 312.699 328.426C316.343 336.352 323.523 334.824 325.655 334.593C327.788 334.362 353.291 320.144 332.871 301.768Z" fill="#E86A52"></path> <path d="M332.57 317.425C333.299 310.849 323.826 298.302 322.44 292.793C321.054 287.283 326.848 279.037 326.848 279.037C326.848 279.037 327.274 284.795 328.021 290.109C328.584 294.354 330.258 298.376 332.872 301.768C333.654 302.745 334.649 303.545 335.52 304.522C340.852 310.263 344.14 312.929 342.718 319.327C340.194 330.576 323.311 342.786 315.811 332.762C324.822 334.326 331.842 323.983 332.57 317.425Z" fill="#B77E72"></path> <path d="M503.805 749.909C503.805 749.909 470.997 749.518 476.062 736.775C481.501 723.126 480.203 692.238 480.203 692.238L517.827 674.964C517.827 674.964 529.734 698.068 550.03 701.107C570.326 704.146 503.805 749.909 503.805 749.909Z" fill="#E5BFB3"></path> <path d="M435.773 446.771C435.773 446.771 461.631 449.685 468.065 465.289C474.498 480.893 473.841 511.141 481.501 513.896C489.16 516.651 482.691 540.963 488.218 541.638C493.746 542.313 462.627 571.549 450.595 571.549L435.773 446.771Z" fill="#E2B088"></path> <path d="M618.132 152.588C618.132 152.588 627.498 213.973 657.568 214.257C687.639 214.541 711.009 157.475 711.418 127.725" stroke="#E4E5EA" stroke-width="3" stroke-linecap="round" stroke-linejoin="round"></path> <path d="M488.876 697.979C488.876 697.979 498.864 709.655 509.367 705.71C519.87 701.764 520.99 692.025 517.489 685.432L488.876 697.979Z" fill="#E4E5EA"></path> <path d="M460.867 602.24C460.867 602.24 492.857 582.14 496.501 585.161C500.144 588.182 524.421 672.511 523.07 682.908C523.07 682.908 485.482 701.568 481.128 701.089L460.867 602.24Z" fill="#304299"></path> <path d="M657.569 214.257C657.569 214.257 631.675 279.498 635.407 322.4C639.139 365.302 634.11 431.237 616.658 461.556C599.205 491.875 608.518 575.937 593.554 608.905C578.59 641.872 544.396 702.581 511.802 691.118" stroke="#E4E5EA" stroke-width="2" stroke-linecap="round" stroke-linejoin="round"></path> <path d="M518.608 688.151C518.608 688.151 546.457 681.22 553.175 692.541C559.893 703.862 562.878 703.08 562.878 703.08" stroke="#E4E5EA" stroke-width="2" stroke-linecap="round" stroke-linejoin="round"></path> <path d="M599.755 715.378L629.968 625.291C634.054 613.135 635.531 600.255 634.304 587.49C633.551 581.125 633.171 574.722 633.167 568.314L626.911 534.031" stroke="#E4E5EA" stroke-width="2" stroke-linecap="round" stroke-linejoin="round"></path> <path d="M561.989 492.054C561.989 492.054 561.634 502.539 562.7 505.294C563.766 508.049 571.017 514.34 577.344 515.246C583.671 516.153 600.786 508.137 601.71 506.36C602.634 504.583 601.052 492.143 601.052 492.143L561.989 492.054Z" fill="#847F7E"></path> <path d="M600.84 489.689C604.189 490.573 607.449 491.763 610.579 493.244C611.63 493.823 612.81 494.126 614.009 494.126C615.209 494.126 616.389 493.823 617.44 493.244L610.437 498.131L601.551 500.939L600.84 489.689Z" fill="#686666"></path> <path d="M686.767 530.903C686.767 530.903 656.163 534.831 646.069 533.605C635.974 532.378 631.087 534.706 628.03 533.836C624.973 532.965 616.087 528.966 613.333 528.06C610.578 527.153 593.144 528.699 592.219 526.282C591.295 523.865 603.985 521.217 608.214 515.903C608.214 515.903 593.019 525.323 589.34 524.985C585.661 524.647 575.887 520.204 575.478 515.903C575.478 515.903 589.696 511.603 593.25 507.515C596.805 503.427 612.799 493.653 620.175 492.622C623.347 492.109 626.545 491.771 629.754 491.609C629.754 491.609 618.344 494.062 609.778 491.609C601.212 489.156 594.672 483.043 595.561 482.634C601.103 480.602 607.067 479.991 612.906 480.857C621.259 482.279 646.353 482.634 655.133 487.379C663.912 492.124 682.04 503.907 686.945 503.694L686.767 530.903Z" fill="#EDCBB9"></path> <path d="M581.521 508.351C592.308 508.351 601.053 501.054 601.053 492.054C601.053 483.053 592.308 475.757 581.521 475.757C570.734 475.757 561.99 483.053 561.99 492.054C561.99 501.054 570.734 508.351 581.521 508.351Z" fill="white"></path> <path d="M581.629 507.196C591.601 507.196 599.685 500.456 599.685 492.143C599.685 483.829 591.601 477.09 581.629 477.09C571.656 477.09 563.572 483.829 563.572 492.143C563.572 500.456 571.656 507.196 581.629 507.196Z" fill="#E2DDDC"></path> <path d="M879 450.5C836.347 480.019 714.528 540.038 686.768 530.903L674.968 498.753C674.968 498.753 816.896 428.624 838.204 424.412C850.378 421.995 872.309 420.858 883.097 423.63C894.204 426.563 888.437 443.906 879 450.5Z" fill="#2A3D7F"></path> <path d="M683.427 521.821C683.427 521.821 614.027 523.474 612.019 527.864C612.019 527.864 626.325 533.658 628.013 533.835C629.702 534.013 676.602 535.079 686.75 530.903L683.427 521.821Z" fill="#E0B8A6"></path> <path d="M608.145 515.868C608.145 515.868 590.373 523.812 590.835 524.754C591.297 525.696 592.985 527.313 593.839 527.171C594.692 527.029 606.03 518.623 608.145 515.868Z" fill="#E0B8A6"></path> <path d="M599.49 485.655C599.49 485.655 618.56 489.405 620.07 492.586C620.07 492.586 611.877 492.675 608.056 491.058C605.345 489.88 602.699 488.557 600.13 487.095L599.49 485.655Z" fill="#E0B8A6"></path> <path d="M535.562 573.077C535.562 573.077 551.557 575.37 556.889 579.813C562.221 584.256 569.578 587.668 568.476 594.03C567.374 600.393 551.451 623.852 551.451 623.852L522.287 598.847L535.562 573.077Z" fill="#CCB9B2"></path> <path d="M534.479 587.898C534.479 587.898 547.275 590.546 550.776 595.452C552.246 597.4 553.171 599.704 553.455 602.128C553.739 604.552 553.373 607.008 552.393 609.243C552.131 609.892 551.834 610.527 551.504 611.144C551.366 612.149 550.876 613.072 550.121 613.749C549.366 614.426 548.395 614.813 547.381 614.841C543.667 614.841 534.07 610.807 531.902 607.039C529.734 603.271 528.347 596.642 528.738 594.599C529.129 592.555 534.479 587.898 534.479 587.898Z" fill="#434343"></path> <path d="M517.702 619.782C517.702 619.782 520.758 629.094 528.045 630.001C533.466 630.658 540.486 624.225 543.702 620.919C544.837 619.761 545.475 618.205 545.479 616.583C545.479 611.482 545.373 600.126 543.844 600.837C541.872 601.761 538.371 603.04 536.967 614.432C536.949 614.432 520.51 621.523 517.702 619.782Z" fill="#F4D7CB"></path> <path d="M528.436 624.651C528.436 624.651 531.013 632.525 537.18 633.289C541.765 633.84 547.701 628.401 550.42 625.611C551.369 624.627 551.903 623.317 551.913 621.95C551.913 617.614 551.824 608.017 550.527 608.621C548.856 609.403 545.906 610.487 544.698 620.12C544.698 620.173 530.8 626.109 528.436 624.651Z" fill="#F4D7CB"></path> <path d="M522.713 579.421C522.713 579.421 506.078 593.55 505.829 598.526C505.58 603.502 504.887 611.571 506.327 612.957C507.411 614.023 515.355 615.392 523.299 612.957C531.243 610.522 531.386 597.957 531.386 597.957C531.386 597.957 512.352 601.263 511.161 601.974C509.97 602.685 519.176 588.769 519.176 588.769L522.713 579.421Z" fill="#EDCBB9"></path> <path d="M521.309 585.037C521.309 585.037 510.646 593.799 510.29 598.811L510.095 601.654C510.066 601.921 510.098 602.191 510.188 602.444C510.278 602.697 510.425 602.926 510.616 603.114C510.808 603.302 511.04 603.444 511.294 603.53C511.548 603.616 511.819 603.643 512.085 603.609L522.553 602.578L521.309 585.037Z" fill="#D8AE9C"></path> <path d="M554.135 611.908L552.358 609.242L551.345 610.326L551.754 614.521C552.344 614.331 552.875 613.99 553.293 613.531C553.71 613.073 554.001 612.513 554.135 611.908V611.908Z" fill="#434343"></path> <path d="M513.49 587.987C513.49 587.987 503.893 583.455 503.36 584.148C502.827 584.841 500.854 588.911 501.316 589.48C501.778 590.049 507.909 594.367 507.909 594.367L513.49 587.987Z" fill="#7F7D7C"></path> <path d="M509.581 583.384C511.74 583.384 513.49 581.634 513.49 579.474C513.49 577.315 511.74 575.564 509.581 575.564C507.421 575.564 505.671 577.315 505.671 579.474C505.671 581.634 507.421 583.384 509.581 583.384Z" fill="#C6C4C2"></path> <path d="M508.052 581.945L506.15 586.975" stroke="#C6C4C2" stroke-width="3" stroke-miterlimit="10" stroke-linecap="round"></path> <path d="M509.473 613.756C509.473 613.756 512.548 623.051 519.816 623.958C525.237 624.633 532.257 618.199 535.474 614.876C536.597 613.717 537.233 612.171 537.251 610.557C537.251 605.439 537.144 594.1 535.598 594.811C533.625 595.735 530.142 596.997 528.72 608.389C528.72 608.389 512.281 615.48 509.473 613.756Z" fill="#F4D7CB"></path> <path d="M534.053 572.882C534.053 572.882 527.992 569.594 524.171 577.076C520.35 584.558 517.436 590.334 517.56 592.964C517.684 595.594 517.347 606.311 520.972 607.306C524.598 608.301 531.085 597.94 530.889 595.79C530.694 593.639 532.329 586.53 536.558 585.482C540.788 584.433 539.064 572.188 534.053 572.882Z" fill="#F4D7CB"></path> <path d="M216.82 214.257C269.781 159.874 330.668 198.12 358.055 229.648C385.442 261.176 362.747 278.041 362.747 278.041C362.747 278.041 372.29 253.853 335.84 231.141C299.389 208.428 244.669 246.976 238.093 246.976C231.517 246.976 222.098 228.404 222.098 228.404L216.82 214.257Z" fill="#60453A"></path> <path d="M216.82 214.257C216.82 214.257 161.442 248.202 174.505 301.767C187.567 355.332 209.107 371.647 209.107 371.647L204.255 326.754L218.935 315.576C218.935 315.576 229.385 252.449 236.352 246.62L216.82 214.257Z" fill="#60453A"></path> <path d="M237.934 245.181C237.934 245.181 235.854 325.688 236.263 328.123C236.743 331.056 234.113 336.689 234.113 336.689L224.587 332.673L208.805 298.781L220.09 256.964L237.934 245.181Z" fill="#60453A"></path> <path d="M211.08 357.892C211.08 357.892 206.388 372.554 217.62 382.275C219.467 383.867 221.828 384.738 224.267 384.728H244.314L240.759 375.841C240.759 375.841 233.277 379.591 227.519 376.837C221.53 373.958 212.2 360.38 211.08 357.892Z" fill="#33231D"></path> <path d="M236.565 342.448C236.565 342.448 220.09 323.076 210.084 334.326C200.079 345.576 217.584 373.122 227.59 376.872C231.944 378.507 236.76 377.512 240.83 375.877C244.621 374.228 248.24 372.21 251.635 369.852" fill="#E5BFB3"></path> <path d="M226.523 339.054C226.523 339.054 216.215 334.415 214.314 343.194C212.412 351.974 215.167 355.742 215.167 355.742C215.167 355.742 215.522 338.023 226.523 339.054Z" fill="#D1A69B"></path> <path d="M225.155 349.023C225.155 349.023 223.253 367.791 230.309 365.711C237.364 363.632 233.774 355.724 229.367 354.266C228.183 353.983 227.127 353.314 226.364 352.365C225.602 351.416 225.176 350.241 225.155 349.023Z" fill="#D1A69B"></path> <path d="M779.575 290.908C790.327 312.928 800.138 335.339 809.788 357.802L824.148 391.569C826.549 397.157 829.23 402.62 832.181 407.938C835.024 413.358 838.134 418.601 841.262 423.933C833.682 414.216 827.119 403.746 821.677 392.689C816.346 381.653 811.441 370.421 806.571 359.189C801.701 347.957 797.063 336.636 792.549 325.262C788.035 313.888 783.752 302.46 779.575 290.908Z" fill="#22366D"></path> <path d="M670.844 220.3L670.293 221.064C666.739 225.862 647.722 252.272 649.784 255.844C651.302 258.27 653.705 260.01 656.484 260.696" fill="#7D96BC"></path> <path d="M717.354 204.465C717.354 204.465 743.585 237.379 750.658 233.381C757.732 229.382 765.676 217.83 765.676 217.83L764.094 201.497L742.981 192.611L718.935 194.78L717.354 204.465Z" fill="#7D96BC"></path> <path d="M692.545 212.854C692.545 212.854 698.836 244.843 721.247 252.876L722.224 261.283L684.121 273.421L664.678 269.866L667.664 262.758C667.664 262.758 681.882 231.159 678.203 217.812L692.545 212.854Z" fill="#ACC5E8"></path> <path d="M681.615 498.024C683.981 499.218 685.992 501.014 687.444 503.232C688.962 505.368 690.159 507.715 690.998 510.198C691.882 512.639 692.478 515.173 692.775 517.751C692.9 519.031 692.935 520.328 692.953 521.608C692.908 522.906 692.783 524.2 692.58 525.482C692.029 524.274 691.638 523.065 691.229 521.928C690.82 520.791 690.412 519.564 690.056 518.374C689.257 516.028 688.546 513.699 687.728 511.425C686.911 509.15 686.111 506.875 685.133 504.653C684.133 502.356 682.957 500.14 681.615 498.024V498.024Z" fill="#22366D"></path> <path d="M685.683 527.953C685.683 527.953 864.695 453.613 875.5 432.5C886.306 411.386 890 430 890 430C890 430 898 454 885 468C870.5 486.5 787.802 515.868 787.802 515.868L699.403 543.877L678.663 541.14L685.683 527.953Z" fill="#22366D"></path> <path d="M863.191 415.438C861.186 415.229 859.16 415.325 857.184 415.722C855.232 416.046 853.335 416.644 851.55 417.499C849.76 418.347 848.053 419.358 846.449 420.521C844.846 421.665 843.347 422.95 841.971 424.36C841.892 424.439 841.797 424.502 841.694 424.545C841.59 424.588 841.479 424.61 841.367 424.61C841.254 424.61 841.143 424.588 841.04 424.545C840.936 424.502 840.842 424.439 840.762 424.36C840.621 424.222 840.533 424.04 840.514 423.844C840.3 421.996 840.3 420.13 840.514 418.281C840.691 416.457 841.11 414.664 841.758 412.95C842.377 411.192 843.317 409.565 844.53 408.151C845.738 406.768 847.237 405.67 848.92 404.935C847.401 405.92 846.091 407.194 845.063 408.684C844.083 410.125 843.345 411.716 842.877 413.394C842.421 415.072 842.141 416.794 842.042 418.53C841.938 420.261 841.985 421.997 842.184 423.72L840.674 423.258C842.12 421.731 843.729 420.366 845.472 419.188C847.186 417.99 849.035 417 850.981 416.238C852.932 415.479 854.977 414.989 857.059 414.78C859.126 414.631 861.203 414.854 863.191 415.438Z" fill="#22366D"></path> <path d="M855.638 432.837C854.712 431.719 853.695 430.679 852.599 429.727C851.542 428.806 850.406 427.979 849.204 427.257C847.996 426.537 846.737 425.908 845.437 425.373C844.121 424.822 842.735 424.395 841.313 423.862C842.823 423.652 844.359 423.718 845.845 424.058C847.358 424.374 848.807 424.945 850.128 425.746C851.449 426.547 852.621 427.569 853.594 428.767C854.586 429.945 855.286 431.339 855.638 432.837Z" fill="#22366D"></path> <path d="M790.754 292.473C790.078 295.601 789.368 298.551 788.87 301.572C788.586 303.065 788.426 304.575 788.248 306.104C788.07 307.632 788.052 309.161 787.928 310.76C787.317 309.272 786.956 307.692 786.862 306.086C786.763 304.476 786.853 302.859 787.128 301.27C787.399 299.689 787.834 298.14 788.426 296.649C788.996 295.152 789.78 293.745 790.754 292.473V292.473Z" fill="#22366D"></path> <path d="M782.559 300.95C781.586 297.898 779.739 295.198 777.246 293.186C774.754 291.173 771.726 289.937 768.537 289.629C766.137 289.439 763.729 289.88 761.553 290.908C752.169 295.351 803.335 437.973 803.335 437.973L826.279 428.34L827.736 408.311C827.736 408.311 792.849 331.233 782.559 300.95Z" fill="#2C3F84"></path> <path opacity="0.22" d="M750.322 233.771C750.322 233.771 763.366 251.792 777.282 253.001C791.198 254.209 783.947 264.802 796.654 272.355C809.361 279.908 828.412 282.325 835.966 289.594C843.519 296.862 847.233 290.909 847.233 290.909C847.233 290.909 817.02 225.472 793.615 217.083C781.281 212.676 757.395 211.858 757.395 211.858C757.395 211.858 765.108 216.248 750.286 233.771" fill="#90AAD6"></path> <path d="M654.619 443.731C652.634 443.82 650.667 444.136 648.754 444.673C646.867 445.196 645.039 445.91 643.298 446.805C641.563 447.709 639.9 448.743 638.322 449.898C636.755 451.042 635.287 452.314 633.932 453.701L632.937 452.315C637.698 450.236 642.684 448.715 647.794 447.783C650.353 447.363 652.935 447.102 655.525 447.001C658.112 446.952 660.697 447.173 663.238 447.659C660.687 447.566 658.133 447.661 655.596 447.943C653.071 448.215 650.566 448.648 648.096 449.24C645.626 449.791 643.174 450.502 640.757 451.266C638.339 452.031 635.958 452.919 633.648 453.897L629.649 455.585L632.652 452.51C635.56 449.611 638.992 447.289 642.765 445.668C644.634 444.857 646.59 444.26 648.594 443.891C650.586 443.563 652.613 443.509 654.619 443.731V443.731Z" fill="#20325B"></path> <path d="M633.292 454.004C634.978 453.304 636.8 452.995 638.623 453.097C640.444 453.155 642.244 453.503 643.955 454.128C645.653 454.763 647.247 455.65 648.682 456.758C650.12 457.828 651.374 459.125 652.397 460.597C651.615 460.153 650.904 459.655 650.157 459.211C649.411 458.767 648.7 458.287 647.936 457.914C646.461 457.097 644.929 456.39 643.351 455.799C641.77 455.212 640.14 454.766 638.481 454.466C636.77 454.144 635.032 453.99 633.292 454.004V454.004Z" fill="#15263F"></path> <path d="M634.163 453.843C635.8 452.265 637.709 450.995 639.797 450.094C641.847 449.143 643.992 448.411 646.195 447.908C648.386 447.416 650.616 447.119 652.859 447.019C655.099 446.915 657.343 447.034 659.559 447.374C658.458 447.605 657.356 447.73 656.272 447.89L653.002 448.405C650.851 448.761 648.701 449.134 646.586 449.649C644.471 450.165 642.374 450.698 640.312 451.426C638.206 452.079 636.15 452.887 634.163 453.843V453.843Z" fill="#15263F"></path> <path d="M493.265 594.243C491.081 594.993 488.969 595.938 486.956 597.069C484.912 598.153 482.904 599.273 480.931 600.463C476.986 602.827 473.111 605.315 469.29 607.857L469.521 607.341L473.378 627.548L477.092 647.791L480.771 668.033L484.326 688.293L483.224 687.689L499.663 681.042L516.12 674.484L515.835 675.053L512.921 662.613L510.06 650.172L513.454 662.524L516.777 674.964L516.884 675.355L516.493 675.533L500.178 682.464L483.846 689.306L482.922 689.697L482.744 688.72L479.047 668.477L475.493 648.217L471.938 627.957L468.526 607.661V607.323L468.81 607.146C472.697 604.658 476.666 602.288 480.718 600.037C482.744 598.917 484.788 597.869 486.885 596.873C488.924 595.799 491.06 594.918 493.265 594.243V594.243Z" fill="#1B3656"></path> <path opacity="0.61" d="M474.925 614.326L496.856 603.2L509.492 667.944L486.122 676.812L474.925 614.326Z" fill="#959EBF"></path> <path d="M286.469 537.817L332.002 504.263L365.697 522.515L366.622 517.415L332.375 498.132L282.791 534.138L286.469 537.817Z" fill="#BEC4C6"></path> <path d="M364.933 433.565L330.65 499.678L348.103 507.515L392.942 533.338C392.942 533.338 383.114 456.065 364.933 433.565Z" fill="#E8F2F7"></path> <path d="M254.871 416.575L330.651 499.713L260.167 550.399L234.646 455.692L248.402 421.64L254.871 416.575Z" fill="#E8F2F7"></path> <path d="M261.606 423.986C261.606 423.986 240.279 464.578 239.284 472.913L234.592 455.692L248.348 421.64L254.817 416.575L261.606 423.986Z" fill="#B8BDBF"></path> <path d="M274.223 437.813L244.455 492.089L239.283 472.913C239.283 472.913 243.211 456.58 261.605 423.986L274.223 437.813Z" fill="#CDD0D1"></path> <path opacity="0.65" d="M248.4 421.64L324.34 504.263L330.649 499.713L254.869 416.575L248.4 421.64Z" fill="white"></path> <path d="M361.324 440.532C361.324 440.532 384.659 525.252 386.116 529.393L392.941 533.321C392.941 533.321 381.744 447.606 364.932 433.548L361.324 440.532Z" fill="#CDD0D1"></path> <path opacity="0.65" d="M336.64 500.531L369.163 438.755C369.163 438.755 365.413 433.228 364.933 433.601C364.453 433.974 330.65 499.713 330.65 499.713L332.428 498.132L336.64 500.531Z" fill="white"></path> <path d="M286.468 537.817L262.458 554.522L261.356 549.528L282.79 534.138L286.468 537.817Z" fill="#D3A784"></path> <path d="M365.696 522.515L389.741 536.821L389.297 531.276L366.62 518.214L365.696 522.515Z" fill="#D3A784"></path> <path d="M286.47 546.809C291.997 551.697 297.577 556.513 303.282 561.169C308.987 565.826 314.727 570.393 320.646 574.694C326.509 579.038 332.641 583.009 339.004 586.583C342.152 588.323 345.425 589.826 348.797 591.08C352.024 592.356 355.457 593.03 358.927 593.07L357.309 594.492C359.051 584.765 360.941 575.079 362.979 565.435C364.045 560.618 365.076 555.784 366.284 551.004C366.889 548.604 367.511 546.205 368.15 543.895C368.731 541.489 369.54 539.144 370.567 536.893C369.842 539.218 369.29 541.594 368.915 544.001C368.47 546.418 368.079 548.853 367.688 551.288L365.378 565.879L360.775 595.061C360.716 595.45 360.522 595.807 360.226 596.067C359.93 596.327 359.552 596.474 359.158 596.482C355.242 596.497 351.356 595.792 347.695 594.403C344.142 593.11 340.705 591.516 337.422 589.64C330.943 585.969 324.752 581.81 318.904 577.2C313.057 572.615 307.459 567.763 302.056 562.698C299.337 560.192 296.724 557.562 294.147 554.931C291.57 552.301 288.905 549.582 286.47 546.809Z" fill="#D3A784"></path> <path d="M332.143 506.805C333.76 513.114 335.164 519.458 336.55 525.803C337.936 532.148 339.198 538.528 340.442 544.908C341.686 551.288 342.841 557.686 343.89 564.102C344.939 570.518 346.058 576.934 346.627 583.42C346.005 580.239 345.294 577.058 344.583 573.894L342.557 564.351C341.189 558.006 339.945 551.626 338.7 545.246C337.456 538.866 336.283 532.468 335.146 526.07C334.009 519.672 333.031 513.256 332.143 506.805Z" fill="#999898"></path> <path d="M235.907 460.419L193.805 473.819C193.805 473.819 190.642 462.889 182.893 462.605C182.893 462.605 208.183 450.733 209.818 450.004C211.453 449.276 242.447 436.373 242.447 436.373L234.592 455.691L235.907 460.419Z" fill="#B78862"></path> <path d="M235.907 460.419L193.805 473.819L193.538 499.393L242.447 484.66L235.907 460.419Z" fill="#C19A7C"></path> <path d="M363.173 422.902C363.173 422.902 392.124 428.963 403.889 433.05C415.654 437.138 430.796 443.34 440.464 447.641C440.464 447.641 436.643 454.128 436.909 456.652L437.283 459.797L437.514 461.574L439.291 476.13L377.497 458.358C377.497 458.358 369.464 436.16 365.057 433.583L363.173 422.902Z" fill="#C19A7C"></path> <path d="M193.361 515.548C193.361 515.548 194.303 535.329 192.881 562.68C192.117 577.484 190.02 594.19 188.154 611.891C182.929 661.831 178.646 698.192 178.646 698.192C178.646 698.192 163.095 702.44 153.996 703.097C143.848 703.826 193.539 499.322 193.539 499.322L193.361 515.548Z" fill="#B5896B"></path> <path d="M178.646 698.192C173.51 699.294 168.445 700.414 163.433 701.605C158.421 702.795 153.427 704.11 148.54 705.657C143.655 707.192 138.851 708.972 134.145 710.988C129.434 713.109 124.889 715.58 120.549 718.381C124.085 714.433 128.253 711.099 132.883 708.518C137.538 705.952 142.438 703.856 147.509 702.262C152.552 700.725 157.711 699.596 162.935 698.885C168.135 698.123 173.399 697.891 178.646 698.192V698.192Z" fill="#996E4F"></path> <path d="M178.645 698.192C172.41 694.937 165.86 692.323 159.096 690.39C152.463 688.459 145.616 687.355 138.712 687.103C131.843 686.897 124.981 687.699 118.345 689.484C111.616 691.396 105.133 694.086 99.0264 697.499C104.487 692.84 110.758 689.226 117.527 686.836C120.95 685.639 124.47 684.741 128.048 684.152C131.64 683.664 135.265 683.45 138.889 683.513C146.117 683.777 153.256 685.193 160.038 687.707C166.784 690.135 173.074 693.679 178.645 698.192V698.192Z" fill="#996E4F"></path> <path d="M146.406 718.328C144.096 722.173 141.443 725.802 138.48 729.169C135.555 732.718 132.138 735.83 128.332 738.411C127.764 738.744 127.17 739.03 126.555 739.264L125.879 739.566C125.728 739.631 125.584 739.715 125.453 739.815C124.801 740.342 124.279 741.01 123.924 741.77C123.069 743.635 122.471 745.608 122.147 747.634C121.347 751.864 120.974 756.289 120.548 760.75C119.473 756.34 119.089 751.789 119.41 747.261C119.529 744.874 120.052 742.525 120.956 740.312C121.501 739.027 122.356 737.897 123.444 737.024C123.756 736.792 124.09 736.59 124.44 736.42L125.275 736.029C125.706 735.835 126.122 735.609 126.519 735.354C128.29 734.239 129.961 732.973 131.513 731.568C133.184 730.218 134.783 728.707 136.436 727.25C139.759 724.282 142.994 721.243 146.406 718.328Z" fill="#996E4F"></path> <path d="M178.645 705.621C181.62 706.895 184.072 709.146 185.594 712.001C187.173 714.845 188.169 717.975 188.527 721.207C188.537 721.305 188.527 721.404 188.498 721.499C188.469 721.593 188.422 721.681 188.359 721.757C188.297 721.833 188.219 721.896 188.132 721.942C188.045 721.988 187.95 722.016 187.851 722.025H187.674C184.289 721.962 180.926 722.566 177.775 723.802C174.594 725.029 171.63 726.757 168.995 728.92C166.314 731.105 163.925 733.626 161.886 736.42C159.875 739.235 158.092 742.207 156.555 745.306C157.686 741.964 159.208 738.767 161.087 735.78C162.966 732.744 165.284 730.001 167.964 727.641C170.679 725.26 173.797 723.383 177.17 722.096C180.56 720.758 184.194 720.152 187.834 720.319L186.963 721.154C186.84 719.638 186.596 718.135 186.234 716.658C185.869 715.165 185.357 713.713 184.706 712.321C184.031 710.942 183.196 709.648 182.218 708.465C181.181 707.338 179.976 706.379 178.645 705.621Z" fill="#996E4F"></path> <path d="M131.673 772.676C133.788 773.298 135.868 774.009 138 774.559C140.133 775.11 142.23 775.697 144.38 776.123C146.494 776.565 148.639 776.832 150.796 776.923C151.848 776.972 152.902 776.912 153.942 776.745C154.432 776.673 154.914 776.554 155.381 776.39C155.73 776.251 156.059 776.065 156.359 775.839V776.692C155.381 774.407 154.648 772.024 154.173 769.583C153.717 767.149 153.456 764.683 153.391 762.208C153.34 759.735 153.494 757.262 153.853 754.815C154.223 752.381 154.763 749.975 155.47 747.617L156.377 748.097C156.135 748.31 155.853 748.471 155.548 748.572C155.243 748.673 154.92 748.711 154.599 748.683C153.982 748.62 153.383 748.433 152.84 748.132C151.912 747.665 151.056 747.067 150.299 746.355C148.824 744.986 147.496 743.467 146.335 741.823C147.028 742.552 147.722 743.281 148.432 743.956C149.132 744.648 149.88 745.29 150.672 745.875C151.428 746.477 152.273 746.956 153.178 747.297C153.524 747.485 153.912 747.584 154.306 747.584C154.7 747.584 155.088 747.485 155.435 747.297V747.297C155.536 747.203 155.67 747.151 155.808 747.151C155.946 747.151 156.079 747.203 156.181 747.297C156.242 747.363 156.287 747.442 156.312 747.529C156.337 747.615 156.341 747.706 156.323 747.795C155.765 750.134 155.373 752.509 155.15 754.903C154.899 757.264 154.821 759.64 154.919 762.012C155.009 764.4 155.288 766.777 155.755 769.121C156.18 771.441 156.848 773.711 157.745 775.892V776.017C157.797 776.137 157.813 776.27 157.791 776.4C157.769 776.529 157.71 776.649 157.621 776.745C157.141 777.281 156.528 777.68 155.843 777.901C155.264 778.088 154.669 778.225 154.066 778.309C152.884 778.421 151.694 778.421 150.512 778.309C148.275 778.122 146.062 777.723 143.901 777.119C141.756 776.568 139.644 775.897 137.574 775.11C135.708 774.453 133.682 773.582 131.673 772.676Z" fill="#996E4F"></path> <path d="M184.528 726.806C186.398 727.225 188.225 727.82 189.984 728.583C191.749 729.366 193.459 730.269 195.102 731.284C196.741 732.344 198.292 733.532 199.741 734.839C201.196 736.129 202.453 737.626 203.473 739.282C200.488 736.98 197.379 734.845 194.16 732.884C190.979 730.787 187.727 728.885 184.528 726.806Z" fill="#996E4F"></path> <path d="M155.044 769.689L185.026 776.923C185.026 776.923 191.726 782.823 197.609 784.849C197.609 784.849 196.347 787.017 191.104 787.177C185.861 787.337 162.26 780.53 162.26 780.53C162.26 780.53 156.52 779.642 155.044 769.689Z" fill="#996E4F"></path> <path d="M153.996 769.69C153.996 769.69 101.301 764.127 88.5943 741.912C81.3965 729.276 86.817 696.38 86.817 696.38C86.817 696.38 83.0316 711.735 82.1074 717.493C81.1833 723.251 78.3575 743.138 80.2414 751.687C82.1252 760.235 83.7958 761.746 86.2839 763.718C88.772 765.691 111.165 773.849 117.474 775.146C123.783 776.443 133.718 779.98 145.358 780.957C156.999 781.935 162.26 780.549 162.26 780.549L160.109 778.771C157.251 776.393 155.13 773.249 153.996 769.708V769.69Z" fill="#B5855E"></path> <path d="M177.864 515.868C180.271 520.514 182.39 525.304 184.208 530.21C186.071 535.101 187.661 540.09 188.971 545.157C190.296 550.235 191.252 555.402 191.833 560.618C192.408 565.838 192.342 571.108 191.637 576.311C191.637 575.014 191.637 573.699 191.637 572.401C191.637 571.104 191.459 569.807 191.388 568.527L191.264 566.572L191.033 564.653C190.855 563.373 190.749 562.076 190.5 560.796C189.682 555.695 188.563 550.63 187.301 545.601C186.039 540.571 184.511 535.613 182.964 530.655C182.182 528.166 181.365 525.696 180.494 523.244C179.623 520.791 178.752 518.321 177.864 515.868Z" fill="#996E4F"></path> <path d="M175.25 541.317C177.658 545.963 179.777 550.753 181.595 555.659C183.457 560.55 185.047 565.54 186.358 570.606C187.684 575.69 188.64 580.863 189.219 586.085C189.794 591.299 189.729 596.563 189.024 601.76C189.024 600.463 189.024 599.148 189.024 597.85C189.024 596.553 188.846 595.256 188.775 593.976L188.651 592.039L188.42 590.102C188.242 588.822 188.135 587.525 187.886 586.245C187.069 581.145 185.949 576.08 184.687 571.05C183.426 566.021 181.879 561.062 180.351 556.104C179.569 553.616 178.752 551.145 177.881 548.693C177.01 546.24 176.121 543.752 175.25 541.317Z" fill="#996E4F"></path> <path d="M144.363 646.582C148.264 650.063 151.945 653.785 155.382 657.725C158.864 661.641 162.127 665.747 165.156 670.023C168.19 674.303 170.916 678.793 173.314 683.459C175.682 688.136 177.472 693.083 178.645 698.192C178.148 696.984 177.668 695.775 177.206 694.638C176.744 693.5 176.122 692.274 175.606 691.083L174.806 689.306L173.882 687.529C173.26 686.392 172.709 685.219 172.105 684.117C169.528 679.62 166.773 675.231 163.699 671.036C160.624 666.842 157.55 662.684 154.351 658.596C152.739 656.558 151.092 654.544 149.41 652.553C147.775 650.527 146.051 648.608 144.363 646.582Z" fill="#996E4F"></path> <path d="M486.211 539.061C480.501 541.564 475.008 544.536 469.789 547.947C469.17 548.367 468.577 548.824 468.012 549.315C467.428 549.769 466.876 550.262 466.359 550.79C465.293 551.75 464.138 553.101 462.805 554.114C461.557 555.21 460.199 556.174 458.753 556.993C457.331 557.91 455.664 558.375 453.972 558.326C455.398 557.683 456.675 556.751 457.722 555.589C458.818 554.501 459.856 553.356 460.832 552.159L462.29 550.381C462.769 549.777 463.249 549.173 463.836 548.498C464.953 547.209 466.224 546.063 467.621 545.085C470.336 543.163 473.334 541.676 476.507 540.678C479.635 539.627 482.911 539.081 486.211 539.061V539.061Z" fill="#BF9477"></path> <path d="M481.5 533.374C478.847 532.301 475.938 532.023 473.13 532.574C470.38 533.127 467.762 534.201 465.416 535.738C463.053 537.23 460.796 539.132 458.396 540.803C455.997 542.473 453.616 544.144 451.11 545.672C453.189 543.593 455.322 541.602 457.543 539.701C459.738 537.734 462.053 535.906 464.475 534.227C467.027 532.574 469.93 531.54 472.952 531.206C475.97 530.86 479.011 531.632 481.5 533.374V533.374Z" fill="#BF9477"></path> <path d="M384.963 781.419C410.633 787.54 433.447 802.236 449.636 823.077C457.558 833.64 463.358 845.638 466.715 858.408C469.99 871.169 471.356 884.345 470.767 897.506C470.091 923.436 469.469 949.383 468.35 975.313L466.572 1014.18C465.808 1027.14 465.115 1040.09 464.102 1053.03L465.702 975.224C466.217 949.294 466.91 923.365 467.283 897.435C467.524 891.017 467.382 884.59 466.857 878.188C466.287 871.814 465.206 865.497 463.622 859.296C460.408 846.89 454.931 835.183 447.467 824.765C439.907 814.354 430.563 805.365 419.867 798.214C409.179 790.831 397.402 785.164 384.963 781.419V781.419Z" fill="#15223D"></path> <path d="M439.541 811.756C439.541 811.756 607.878 829.261 609.246 849.682C610.615 870.102 579.816 899.195 579.816 899.195L470.677 893.863C470.677 893.863 474.178 843.941 439.541 811.756Z" fill="#1A2A49"></path> <path d="M317.091 881.85C317.091 881.85 350.147 886.435 352.422 891.891C354.697 897.347 369.003 1101.6 380.448 1117.4C391.894 1133.2 377.623 1138.73 380.448 1153.71C383.274 1168.69 403.748 1213.98 403.748 1213.98L379.24 1210.42C379.24 1210.42 359.904 1157.9 361.468 1150.37C363.032 1142.83 366.799 1133.13 368.879 1125.99C370.958 1118.84 348.938 1050.35 343.713 1016.94C342.22 1007.34 339.11 995.218 338.275 980.236C336.267 944.514 338.168 903.443 338.168 903.443L317.055 898.929L317.091 881.85Z" fill="#1A2A49"></path> <path d="M579.815 899.195C581.184 895.747 582.712 892.441 584.24 889.171L588.843 879.379C590.336 876.126 591.811 872.874 593.055 869.551C593.679 867.9 594.207 866.215 594.637 864.504C595.111 862.768 595.291 860.966 595.17 859.172C596.017 860.888 596.432 862.786 596.379 864.699C596.357 866.589 596.137 868.471 595.721 870.315C594.895 873.958 593.667 877.499 592.06 880.872C590.528 884.218 588.746 887.444 586.729 890.522C584.71 893.629 582.394 896.534 579.815 899.195Z" fill="#15223D"></path> <path d="M615.361 899.195C608.589 899.906 602.049 900.261 595.616 901.274C592.423 901.748 589.265 902.431 586.161 903.318C583.011 904.27 579.978 905.57 577.115 907.192C579.207 904.4 581.97 902.181 585.148 900.741C588.295 899.266 591.643 898.266 595.083 897.773C598.475 897.258 601.914 897.115 605.337 897.346C608.745 897.516 612.116 898.138 615.361 899.195V899.195Z" fill="#15223D"></path> <path d="M625.436 860.736C621.758 864.948 617.901 868.929 613.973 872.821C610.046 876.713 606.011 880.535 601.995 884.32C597.978 888.105 593.855 891.802 589.732 895.463L583.547 900.972C582.534 901.897 581.468 902.75 580.508 903.78L578.998 905.202L577.612 906.766L578.589 904.882L579.762 903.105C580.526 901.914 581.433 900.866 582.286 899.746C584.063 897.578 585.84 895.463 587.777 893.437C591.545 889.332 595.526 885.475 599.578 881.672C603.63 877.869 607.806 874.314 612.107 870.76C616.408 867.205 620.798 863.846 625.436 860.736Z" fill="#15223D"></path> <path d="M463.231 1124.9C455.642 1120.39 449.461 1113.86 445.38 1106.03C441.299 1098.21 439.48 1089.4 440.127 1080.6C440.439 1076.27 441.032 1071.96 441.904 1067.71C442.828 1063.48 443.806 1059.3 444.996 1055.27L448.551 1042.97C449.798 1038.92 450.643 1034.75 451.074 1030.53C451.365 1034.83 451.084 1039.15 450.239 1043.38C449.493 1047.61 448.622 1051.8 447.733 1055.96C445.775 1064.15 444.42 1072.46 443.681 1080.84C443.388 1084.95 443.597 1089.07 444.303 1093.12C445.136 1097.17 446.43 1101.12 448.16 1104.87C451.762 1112.51 456.891 1119.32 463.231 1124.9V1124.9Z" fill="#15223D"></path> <path d="M368.914 1126C376.036 1122.68 383.48 1120.09 391.129 1118.27C398.858 1116.18 406.899 1115.49 414.872 1116.23C416.941 1116.5 418.97 1117.02 420.915 1117.77C421.913 1118.16 422.882 1118.63 423.812 1119.16C424.647 1119.69 425.5 1120.19 426.318 1120.74C429.623 1122.95 432.822 1125.22 435.879 1127.69C438.936 1130.16 441.921 1132.68 444.872 1135.24C446.347 1136.52 447.804 1137.8 449.297 1139.03C450.043 1139.65 450.808 1140.26 451.607 1140.81C452.336 1141.44 453.243 1141.82 454.202 1141.91C453.204 1142.01 452.201 1141.78 451.341 1141.27C450.434 1140.84 449.563 1140.34 448.728 1139.85C446.951 1138.82 445.44 1137.71 443.805 1136.61L434.226 1129.93C431.027 1127.74 427.828 1125.56 424.523 1123.6L422.052 1122.13C421.294 1121.68 420.497 1121.31 419.671 1121.01C417.951 1120.37 416.161 1119.95 414.339 1119.75C410.596 1119.27 406.812 1119.2 403.054 1119.53C399.233 1119.78 395.43 1120.35 391.626 1120.97C384.055 1122.29 376.484 1124.05 368.914 1126Z" fill="#15223D"></path> <path d="M375.098 1191.26C377.942 1185.83 381.317 1180.7 385.174 1175.94C388.99 1171.06 393.402 1166.67 398.308 1162.88C400.863 1160.96 403.667 1159.39 406.643 1158.22C408.2 1157.67 409.817 1157.31 411.459 1157.14C412.899 1156.94 414.356 1156.82 415.778 1156.52C418.625 1156 421.353 1154.96 423.829 1153.46C426.37 1151.92 428.37 1149.63 429.551 1146.9C428.993 1150.03 427.335 1152.85 424.877 1154.86C422.407 1156.89 419.537 1158.38 416.453 1159.22C414.932 1159.66 413.382 1160 411.815 1160.23C410.448 1160.45 409.111 1160.83 407.834 1161.37C405.187 1162.5 402.697 1163.97 400.423 1165.74C395.7 1169.36 391.295 1173.38 387.254 1177.75C383.113 1182.13 379.114 1186.66 375.098 1191.26Z" fill="#15223D"></path> <path d="M552.251 1147.2C553.633 1146.4 555.141 1145.83 556.712 1145.53C558.258 1145.14 559.822 1144.88 561.386 1144.61C564.532 1144.11 567.677 1143.76 570.823 1143.49C573.969 1143.22 577.168 1143.12 580.278 1142.92C583.335 1142.79 586.381 1142.45 589.395 1141.93C595.423 1140.97 601.246 1139 606.616 1136.1C609.314 1134.61 611.888 1132.91 614.311 1131.01C616.782 1129.13 619.074 1126.98 621.527 1124.95C619.682 1127.55 617.656 1130 615.467 1132.31C613.229 1134.63 610.744 1136.7 608.056 1138.48C605.344 1140.27 602.441 1141.76 599.401 1142.9C597.878 1143.48 596.323 1143.98 594.744 1144.38C593.183 1144.82 591.599 1145.17 589.999 1145.43C586.814 1145.94 583.594 1146.22 580.367 1146.26H570.948C567.82 1146.26 564.674 1146.26 561.546 1146.26C559.982 1146.26 558.418 1146.26 556.854 1146.44C556.072 1146.44 555.29 1146.53 554.526 1146.64C553.743 1146.71 552.975 1146.9 552.251 1147.2Z" fill="#15223D"></path> <path d="M534.941 1183.55C542.05 1181.98 549.064 1180.28 555.983 1178.45C562.903 1176.62 569.719 1174.42 576.403 1171.85C583.039 1169.27 589.413 1166.06 595.437 1162.26C598.458 1160.38 601.344 1158.3 604.074 1156.02C605.443 1154.86 606.74 1153.64 608.02 1152.36C608.659 1151.74 609.299 1151.08 609.992 1150.46C610.656 1149.8 611.485 1149.34 612.392 1149.12C611.571 1149.52 610.876 1150.14 610.383 1150.9C609.815 1151.59 609.299 1152.34 608.766 1153.09C607.657 1154.56 606.47 1155.98 605.212 1157.33C602.688 1160.03 599.908 1162.47 596.912 1164.62C593.944 1166.78 590.852 1168.76 587.653 1170.56C584.404 1172.31 581.057 1173.87 577.629 1175.23C570.791 1177.85 563.731 1179.85 556.534 1181.2C549.418 1182.61 542.193 1183.39 534.941 1183.55V1183.55Z" fill="#15223D"></path> <path d="M645.502 1153.57C644.063 1146.46 643.067 1139.12 642.232 1131.85C641.397 1124.58 640.828 1117.29 640.455 1110.01C640.082 1102.72 639.815 1095.38 639.904 1088.06C639.919 1080.73 640.352 1073.41 641.201 1066.13C641.77 1073.45 642.232 1080.72 642.676 1087.99L644.009 1109.8C644.365 1117.08 644.791 1124.35 645.058 1131.64C645.324 1138.92 645.52 1146.23 645.502 1153.57Z" fill="#15223D"></path> <path d="M671.04 763.896C676.238 768.166 681.071 772.862 685.489 777.935C687.72 780.459 689.809 783.105 691.744 785.862C692.708 787.256 693.592 788.704 694.392 790.198C694.795 790.951 695.134 791.735 695.405 792.544C695.724 793.334 695.921 794.166 695.992 795.015C695.742 794.22 695.402 793.457 694.979 792.74C694.596 792.004 694.15 791.302 693.646 790.643C693.184 789.967 692.686 789.292 692.171 788.652C691.655 788.012 691.176 787.319 690.625 786.697C688.545 784.12 686.342 781.597 684.156 779.091L677.544 771.573C675.341 769.061 673.172 766.502 671.04 763.896Z" fill="#C69F95"></path> <path d="M644.88 786.217C644.88 786.217 638.287 781.881 639.033 787.995C639.779 794.108 652.504 812.218 656.592 815.541C659.327 817.676 662.387 819.356 665.656 820.518C664.669 818.883 663.474 817.384 662.101 816.057C659.043 813.147 656.357 809.87 654.104 806.3C652.238 802.977 645.307 789.008 644.88 786.217Z" fill="#C69F95"></path> <path d="M660.75 772.781C665.188 776.072 669.31 779.767 673.066 783.818C676.88 787.851 680.319 792.223 683.339 796.88C686.364 801.555 688.755 806.611 690.447 811.915C691.27 814.579 691.865 817.308 692.225 820.073C692.518 822.826 692.518 825.602 692.225 828.355C692.148 822.889 691.126 817.477 689.203 812.36C687.267 807.269 684.788 802.401 681.81 797.84C678.848 793.255 675.582 788.873 672.036 784.724C670.258 782.645 668.481 780.601 666.544 778.628C664.607 776.656 662.741 774.683 660.75 772.781Z" fill="#C69F95"></path> <path d="M181.596 769.689C181.596 769.689 211.524 778.238 218.331 782.13C225.137 786.022 262.761 824.961 262.761 824.961C262.761 824.961 259.367 833.118 249.254 826.276C239.142 819.434 216.127 791.069 216.127 791.069C216.127 791.069 197.022 785.222 193.023 782.628C189.024 780.033 182.538 776.336 181.631 770.098" fill="#C69F95"></path> <path d="M269.888 749.909C271.665 755.65 273.3 761.425 274.882 767.219C276.464 773.013 277.939 778.842 279.414 784.654C280.889 790.465 282.258 796.33 283.537 802.195L285.457 810.992C286.043 813.942 286.683 816.875 287.234 819.878C286.327 817.017 285.457 814.12 284.657 811.241L282.24 802.55C280.64 796.774 279.183 790.945 277.726 785.116C276.268 779.286 274.882 773.457 273.603 767.592C272.323 761.728 270.972 755.738 269.888 749.909Z" fill="#C69F95"></path> <path d="M252.364 764.838C254.817 769.796 257.074 774.844 259.313 779.891C261.552 784.938 263.685 790.039 265.8 795.139C267.915 800.24 269.976 805.358 271.914 810.53L274.846 818.296C275.752 820.891 276.73 823.486 277.601 826.116C276.357 823.646 275.219 821.122 274.046 818.616L270.652 811.063C268.412 806.016 266.28 800.915 264.165 795.815C262.05 790.714 260.006 785.578 258.051 780.406C256.096 775.235 254.141 770.081 252.364 764.838Z" fill="#C69F95"></path> <path d="M478.408 730.218C478.408 730.218 596.237 751.136 609.78 772.675C609.78 772.675 586.818 760.359 578.572 758.795C570.325 757.231 546.369 755.703 536.772 754.672C527.175 753.641 490.777 749.447 485.464 747.386C480.15 745.324 473.272 744.098 475.831 737.149L478.408 730.218Z" fill="#C69F95"></path> <path d="M501.174 590.439C501.174 590.439 442.064 754.227 476.933 772.675C511.802 791.122 508.105 692.54 508.105 692.54" stroke="#E4E5EA" stroke-width="2" stroke-linecap="round" stroke-linejoin="round"></path> <path opacity="0.57" d="M403.748 1213.97C403.748 1213.97 434.796 1287.02 441.78 1286.38C441.78 1286.38 417.592 1285.45 404.903 1275.16C392.214 1264.87 380.449 1209.71 380.449 1209.71L403.748 1213.97Z" fill="#494B59"></path> <path opacity="0.52" d="M568.708 1206.1C568.708 1206.1 595.757 1274.35 629.133 1284.74C629.133 1284.74 571.978 1276.59 560.692 1273.81C545.195 1270.01 523.371 1263.74 525.45 1252.49C527.956 1239.02 536.273 1200.18 536.273 1200.18L568.708 1206.1Z" fill="#494B59"></path> <path d="M274.224 389.651L309.769 476.858L254.817 416.575L240.777 375.877L248.846 371.647C248.846 371.647 270.794 387.696 274.224 389.651Z" fill="#BC9991"></path> <path d="M248.898 371.647C248.898 371.647 273.228 399.71 282.665 402.731C292.102 405.752 332.054 410.391 340.264 409.04C348.475 407.689 248.898 371.647 248.898 371.647Z" fill="#E5BFB3"></path> <path d="M359.53 371.363L354.892 372.233C353.386 372.505 351.897 372.861 350.431 373.3C348.994 373.713 347.601 374.267 346.272 374.953C344.958 375.712 343.76 376.657 342.718 377.761C343.253 376.183 344.25 374.802 345.579 373.797C346.908 372.804 348.408 372.063 350.004 371.611C351.563 371.146 353.177 370.889 354.803 370.847C356.395 370.785 357.988 370.959 359.53 371.363V371.363Z" fill="#B77E72"></path> <path d="M224.924 219.411C230.754 218.452 236.583 217.457 242.394 216.301C248.206 215.146 253.982 213.991 259.722 212.605C265.463 211.219 271.167 209.743 276.748 207.895C279.556 206.989 282.239 205.905 285.083 204.892C287.917 203.89 290.822 203.1 293.774 202.528C296.75 202.028 299.766 201.802 302.784 201.853C305.78 201.954 308.758 202.365 311.67 203.079C317.478 204.652 322.948 207.278 327.807 210.828C332.712 214.098 337.742 217.208 342.789 220.3L357.895 229.613C347.463 224.014 337.12 218.256 327.061 211.965C322.262 208.632 316.923 206.155 311.279 204.643C308.457 203.984 305.575 203.614 302.677 203.541C299.776 203.523 296.878 203.773 294.022 204.287C291.15 204.796 288.322 205.527 285.563 206.473C282.826 207.398 280.018 208.517 277.174 209.388C271.516 211.19 265.768 212.696 259.953 213.902C248.384 216.364 236.691 218.203 224.924 219.411V219.411Z" fill="#84675D"></path> <path d="M228.603 224.565C238.093 223.712 247.583 223.001 257.038 222.255C266.493 221.508 276.019 220.851 285.473 219.909C290.183 219.482 294.946 219.074 299.584 218.327C304.364 217.421 309.271 217.421 314.051 218.327C318.778 219.37 323.265 221.299 327.273 224.014C331.2 226.742 334.843 229.856 338.15 233.309C334.628 230.127 330.834 227.261 326.811 224.743C322.826 222.247 318.407 220.523 313.784 219.66C309.171 218.913 304.464 218.967 299.869 219.82C295.124 220.637 290.378 221.1 285.651 221.597C276.143 222.379 266.653 223.072 257.216 223.534C247.779 223.996 238.146 224.441 228.603 224.565Z" fill="#84675D"></path> <path d="M226.008 229.648C231.233 231.141 236.281 232.99 241.346 234.714C243.869 235.602 246.411 236.491 248.952 237.219C250.232 237.61 251.511 237.966 252.809 238.25C254.092 238.611 255.438 238.69 256.754 238.481C255.482 239.042 254.084 239.256 252.702 239.103C251.334 239.024 249.974 238.846 248.632 238.57C245.969 238.015 243.344 237.285 240.777 236.384C235.64 234.64 230.693 232.384 226.008 229.648V229.648Z" fill="#84675D"></path> <path d="M221.885 228.403C221.259 235.827 219.962 243.18 218.01 250.37C216.093 257.612 213.425 264.635 210.048 271.323C206.673 278.085 201.942 284.08 196.151 288.935C193.21 291.311 189.878 293.157 186.305 294.391C182.739 295.553 178.998 296.083 175.25 295.955C182.654 295.568 189.713 292.708 195.297 287.833C198.057 285.438 200.548 282.751 202.726 279.818C204.882 276.848 206.807 273.717 208.484 270.452C211.865 263.897 214.614 257.036 216.695 249.961C217.797 246.406 218.757 242.852 219.61 239.298C220.463 235.743 221.227 232.064 221.885 228.403Z" fill="#84675D"></path> <path d="M226.008 238.818C227.48 247.519 228.182 256.333 228.105 265.157C228.084 274.01 227.143 282.836 225.297 291.495C223.474 300.227 219.934 308.509 214.882 315.861C212.293 319.499 209.122 322.687 205.499 325.298C201.85 327.814 197.808 329.706 193.538 330.896C201.804 327.932 208.895 322.386 213.763 315.079C216.193 311.479 218.22 307.623 219.805 303.58C221.37 299.533 222.629 295.375 223.573 291.139C225.454 282.599 226.514 273.899 226.736 265.157C226.914 260.785 226.914 256.395 226.736 252.005C226.559 247.616 226.417 243.208 226.008 238.818Z" fill="#84675D"></path> </g> <defs> <clipPath id="clip0_63_1971"> <rect width="970" height="1308.17" fill="white"></rect> </clipPath> </defs> </svg> 