<?xml version="1.0" encoding="UTF-8"?> <svg xmlns="http://www.w3.org/2000/svg" width="288" height="906" viewBox="0 0 288 906" fill="none"> <path d="M177.67 655.1C177.67 655.1 201.83 687.61 170.99 749.92C170.99 749.92 131.42 877.75 120.23 875.22C109.04 872.69 103.77 868.85 106.1 858C108.43 847.15 109.9 767.83 146.49 742.9C146.49 742.87 130.15 663.13 177.67 655.1Z" fill="#E5AD9C"></path> <path d="M104.07 433.3C104.07 433.3 142.74 480.48 129.37 615.24C129.37 615.24 128.83 878.05 115.26 879.72C101.69 881.39 94.4 877.21 93.26 855.45C92.12 833.69 66.31 683.91 99.15 616.07C99.16 616.07 53 475.67 104.07 433.3Z" fill="#EDCBB9"></path> <path d="M38.9399 158C38.9399 158 33.1299 177.36 50.9399 176C50.9399 176 40.56 212.22 77.28 199.5C77.24 199.51 83.5599 156.64 38.9399 158Z" fill="#A07537"></path> <path d="M66.3902 174.93C66.3902 174.93 58.7501 185.82 66.8801 202.03C66.8801 202.03 75.9401 200.89 76.9401 198.88C77.9401 196.87 76.3502 172.23 66.3902 174.93Z" fill="#8C632D"></path> <path d="M69.08 172.73C68.45 175.3 67.85 177.73 67.37 180.23C66.8669 182.648 66.5328 185.097 66.37 187.56C66.2324 189.978 66.397 192.404 66.86 194.78C67.3916 197.228 68.2741 199.586 69.48 201.78C67.2671 200.191 65.5701 197.986 64.6 195.44C63.6255 192.874 63.2096 190.13 63.38 187.39C63.5423 184.706 64.1156 182.061 65.08 179.55C66.021 177.069 67.3733 174.763 69.08 172.73V172.73Z" fill="#D8A377"></path> <path d="M131.35 152.05C131.35 152.05 144.67 204.51 104.87 188.76C104.87 188.76 86.8601 151.21 131.35 152.05Z" fill="#BC8F48"></path> <path d="M114.32 168.49C114.32 168.49 125.64 182 118 191.71C118 191.71 113.24 192.31 105.23 188.89C97.2202 185.47 110.79 167 114.32 168.49Z" fill="#AA7F3F"></path> <path d="M118.77 164.31C119.917 166.284 120.92 168.34 121.77 170.46C122.66 172.56 123.4 174.71 124.08 176.89C124.75 179.076 125.275 181.304 125.65 183.56C125.841 184.697 125.958 185.847 126 187C126.01 187.588 125.98 188.176 125.91 188.76C125.86 189.348 125.671 189.917 125.36 190.42C125.47 189.872 125.47 189.307 125.36 188.76C125.284 188.207 125.174 187.659 125.03 187.12C124.78 186.04 124.46 184.97 124.15 183.89L122.15 177.45C121.52 175.29 120.86 173.14 120.28 170.95C119.7 168.76 119.17 166.58 118.77 164.31Z" fill="#D8A377"></path> <path d="M109 208.47C109 208.47 97.4202 229.38 76.8602 214.37C76.6002 214.19 76.3302 213.99 76.0602 213.78C76.0602 213.78 75.0602 196.56 72.3602 182.93C71.6244 178.697 70.3822 174.567 68.6602 170.63L105.24 167.29C105.24 167.29 104.8 175.93 105.04 185.38C105.32 195 106.25 205.44 109 208.47Z" fill="#E8C0AF"></path> <path opacity="0.53" d="M105.08 185.38C105.08 185.38 91.4799 204.7 78.2799 199.38V215L76.8999 214.37C76.6399 214.19 76.3699 213.99 76.0999 213.78C76.0999 213.78 75.0999 196.56 72.3999 182.93L105.08 185.38Z" fill="#BF9A8E"></path> <path d="M114.65 165.13C115.851 167.111 116.856 169.204 117.65 171.38C118.432 173.527 119.077 175.721 119.58 177.95C120.1 180.195 120.435 182.48 120.58 184.78C120.641 185.95 120.618 187.123 120.51 188.29C120.448 188.884 120.341 189.472 120.19 190.05C120.06 190.646 119.781 191.2 119.38 191.66C119.48 191.108 119.48 190.542 119.38 189.99C119.29 189.45 119.2 188.91 119.06 188.36C118.83 187.28 118.53 186.2 118.27 185.12C117.72 182.96 117.18 180.8 116.69 178.61C116.2 176.42 115.77 174.21 115.41 171.98C115.003 169.716 114.749 167.428 114.65 165.13Z" fill="#D8A377"></path> <path d="M120.81 152.76C120.81 153.18 120.74 153.6 120.74 154.02C120.609 158.078 119.497 162.045 117.5 165.58C116.63 167.06 117.08 166.76 116.31 168.4C111.31 178.94 102.71 195.72 83.9398 189.04C55.9398 179.09 49.9398 150.45 48.0898 143.13C46.2398 135.81 36.1898 96.7799 74.3098 86.4399C111.11 76.4399 122.31 108.32 120.31 131.38C120.179 132.919 120.25 134.469 120.52 135.99C121.346 141.543 121.443 147.181 120.81 152.76V152.76Z" fill="#EDCBB9"></path> <path d="M44.2398 173.89C66.1498 180.98 52.0198 160.24 51.3098 153.1C50.5998 145.96 55.4098 137.52 54.6798 114.1C54.2898 102 57.3598 95.9996 60.0998 92.9996C60.4841 92.5883 60.9545 92.267 61.4774 92.0587C62.0003 91.8504 62.5628 91.7602 63.1246 91.7946C63.6865 91.829 64.2337 91.9871 64.7273 92.2577C65.2209 92.5282 65.6486 92.9045 65.9798 93.3596C69.0498 97.4796 75.9298 103.99 87.5598 101.12C96.1098 99.0196 103.29 99.3396 108.47 100.78C109.09 100.95 109.67 101.14 110.23 101.34C114.06 102.73 116.52 104.76 117.23 106.74C119.02 111.44 116.58 119.22 117.62 127.84C118.66 136.46 121.62 135.42 121.13 144.65C120.913 148.231 120.213 151.766 119.05 155.16C117.85 159.01 116.62 162.31 116.83 165.67C117.25 172.13 146.43 151.59 138.52 126.67C130.61 101.75 125 104.65 125 104.65C125 104.65 117.25 67.4496 84.4398 67.1096C51.6298 66.7696 34.2798 87.3096 31.7898 99.3196C29.2998 111.33 32.8798 125.32 29.8798 128.95C26.8798 132.58 9.86982 162.76 44.2398 173.89Z" fill="#E5BD89"></path> <path d="M60.5098 92.4497C60.5098 92.4497 63.1898 84.6497 68.1298 90.7297C73.0698 96.8097 72.4097 99.7997 75.4197 100.73C72.7584 99.8922 70.3372 98.4278 68.3597 96.4597C65.7197 93.4497 61.2298 91.8697 60.5098 92.4497Z" fill="#DBA25E"></path> <path d="M55.74 103.09C55.74 103.09 51.84 90.0902 59.74 91.8802C60.1824 92.0905 60.6494 92.245 61.13 92.3402C61.76 92.4302 58.41 92.5802 55.74 103.09Z" fill="#C6965C"></path> <path d="M117.27 106.77C119.06 111.47 116.62 119.25 117.66 127.87C118.7 136.49 121.66 135.45 121.17 144.68C120.953 148.261 120.253 151.796 119.09 155.19C120.53 153.11 123.23 148.76 124.04 144.42C125.16 138.42 121.75 133.36 120.04 127.49C118.33 121.62 125.04 120.49 120.81 107.83C116.65 95.3695 108.73 100.63 108.45 100.83C109.07 101 109.65 101.19 110.21 101.39C114.06 102.76 116.52 104.79 117.27 106.77Z" fill="#D8A766"></path> <path d="M40 123.6C37.0605 127.917 34.5327 132.5 32.4501 137.29C31.4593 139.636 30.6795 142.065 30.12 144.55C29.5529 146.966 29.364 149.455 29.56 151.93C29.7333 154.354 30.4147 156.715 31.56 158.86C32.7733 161.014 34.3498 162.942 36.22 164.56C40.2426 167.838 44.7496 170.473 49.5801 172.37C44.2381 171.548 39.1607 169.493 34.75 166.37C32.4775 164.72 30.554 162.636 29.0901 160.24C27.6739 157.764 26.8108 155.011 26.56 152.17C26.3736 149.382 26.6404 146.582 27.35 143.88C28.0642 141.246 29.0704 138.7 30.35 136.29C32.8249 131.544 36.088 127.253 40 123.6Z" fill="#F4D7B8"></path> <path d="M57.46 89.0498C55.791 89.4513 54.2819 90.3469 53.13 91.6198C52.0036 92.8572 51.1455 94.3145 50.61 95.8998C49.5482 99.0975 49.0904 102.465 49.26 105.83C49.37 112.63 51.05 119.32 52.08 126.32C52.51 129.82 52.88 133.51 51.94 137.25C51.4376 139.143 50.5108 140.898 49.23 142.38C47.9569 143.807 46.396 144.949 44.65 145.73L43.37 146.27C42.95 146.44 42.53 146.57 42.1 146.72C41.2632 147.034 40.4084 147.298 39.54 147.51C38.6763 147.755 37.7978 147.946 36.91 148.08C36.0213 148.243 35.1226 148.347 34.22 148.39C32.3975 148.491 30.5735 148.219 28.86 147.59C28.0064 147.285 27.224 146.81 26.5603 146.192C25.8966 145.575 25.3657 144.829 25 144C25.9683 145.414 27.4434 146.403 29.12 146.76C30.7632 147.123 32.4613 147.164 34.12 146.88C34.9506 146.761 35.7725 146.588 36.58 146.36C37.3985 146.153 38.2033 145.896 38.99 145.59C39.79 145.33 40.57 144.99 41.35 144.66C41.74 144.49 42.15 144.34 42.52 144.16L43.61 143.6C45.0081 142.844 46.2474 141.825 47.26 140.6C48.2301 139.396 48.9139 137.987 49.26 136.48C49.8177 133.224 49.7906 129.896 49.18 126.65C48.74 123.26 48.07 119.83 47.6 116.34C47.0739 112.826 46.8731 109.271 47 105.72C47.0476 102.099 47.8443 98.5275 49.34 95.2298C50.1183 93.5788 51.2399 92.1128 52.63 90.9298C53.9988 89.8049 55.6909 89.1462 57.46 89.0498V89.0498Z" fill="#F4D7B8"></path> <path d="M53.7599 86.4103C51.8892 86.9822 50.0802 87.7393 48.3599 88.6703C46.6908 89.5367 45.1524 90.6342 43.7899 91.9303C43.1384 92.5608 42.524 93.2286 41.9499 93.9303L41.1999 95.0503L40.8299 95.6203L40.5499 96.2303C40.3599 96.6403 40.1599 97.0303 39.9599 97.4303L39.5299 98.7103C39.2478 99.5696 39.0469 100.453 38.9299 101.35L38.7999 102.02V102.71L38.7198 104.08L38.6699 104.77V105.52V107.02C38.5799 109.02 38.4799 111.02 38.1999 113.02C37.9485 115.022 37.5405 117.002 36.9799 118.94C36.6915 119.913 36.3305 120.862 35.8999 121.78C35.5037 122.721 34.9064 123.564 34.1499 124.25C34.6349 123.4 34.973 122.473 35.1499 121.51C35.3402 120.562 35.4804 119.604 35.5699 118.64C35.7799 116.72 35.8399 114.78 35.8999 112.85C35.9599 110.92 35.8999 108.97 35.8999 107.02V105.56C35.8999 105.09 35.8999 104.56 35.8999 104.05L35.9698 102.48V101.69L36.1099 100.9C36.2705 99.8478 36.5317 98.813 36.8899 97.8103L37.4399 96.3003C37.6899 95.8203 37.9399 95.3003 38.2099 94.8803L38.6099 94.1803L39.0899 93.5403L40.0899 92.2703C40.8083 91.4882 41.5984 90.775 42.4499 90.1403C43.2841 89.5093 44.1707 88.9507 45.0999 88.4703C46.0269 88.0245 46.9823 87.6403 47.9599 87.3203C49.8322 86.7092 51.7904 86.402 53.7599 86.4103V86.4103Z" fill="#F4D7B8"></path> <path d="M58.5098 86.0002C60.7851 82.8681 63.5466 80.1201 66.6898 77.8602C69.8873 75.4926 73.5915 73.9007 77.5098 73.2102C79.5226 72.8752 81.577 72.8752 83.5898 73.2102C85.5927 73.5489 87.5361 74.1754 89.3597 75.0702C92.915 76.7004 96.2957 78.6873 99.4498 81.0002C102.501 83.3666 105.416 85.904 108.18 88.6002C109.492 89.8882 110.903 91.0717 112.4 92.1402C112.759 92.399 113.133 92.6361 113.52 92.8502L114.1 93.1902L114.69 93.4602L115.98 94.0802C116.458 94.2849 116.916 94.5326 117.35 94.8202C120.755 97.0653 123.27 100.429 124.46 104.33C125.702 108.026 126.068 111.959 125.53 115.82C125.457 112.044 124.628 108.32 123.09 104.87C121.727 101.517 119.299 98.7063 116.18 96.8702C115.807 96.6528 115.415 96.4687 115.01 96.3202L113.68 95.7902L112.96 95.4902L112.28 95.1302C111.824 94.9011 111.383 94.644 110.96 94.3602C109.305 93.2737 107.737 92.06 106.27 90.7302C103.529 88.1449 100.655 85.7049 97.6597 83.4202C94.6832 81.1866 91.4946 79.2506 88.1398 77.6402C84.9892 75.908 81.3873 75.1723 77.8098 75.5302C74.1516 75.9779 70.6304 77.1982 67.4797 79.1102C64.2095 81.017 61.1953 83.3322 58.5098 86.0002V86.0002Z" fill="#F4D7B8"></path> <path d="M126.11 108.88C131.295 114.411 134.801 121.302 136.22 128.75C136.672 131.27 136.86 133.831 136.78 136.39C136.645 138.952 136.225 141.491 135.53 143.96C134.803 146.401 133.797 148.75 132.53 150.96C129.998 155.299 126.593 159.065 122.53 162.02C125.671 158.322 128.338 154.248 130.47 149.89C133.466 143.43 134.509 136.235 133.47 129.19C133.142 126.821 132.634 124.481 131.95 122.19C130.513 117.547 128.554 113.082 126.11 108.88V108.88Z" fill="#F4E3D3"></path> <path d="M62.3601 173.13C61.7301 175.69 61.1201 178.13 60.6401 180.62C60.1375 183.04 59.8034 185.493 59.6401 187.96C59.4938 190.374 59.655 192.797 60.1201 195.17C60.6549 197.618 61.5407 199.975 62.7501 202.17C60.5413 200.576 58.8454 198.373 57.8701 195.83C56.8877 193.266 56.4682 190.52 56.6401 187.78C56.801 185.094 57.3778 182.449 58.3501 179.94C59.2872 177.457 60.6436 175.154 62.3601 173.13V173.13Z" fill="#D8A377"></path> <path d="M114.68 124.71C114.68 124.71 114.89 124.9 112.94 124.8C109.02 124.59 107.39 122.31 103.55 123.8C99.7097 125.29 97.5497 127.57 96.9097 126.45C96.2697 125.33 98.3897 120.66 102.91 120.4C107.43 120.14 114.15 121.32 114.68 124.71Z" fill="#BC8F48"></path> <path d="M63.3201 132.1C63.3201 132.1 63.1501 132.34 65.2001 131.69C69.3201 130.4 71.4901 129.34 76.0501 129.75C80.6101 130.16 82.5101 130.12 82.8401 128.88C83.1701 127.64 80.6101 125.31 75.7301 126.3C70.8501 127.29 62.8501 128.69 63.3201 132.1Z" fill="#BC8F48"></path> <path opacity="0.51" d="M97.45 146C97.45 146 88.6199 154.75 94.2299 155.15C94.5799 155.15 94.57 155.08 94.57 155.08C94.57 155.08 100.71 155.01 101.22 150.6C101.22 150.63 98.32 145.56 97.45 146Z" fill="#ED9B64"></path> <path d="M93.3701 128C93.3701 128 101.43 149 101.25 150.9C101.07 152.8 98.9501 154.9 94.2501 155.16C94.2501 155.16 99.4201 153.46 98.6801 150.95C97.9401 148.44 93.3701 128 93.3701 128Z" fill="#ED9B64"></path> <path d="M98.7598 135.46C98.7598 135.46 105.22 126.27 111.67 132.32" stroke="#ED9B64" stroke-width="2" stroke-linecap="round" stroke-linejoin="round"></path> <path d="M65.5698 138.57C64.7998 139.87 76.0498 128.69 81.6998 136.57" stroke="#ED9B64" stroke-width="2" stroke-linecap="round" stroke-linejoin="round"></path> <path d="M107.265 140.295C108.772 140.157 109.831 138.271 109.632 136.082C109.432 133.893 108.049 132.23 106.542 132.367C105.035 132.505 103.975 134.391 104.174 136.58C104.374 138.769 105.758 140.432 107.265 140.295Z" fill="#263F8C"></path> <path opacity="0.76" d="M109.368 136.484C110.506 136.38 111.388 135.841 111.337 135.28C111.285 134.719 110.321 134.349 109.183 134.453C108.044 134.556 107.163 135.095 107.214 135.656C107.265 136.217 108.229 136.588 109.368 136.484Z" fill="white"></path> <path d="M76.4144 143.951C77.927 143.813 78.9909 141.923 78.7908 139.728C78.5907 137.533 77.2023 135.866 75.6898 136.004C74.1773 136.142 73.1134 138.033 73.3135 140.227C73.5136 142.422 74.9019 144.089 76.4144 143.951Z" fill="#263F8C"></path> <path opacity="0.76" d="M73.1698 139.479C74.3138 139.375 75.1996 138.836 75.1485 138.275C75.0973 137.714 74.1285 137.344 72.9845 137.448C71.8405 137.552 70.9546 138.092 71.0057 138.653C71.0569 139.214 72.0257 139.584 73.1698 139.479Z" fill="white"></path> <path d="M62.06 140C61.3244 140.154 60.5588 140.063 59.88 139.74C59.5443 139.587 59.2313 139.389 58.95 139.15C58.6484 138.906 58.4086 138.594 58.25 138.24C58.9416 138.34 59.6152 138.538 60.25 138.83C60.5611 138.968 60.8619 139.129 61.15 139.31C61.4812 139.501 61.7869 139.733 62.06 140V140Z" fill="#ED9B64"></path> <path d="M61.8198 141.67C61.6487 141.91 61.4313 142.113 61.1806 142.267C60.9299 142.422 60.6508 142.525 60.3597 142.57C60.0695 142.63 59.77 142.63 59.4797 142.57C59.1997 142.5 58.7997 142.33 58.7197 141.97C58.9815 141.954 59.2386 141.893 59.4797 141.79C59.7116 141.712 59.9489 141.652 60.1898 141.61C60.7295 141.493 61.2901 141.513 61.8198 141.67V141.67Z" fill="#ED9B64"></path> <path d="M61.7401 140.73C61.5823 140.93 61.382 141.092 61.1536 141.205C60.9253 141.317 60.6746 141.377 60.4201 141.38C60.1651 141.389 59.9118 141.337 59.6801 141.23C59.5427 141.182 59.4196 141.099 59.3218 140.991C59.2241 140.883 59.1548 140.752 59.1201 140.61C59.3497 140.575 59.5768 140.525 59.8001 140.46C59.9978 140.418 60.1984 140.392 60.4001 140.38C60.8707 140.37 61.3347 140.491 61.7401 140.73V140.73Z" fill="#ED9B64"></path> <path d="M114.24 136.89C114.515 136.57 114.827 136.285 115.17 136.04C115.491 135.805 115.825 135.588 116.17 135.39C116.863 134.976 117.61 134.659 118.39 134.45C118.227 134.85 117.978 135.208 117.66 135.5C117.357 135.791 117.021 136.046 116.66 136.26C115.929 136.693 115.09 136.911 114.24 136.89V136.89Z" fill="#EDAE83"></path> <path d="M114.86 138.48C115.453 138.208 116.098 138.068 116.75 138.07C117.046 138.055 117.343 138.055 117.64 138.07C117.949 138.111 118.261 138.111 118.57 138.07C118.503 138.249 118.395 138.409 118.254 138.538C118.114 138.667 117.944 138.76 117.76 138.81C117.439 138.927 117.101 138.991 116.76 139C116.086 139.045 115.417 138.862 114.86 138.48V138.48Z" fill="#EDAE83"></path> <path d="M114.77 137.56C115.212 137.229 115.732 137.019 116.28 136.95C116.526 136.925 116.774 136.925 117.02 136.95C117.28 136.95 117.5 136.95 117.84 136.95C117.796 137.106 117.72 137.25 117.617 137.374C117.513 137.498 117.385 137.599 117.24 137.67C116.99 137.816 116.716 137.915 116.43 137.96C115.846 138.049 115.25 137.906 114.77 137.56V137.56Z" fill="#EDAE83"></path> <path d="M74.5184 167.657C79.7399 163.702 80.9182 156.463 77.1502 151.488C73.3822 146.513 66.0948 145.686 60.8733 149.641C55.6518 153.596 54.4735 160.835 58.2415 165.81C62.0095 170.785 69.2969 171.612 74.5184 167.657Z" fill="#F2BEB1"></path> <path d="M117.987 157.081C119.207 151.757 116.756 146.653 112.514 145.682C108.272 144.71 103.844 148.238 102.625 153.563C101.406 158.887 103.856 163.991 108.098 164.962C112.34 165.934 116.768 162.405 117.987 157.081Z" fill="#F2BEB1"></path> <g opacity="0.3"> <path opacity="0.3" d="M245.592 383.719L236.902 389.858L244.992 401.309L253.682 395.17L245.592 383.719Z" fill="#B9BEC9"></path> <path opacity="0.3" d="M221.91 376.33C220.917 374.64 220.438 372.698 220.531 370.741C220.623 368.783 221.284 366.895 222.432 365.307C223.58 363.719 225.166 362.499 226.996 361.797C228.825 361.096 230.82 360.942 232.735 361.355C234.651 361.768 236.405 362.729 237.783 364.123C239.161 365.516 240.104 367.281 240.495 369.201C240.887 371.121 240.711 373.113 239.989 374.935C239.268 376.757 238.031 378.329 236.43 379.46C234.889 380.691 233.016 381.433 231.05 381.59L237.11 390.17C238.557 389.569 239.933 388.808 241.21 387.9C243.456 386.355 245.374 384.38 246.851 382.089C248.328 379.798 249.335 377.236 249.815 374.552C250.294 371.869 250.235 369.117 249.643 366.456C249.05 363.795 247.935 361.278 246.362 359.052C244.789 356.825 242.789 354.933 240.479 353.486C238.169 352.038 235.595 351.064 232.905 350.619C230.216 350.174 227.464 350.268 224.811 350.894C222.158 351.521 219.656 352.668 217.45 354.27C208.05 360.91 206.59 373.27 213.15 382.52L221.91 376.33Z" fill="#B9BEC9"></path> <path opacity="0.3" d="M257.154 398.597L247.623 405.331L253.508 413.662L263.04 406.928L257.154 398.597Z" fill="#B9BEC9"></path> </g> <g opacity="0.49"> <path opacity="0.49" d="M262.401 501.077L256.644 508.394L262.2 512.766L267.957 505.449L262.401 501.077Z" fill="#B9BEC9"></path> <path opacity="0.49" d="M268.18 488.91C269.068 487.956 270.215 487.28 271.48 486.967C272.746 486.653 274.075 486.715 275.306 487.145C276.537 487.575 277.616 488.355 278.411 489.388C279.206 490.421 279.683 491.663 279.783 492.963C279.884 494.263 279.603 495.564 278.976 496.707C278.349 497.85 277.403 498.786 276.253 499.4C275.102 500.014 273.798 500.279 272.5 500.164C271.201 500.048 269.964 499.557 268.94 498.75C267.867 498.008 267.038 496.964 266.56 495.75L262.25 501.23C262.903 502.04 263.648 502.772 264.47 503.41C265.881 504.521 267.497 505.342 269.226 505.828C270.954 506.314 272.761 506.454 274.544 506.242C276.327 506.029 278.051 505.467 279.617 504.589C281.182 503.71 282.56 502.531 283.67 501.12C284.78 499.709 285.602 498.093 286.088 496.365C286.573 494.636 286.714 492.829 286.501 491.046C286.289 489.263 285.727 487.54 284.848 485.974C283.97 484.408 282.791 483.031 281.38 481.92C275.38 477.19 267.26 478.59 262.59 484.53L268.18 488.91Z" fill="#B9BEC9"></path> <path opacity="0.49" d="M260.624 515.588L254.534 510.795L250.341 516.123L256.431 520.916L260.624 515.588Z" fill="#B9BEC9"></path> </g> <path opacity="0.3" d="M111.307 147.996C117.522 146.987 121.7 140.871 120.639 134.334C119.578 127.798 113.679 123.317 107.465 124.326C101.25 125.335 97.072 131.451 98.133 137.987C99.194 144.524 105.092 149.005 111.307 147.996Z" fill="#C9D5E2"></path> <path opacity="0.2" d="M67.4301 138.46L66.8301 141.52L72.9001 148.61L75.4501 148.11L67.4301 138.46Z" fill="white"></path> <path opacity="0.2" d="M67.6802 136.76L77.3102 148.52L78.7902 147.43L68.3302 135.62L67.6802 136.76Z" fill="white"></path> <path opacity="0.3" d="M80.3275 154.114C87.2933 152.988 92.0418 146.517 90.9337 139.661C89.8256 132.805 83.2805 128.159 76.3147 129.285C69.349 130.411 64.6004 136.881 65.7085 143.738C66.8167 150.594 73.3618 155.24 80.3275 154.114Z" fill="#C9D5E2"></path> <path d="M98.1298 138.1C98.1298 138.1 94.3498 134.1 89.5498 139.49" stroke="#5C7C99" stroke-width="2" stroke-linecap="round" stroke-linejoin="round"></path> <path d="M78.4594 153.705C85.4537 152.569 90.2091 146.014 89.0808 139.064C87.9526 132.113 81.3679 127.399 74.3737 128.534C67.3794 129.669 62.6241 136.224 63.7524 143.175C64.8806 150.126 71.4652 154.84 78.4594 153.705Z" stroke="#5C7C99" stroke-width="2" stroke-linecap="round" stroke-linejoin="round"></path> <path d="M121 134.72C122 141.14 118.64 147.34 112.17 148.39C110.626 148.678 109.041 148.653 107.507 148.319C105.973 147.985 104.522 147.347 103.237 146.444C101.953 145.541 100.863 144.39 100.03 143.059C99.197 141.728 98.6385 140.244 98.3872 138.695C98.1359 137.145 98.197 135.561 98.5667 134.035C98.9365 132.509 99.6075 131.072 100.54 129.81C101.473 128.547 102.649 127.483 103.999 126.682C105.348 125.88 106.845 125.356 108.4 125.14C114.26 124.19 118.82 127.53 120.58 132.97C120.766 133.542 120.906 134.127 121 134.72V134.72Z" stroke="#5C7C99" stroke-width="2" stroke-linecap="round" stroke-linejoin="round"></path> <path opacity="0.2" d="M103.96 134.88L103.39 137.78L109.13 144.49L111.55 144.02L103.96 134.88Z" fill="white"></path> <path opacity="0.2" d="M104.81 132.19L104.19 133.27L113.31 144.4" fill="white"></path> <path d="M90.87 164.7L84 167.21C84 167.21 86.07 170.61 88.44 170.95C90.81 171.29 98.16 169.89 100.26 167.59C99.1143 166.288 97.6306 165.329 95.9731 164.819C94.3157 164.309 92.5494 164.267 90.87 164.7V164.7Z" fill="white"></path> <path d="M84 167.21C84 167.21 90.89 160.12 94.51 161.96C96.883 163.306 98.8647 165.246 100.26 167.59C100.26 167.59 95.16 163.94 84 167.21Z" fill="#C4453F"></path> <path d="M84 167.21C84 167.21 87 173.81 92.21 173.53C93.9847 173.432 95.692 172.818 97.1222 171.762C98.5524 170.707 99.643 169.257 100.26 167.59C100.26 167.59 93.18 171 84 167.21Z" fill="#EF7362"></path> <path d="M84 167.21C84 167.21 87.41 167.44 89.6 166.04C90.6828 165.409 91.9206 165.094 93.1735 165.129C94.4264 165.164 95.6444 165.549 96.69 166.24C97.7289 167.018 98.9665 167.486 100.26 167.59L95.61 163.94L90 164L84 167.21Z" fill="#C4453F"></path> <path d="M84 167.21C84 167.21 86.68 166.63 87.83 167.38C89.0437 168.066 90.3507 168.571 91.71 168.88C92.9534 168.884 94.1957 168.81 95.43 168.66C96.24 168.47 96.3 167.92 97.55 167.66C98.4458 167.495 99.3642 167.495 100.26 167.66L98 169.41L88.78 170.13L85.85 168.65L84 167.21Z" fill="#EF7362"></path> <path d="M81.2598 165.76C83.1661 167.856 85.1965 169.836 87.3398 171.69C88.9598 172.8 86.9197 167.21 86.9197 167.21C86.9197 167.21 82.5798 166.49 81.2598 165.76Z" fill="#EF7362"></path> <path d="M81.2598 165.76C81.2598 165.76 85.2597 167.76 87.4297 167.21L89.5598 166.04L86.4598 164.96C86.4598 164.96 82.1898 166.19 81.2598 165.76Z" fill="#C4453F"></path> <path d="M88.34 163.56C88.34 163.56 85.0799 165.68 83.1699 165.72H86.53L88.34 163.56Z" fill="#C4453F"></path> <path d="M101.49 167C101.49 167 99.8 168.89 98.96 169.88L99.8199 167.53L101.49 167Z" fill="#EF7362"></path> <path d="M98.7598 165.54C99.552 166.127 100.411 166.617 101.32 167C101.9 167.06 100.89 167.67 100.22 167.59C99.5497 167.51 98.7598 165.54 98.7598 165.54Z" fill="#C4453F"></path> <path d="M62.82 143.05L51.75 146.62" stroke="#5C7C99" stroke-width="2" stroke-linecap="round" stroke-linejoin="round"></path> <path d="M153.76 304.09C151.16 335.47 140.23 383.09 137.42 388.72C134.01 395.53 98.3297 397.34 78.7897 394.61C59.2497 391.88 21.0498 252.38 27.1198 239.11C27.7598 237.7 29.3398 236.11 31.5598 234.5C43.9298 225.33 76.0997 213.79 76.0997 213.79C98.9997 227.36 109 208.47 109 208.47C109 208.47 111.65 209.15 115.51 210.19C124.64 212.61 140.51 216.98 143.98 218.84C145.24 219.51 146.43 223.15 147.52 228.49C147.52 228.62 147.57 228.75 147.6 228.88C148.01 230.88 148.4 233.11 148.78 235.5C151.37 251.96 153.28 276.14 154.09 286.94C154.407 292.657 154.296 298.389 153.76 304.09V304.09Z" fill="#304299"></path> <path d="M47.5499 380.63C45.0899 377.93 40.5499 364.85 35.7299 348.39C28.9899 325.19 21.81 295.28 19.51 278.21C17.33 262.07 20.3 250.66 23.39 243.67C25.59 238.67 29.18 235.14 33.28 233.77C34.2291 233.458 35.2132 233.263 36.21 233.19C63.16 231.31 67.4599 293.09 69.9799 312.72C72.7299 334.1 51.3299 384.78 47.5499 380.63Z" fill="#1F3877"></path> <path d="M144 218.84C144 218.84 154.87 223.44 157.77 228.7C160.67 233.96 145.77 233.7 145.77 233.7L144 218.84Z" fill="#304299"></path> <path d="M183.21 346C183.04 346.81 182.85 347.63 182.66 348.44C182.66 348.44 154.55 350.27 152.49 333.69C152.43 333.23 152.4 332.75 152.38 332.25C152.11 323.73 153.79 314.96 153.76 304.05C153.713 293.507 151.971 283.04 148.6 273.05V273.05C147.6 269.93 146.38 266.67 144.96 263.24C142.893 258.313 142.215 252.915 143 247.63C143.756 242.487 144.781 237.386 146.07 232.35C146.24 231.7 146.42 231.06 146.6 230.43C146.797 229.731 147.119 229.074 147.55 228.49C148.544 227.192 150.009 226.337 151.628 226.113C153.248 225.888 154.891 226.311 156.2 227.29C157.672 228.344 158.824 229.783 159.53 231.45C169.08 252.35 192.45 302.16 183.21 346Z" fill="#233C84"></path> <path d="M152.38 332.29C152.38 332.29 186 339 182.66 348.48C179.45 357.55 157.07 365.26 129.97 368.48C102.87 371.7 59.4302 360.87 59.4302 360.87L62.2702 344.17L152.38 332.29Z" fill="#233C84"></path> <path d="M49.6302 338.09C49.6302 338.09 37.3702 341.4 36.2302 345.87C35.0902 350.34 31.7402 357.32 32.1802 360.47C32.6202 363.62 32.9102 372.72 34.9502 373.06C36.9902 373.4 35.2902 362.51 35.6302 360.47C35.9702 358.43 39.5402 348.54 39.5402 348.54L47.0802 345.91L49.6302 338.09Z" fill="#C99589"></path> <path d="M51.9303 340.13C51.9303 340.13 39.6603 343.44 38.5203 347.91C37.3803 352.38 34.0303 359.36 34.5203 362.51C35.0103 365.66 35.2502 374.77 37.2902 375.11C39.3302 375.45 37.6302 364.55 37.9702 362.51C38.3102 360.47 41.8803 350.58 41.8803 350.58L49.4303 347.95L51.9303 340.13Z" fill="#CCAA9F"></path> <path d="M54.4798 342.17C54.4798 342.17 42.2098 345.48 41.0798 349.96C39.9498 354.44 36.5798 361.4 37.0198 364.55C37.4598 367.7 37.7498 376.81 39.7898 377.15C41.8298 377.49 41.7898 366.09 42.1398 364.04C42.4898 361.99 46.6098 355.58 46.6098 355.58L51.9298 349.99L54.4798 342.17Z" fill="#D6C6B9"></path> <path d="M274.78 741.78C274.42 746.07 273.45 749.22 271.78 750.95C270.629 752.151 269.389 753.264 268.07 754.28C262.29 758.7 258.19 757.86 254.14 755.17C248.27 751.29 242.5 743.56 231.9 742.44C224 741.61 218.47 748.73 212.21 756.51C211.08 757.9 209.93 759.32 208.74 760.72C200.91 769.91 191.27 778.18 174.74 773.47C173.42 773.1 172.05 772.64 170.64 772.09C145.47 762.33 136.1 778.36 117.64 780.94C110.32 781.94 101.57 780.86 89.8501 775.22C87.9601 774.31 85.9802 773.28 83.9302 772.12C77.3818 768.354 70.4317 765.335 63.2102 763.12C37.6302 755.45 21.2102 763.76 16.0002 766.12C14.3502 766.88 13.8201 767.04 14.4801 765.91C25.4801 746.98 45.8102 609.21 43.7402 581.77C41.6702 554.33 41.3502 508.58 43.4002 465.03C45.4002 423.19 73.0002 402.85 73.0002 402.85L140.56 395.85C141.429 396.266 142.271 396.737 143.08 397.26C173.26 416.8 201.76 526.48 216.35 546.36C229.74 564.78 278.16 702.12 274.78 741.78Z" fill="#263F8C"></path> <path d="M72.8601 402.82C72.8601 402.82 39.8601 399.28 37.8101 494.26C35.7601 589.24 11.2601 722 2.06014 725.06C-7.13986 728.12 19.6601 751 19.6601 751C19.6601 751 45.4801 641.23 46.2401 598.92C47.0001 556.61 35.0001 432.6 72.8601 402.82Z" fill="#20325B"></path> <path d="M89.6898 775.18C87.7998 774.27 85.8198 773.24 83.7698 772.08C46.3098 750.93 22.3498 763.14 15.8398 766.08L14.3198 765.87C14.7798 765.19 26.5498 748.2 51.7498 758.42C78.6998 769.35 86.9998 774 89.6898 775.18Z" fill="#20325B"></path> <path d="M174.7 773.46C173.38 773.09 172.01 772.63 170.6 772.08C145.43 762.32 136.06 778.35 117.6 780.93C148.22 749.65 174.7 773.46 174.7 773.46Z" fill="#20325B"></path> <path d="M254.11 755.16C248.24 751.28 242.47 743.55 231.87 742.43C222.55 741.43 216.53 751.54 208.71 760.71C227.93 712.75 253.6 754.32 254.11 755.16Z" fill="#20325B"></path> <path d="M125.02 871.44L137.34 880.62L117.81 876.03L119.34 870.09L125.02 871.44Z" fill="#E5AD9C"></path> <path d="M179.78 902.77C177.58 903.77 92.8698 904.55 89.8998 902.77C86.9298 900.99 85.7198 898.17 88.4698 890C89.9498 885.61 91.9798 879.76 93.5398 875.28C94.8898 871.42 95.8898 868.59 95.8898 868.59L120.64 874.73C120.64 874.73 139.47 881.41 155.13 886.83C164.86 890.2 173.37 893.09 175.38 893.57C180.61 894.85 182 901.74 179.78 902.77Z" fill="#EDCBB9"></path> <path d="M239.19 58.3303C239.188 62.4669 238.087 66.5288 236 70.1003V70.1003C235.532 70.9117 235.015 71.6932 234.45 72.4403C232.296 75.3011 229.516 77.6315 226.323 79.2532C223.13 80.875 219.608 81.7452 216.027 81.7973C212.446 81.8494 208.901 81.082 205.662 79.5539C202.423 78.0257 199.577 75.7772 197.34 72.9803L196.72 72.1703C196.39 71.7203 196.08 71.2603 195.78 70.7903C195.64 70.5603 195.49 70.3203 195.36 70.0803C193.551 66.9597 192.484 63.4645 192.243 59.8654C192.001 56.2663 192.592 52.66 193.968 49.3258C195.345 45.9916 197.47 43.0189 200.18 40.6382C202.89 38.2575 206.111 36.5326 209.595 35.5971C213.079 34.6615 216.731 34.5406 220.269 35.2435C223.807 35.9464 227.136 37.4543 229.998 39.6505C232.859 41.8467 235.177 44.6721 236.771 47.9079C238.365 51.1438 239.193 54.7031 239.19 58.3103V58.3303Z" fill="#FDD952"></path> <path d="M236 70.0996C235.9 70.2496 235.29 71.0996 234.45 72.4396C231.987 76.1716 230.015 80.2046 228.58 84.4396H202C200.961 80.3828 199.352 76.494 197.22 72.8896L196.77 72.1496C196.35 71.4596 195.89 70.7596 195.41 70.0596H236V70.0996Z" fill="#FDD952"></path> <path d="M228.42 86.5996H202.97V103.07H228.42V86.5996Z" fill="#A0A3A8"></path> <path d="M229.06 84.4805H202.16C200.989 84.4805 200.04 85.4296 200.04 86.6005V87.9605C200.04 89.1313 200.989 90.0805 202.16 90.0805H229.06C230.231 90.0805 231.18 89.1313 231.18 87.9605V86.6005C231.18 85.4296 230.231 84.4805 229.06 84.4805Z" fill="#B9BEC9"></path> <path d="M229.62 90.9805H202.72C201.549 90.9805 200.6 91.9296 200.6 93.1005V94.4605C200.6 95.6313 201.549 96.5805 202.72 96.5805H229.62C230.791 96.5805 231.74 95.6313 231.74 94.4605V93.1005C231.74 91.9296 230.791 90.9805 229.62 90.9805Z" fill="#B9BEC9"></path> <path d="M204.28 103.07C204.28 103.07 207.71 106.41 210.78 106.77C213.85 107.13 222.42 106.77 222.42 106.77C222.42 106.77 227.02 105.24 228.42 103.07H204.28Z" fill="#A0A3A8"></path> <path d="M229.62 97.4805H202.72C201.549 97.4805 200.6 98.4296 200.6 99.6005V100.96C200.6 102.131 201.549 103.08 202.72 103.08H229.62C230.791 103.08 231.74 102.131 231.74 100.96V99.6005C231.74 98.4296 230.791 97.4805 229.62 97.4805Z" fill="#B9BEC9"></path> <path d="M221.71 106.65C221.71 108.072 221.146 109.435 220.14 110.44C219.135 111.446 217.772 112.01 216.35 112.01C214.929 112.01 213.565 111.446 212.56 110.44C211.555 109.435 210.99 108.072 210.99 106.65" fill="#A0A3A8"></path> <path d="M231.74 49.6098C231.735 53.7088 230.729 57.7446 228.809 61.3664C226.89 64.9882 224.115 68.0864 220.725 70.3916C217.336 72.6969 213.435 74.1395 209.361 74.594C205.287 75.0486 201.164 74.5013 197.35 72.9998L197.18 72.9298L196.73 72.1898C196.4 71.7398 196.09 71.2797 195.79 70.8097C195.65 70.5797 195.5 70.3398 195.37 70.0998C192.675 65.4328 191.666 59.9814 192.512 54.659C193.357 49.3366 196.007 44.4666 200.016 40.8653C204.025 37.2639 209.151 35.15 214.533 34.8777C219.915 34.6054 225.228 36.1914 229.58 39.3698C231.011 42.5936 231.747 46.0826 231.74 49.6098V49.6098Z" fill="#F4DA90"></path> <path d="M227 52.8899C227 52.8899 219.24 76.8099 220.32 82.3999H212.56C212.56 82.3999 209.85 58.4899 205.7 52.8899L212.56 56.4999L216.42 52.8899L220.68 56.8899L227 52.8899V52.8899ZM205.7 48.8899C204.96 48.8908 204.234 49.0971 203.604 49.4859C202.974 49.8747 202.465 50.4307 202.132 51.0921C201.799 51.7534 201.656 52.4941 201.72 53.2317C201.783 53.9693 202.05 54.6749 202.49 55.2699C204.91 58.5399 207.49 73.3699 208.58 82.8499C208.691 83.831 209.161 84.7363 209.9 85.3917C210.638 86.047 211.593 86.4062 212.58 86.3999H220.34C220.93 86.4003 221.513 86.2702 222.047 86.019C222.58 85.7677 223.052 85.4015 223.428 84.9466C223.803 84.4916 224.073 83.9593 224.219 83.3876C224.365 82.8159 224.382 82.2191 224.27 81.6399C223.74 78.8999 227.27 65.1999 230.83 54.1199C231.085 53.3375 231.092 52.4956 230.851 51.709C230.61 50.9224 230.132 50.2292 229.482 49.7241C228.833 49.2189 228.044 48.9264 227.222 48.8862C226.4 48.8461 225.586 49.0604 224.89 49.4999L221.18 51.8399L219.18 49.9599C218.439 49.2682 217.464 48.8834 216.45 48.8834C215.437 48.8834 214.461 49.2682 213.72 49.9599L211.94 51.6199L207.6 49.3399C207.027 49.0381 206.388 48.8803 205.74 48.8799L205.7 48.8899Z" fill="#F4A845"></path> <path d="M215.09 4.84961C225.488 4.84467 235.75 7.21619 245.092 11.783C254.434 16.3499 262.609 22.9913 268.992 31.2C275.375 39.4088 279.798 48.9677 281.923 59.1468C284.047 69.3259 283.818 79.8559 281.251 89.9327C278.684 100.009 273.849 109.366 267.114 117.289C260.379 125.211 251.922 131.49 242.39 135.645C232.858 139.8 222.502 141.722 212.114 141.263C201.725 140.805 191.579 137.978 182.45 133L153.54 142.82C162.26 138.92 168.6 123 168.6 123C158.583 113.66 151.608 101.522 148.583 88.1641C145.557 74.8066 146.621 60.8478 151.636 48.1031C156.651 35.3584 165.384 24.4175 176.701 16.7034C188.018 8.98937 201.394 4.85904 215.09 4.84961V4.84961ZM153.54 142.85C152.924 143.135 152.281 143.356 151.62 143.51L153.54 142.85ZM215.09 0.849612C200.821 0.846098 186.871 5.06816 174.999 12.9833C163.127 20.8984 153.865 32.152 148.381 45.3246C142.897 58.4973 141.436 72.9989 144.184 87.0005C146.932 101.002 153.764 113.876 163.82 124C161.53 128.86 156.96 136.83 152.05 139.16L150.33 139.75C149.431 140.053 148.669 140.666 148.181 141.479C147.692 142.292 147.508 143.252 147.662 144.188C147.816 145.124 148.297 145.975 149.02 146.589C149.743 147.203 150.661 147.54 151.61 147.54C151.913 147.541 152.215 147.507 152.51 147.44C153.36 147.24 154.191 146.962 154.99 146.61L182.11 137.4C191.833 142.386 202.561 145.102 213.486 145.342C224.411 145.582 235.248 143.341 245.182 138.787C255.115 134.233 263.886 127.484 270.834 119.05C277.781 110.615 282.725 100.715 285.293 90.0928C287.86 79.4711 287.985 68.4054 285.656 57.7287C283.328 47.052 278.608 37.0426 271.852 28.4541C265.095 19.8656 256.478 12.9218 246.65 8.14548C236.821 3.36919 226.037 0.884893 215.11 0.879614L215.09 0.849612Z" fill="#B9BEC9"></path> <path opacity="0.69" d="M274.78 741.78C269.31 729.67 262.46 710.13 255.34 678.85C238.92 606.75 133.98 402.85 133.98 402.85L140.42 395.85C175.34 415.13 201.62 526.48 216.21 546.36C229.74 564.78 278.16 702.12 274.78 741.78Z" fill="#7896C1"></path> <path d="M128.7 405.21C121.46 408.02 110.44 408.77 100.09 408.36C95.2316 408.182 90.3871 407.728 85.5802 407C78.7002 405.92 73.7001 404.37 72.8601 402.83C70.4601 398.41 72.8601 391.12 72.8601 391.12C77.7701 392.17 82.3502 392.96 86.5802 393.54C91.5102 394.23 96.0002 394.62 100.09 394.79C132.25 396.08 139.65 383.2 139.65 383.2C141.41 396.57 141 400.43 128.7 405.21Z" fill="#90AAD6"></path> <path d="M117.53 780.93C110.21 781.93 101.46 780.85 89.7401 775.21C87.8501 774.3 85.8701 773.27 83.8201 772.11C77.2717 768.345 70.3216 765.326 63.1001 763.11C73.0301 757.21 77.6901 686.79 75.1001 626.53C72.5101 566.27 92.4601 408.53 92.4601 408.53H97.5601C97.5601 408.53 105.72 569.32 108.47 601C111.22 632.68 112.36 664.83 117.53 690.87C122.7 716.91 117.53 780.93 117.53 780.93Z" fill="#213975"></path> <path d="M212.18 756.5C211.05 757.89 209.9 759.31 208.71 760.71C200.88 769.9 191.24 778.17 174.71 773.46C173.39 773.09 172.02 772.63 170.61 772.08C170.61 772.08 170.48 683.19 164.42 647.96C158.36 612.73 132.82 505.96 130.26 492.72C127.7 479.48 110.39 408.35 110.39 408.35L114.95 408.47C114.95 408.47 175.2 574.94 181.84 612.72C188.48 650.5 201.71 744.93 211.18 755.17C211.553 755.582 211.888 756.027 212.18 756.5V756.5Z" fill="#213975"></path> <path d="M88.2002 901.4L179.78 902.77L179.71 902.85C178.931 903.792 177.953 904.55 176.847 905.069C175.74 905.587 174.532 905.854 173.31 905.85H92.4502C90.2802 905.85 89.6702 903.79 88.7602 902.32L88.2002 901.4Z" fill="#0D1D3F"></path> <path d="M179.78 902.77C177.58 903.77 92.8699 904.55 89.8999 902.77C86.9299 900.99 85.0999 897.71 87.8999 889.54C89.3799 885.15 92.0299 879.76 93.5899 875.28C94.2673 876.93 95.0592 878.531 95.9599 880.07C98.4199 884.31 102.74 890.12 108.81 892.07C114.67 893.95 149.4 890.58 155.15 886.86C164.88 890.23 173.39 893.12 175.4 893.6C176.762 893.981 177.987 894.743 178.929 895.798C179.872 896.852 180.493 898.154 180.72 899.55C181 901.05 180.65 902.36 179.78 902.77Z" fill="#263F8C"></path> <path d="M179.78 902.77C177.58 903.77 92.8699 904.55 89.8999 902.77C86.9299 900.99 85.0999 897.71 87.8999 889.54C89.3799 885.15 92.0299 879.76 93.5899 875.28C94.2673 876.93 95.0592 878.531 95.9599 880.07C95.9599 880.07 92.2999 899.55 98.9599 900.74C105.62 901.93 173.1 901.95 176.96 900.74L180.78 899.54C181 901.05 180.65 902.36 179.78 902.77Z" fill="#1C3472"></path> <path d="M51.9301 303.37C49.4601 307.37 46.7801 311.17 44.2901 315.05C43.0201 316.97 41.8401 318.94 40.7301 320.93C39.5632 322.923 38.6559 325.057 38.0302 327.28C37.8892 324.878 38.3282 322.477 39.3101 320.28C40.1985 318.071 41.3074 315.957 42.6201 313.97C43.9049 311.989 45.3285 310.1 46.8801 308.32C48.4091 306.52 50.0994 304.863 51.9301 303.37V303.37Z" fill="#162B56"></path> <path d="M51.93 302.15C50.64 303.2 49.33 304.15 48.01 305.03L44.09 307.7C42.79 308.58 41.51 309.47 40.29 310.42C39.0114 311.337 37.893 312.459 36.98 313.74C37.2174 312.053 38.0006 310.49 39.21 309.29C40.3294 308.038 41.6029 306.933 43 306C44.3639 305.091 45.8024 304.298 47.3 303.63C48.78 302.957 50.334 302.461 51.93 302.15V302.15Z" fill="#162B56"></path> <path d="M43.8301 339.37C44.1389 333.662 44.8405 327.982 45.9301 322.37C46.983 316.766 48.3417 311.225 50.0001 305.77C51.672 300.31 53.6997 294.965 56.0701 289.77C58.4477 284.571 61.2963 279.6 64.5801 274.92C63.3701 277.52 61.93 279.92 60.86 282.59C60.29 283.89 59.6501 285.15 59.1201 286.46L57.5101 290.39C56.9401 291.68 56.5101 293.04 55.9901 294.39C55.4701 295.74 54.99 297.03 54.55 298.39L53.17 302.39L51.91 306.44C50.24 311.85 48.7801 317.31 47.4301 322.82C46.7701 325.57 46.1201 328.33 45.5301 331.11C44.9401 333.89 44.3801 336.58 43.8301 339.37Z" fill="#162B56"></path> <path opacity="0.42" d="M39.7002 342.17L35.7002 348.39C28.9602 325.19 21.7802 295.28 19.4802 278.21C17.3002 262.07 20.2702 250.66 23.3602 243.67C25.5602 238.67 29.1502 235.14 33.2502 233.77C32.0002 238.05 24.9702 263.82 29.8602 289.23C35.2602 317.06 39.7002 342.17 39.7002 342.17Z" fill="#162B56"></path> <path opacity="0.42" d="M152.38 332.29L83.3799 341.39L77.3799 364.66L82.9799 365.66L85.6999 354.47C86.3214 351.91 87.7061 349.599 89.6705 347.844C91.6349 346.088 94.0863 344.971 96.6999 344.64C111.82 342.72 141.9 338.31 152.38 332.29Z" fill="#162B56"></path> <path d="M169 340.13C168.038 338.964 166.944 337.914 165.74 337C164.562 336.126 163.27 335.416 161.9 334.89C160.544 334.365 159.131 334.003 157.69 333.81C156.27 333.605 154.831 333.558 153.4 333.67L153.62 331.79C154.796 332.286 155.916 332.906 156.96 333.64C157.999 334.344 158.97 335.144 159.86 336.03C160.761 336.897 161.566 337.86 162.26 338.9C162.955 339.92 163.529 341.017 163.97 342.17C163.22 341.223 162.419 340.319 161.57 339.46C161.16 339.03 160.71 338.64 160.28 338.24C159.85 337.84 159.37 337.48 158.9 337.13C157.972 336.404 157 335.736 155.99 335.13C155.004 334.545 153.978 334.031 152.92 333.59V333.59C152.736 333.496 152.585 333.347 152.489 333.164C152.392 332.98 152.355 332.771 152.383 332.566C152.41 332.361 152.501 332.169 152.642 332.018C152.783 331.866 152.967 331.762 153.17 331.72C154.789 331.542 156.426 331.596 158.03 331.88C159.62 332.157 161.162 332.658 162.61 333.37C163.323 333.742 164.011 334.16 164.67 334.62C165.308 335.098 165.906 335.626 166.46 336.2C167.54 337.343 168.401 338.675 169 340.13V340.13Z" fill="#162B56"></path> <path d="M164 329.32C161.941 329.417 159.888 329.624 157.85 329.94C156.862 330.091 155.892 330.349 154.96 330.71C154.011 331.082 153.135 331.617 152.37 332.29C152.874 331.321 153.658 330.527 154.62 330.01C155.571 329.483 156.607 329.125 157.68 328.95C158.733 328.771 159.803 328.711 160.87 328.77C161.933 328.819 162.985 329.003 164 329.32V329.32Z" fill="#162B56"></path> <path opacity="0.42" d="M161.27 333.73H152.49C152.43 333.27 152.4 332.79 152.38 332.29C151.9 317 157.68 300.91 148.6 273.09C149 274.2 164.68 313.4 161.27 333.73Z" fill="#162B56"></path> <path opacity="0.71" d="M66.7802 258.09C66.3402 260.74 65.8602 263.39 65.4602 266.09C65.2902 267.41 65.0902 268.74 64.9702 270.09C64.7746 271.372 64.7746 272.677 64.9702 273.96V274.1V274.18C64.973 274.213 64.973 274.247 64.9702 274.28V274.28C64.9002 274.37 65.1302 274.08 64.7802 274.63C63.7802 274.79 64.1902 274.45 64.0802 274.56C64.0347 274.489 64.0009 274.411 63.9802 274.33V274.2L63.8402 273.7L63.5702 272.7L63.0602 270.7C62.7402 269.39 62.4002 268.09 62.1202 266.78L61.2302 262.84C60.9702 261.52 60.6802 260.2 60.4502 258.84C60.9002 260.12 61.2902 261.41 61.7102 262.69L62.8602 266.55C63.2602 267.84 63.6002 269.14 63.9802 270.43L64.5202 272.37L64.7902 273.37L64.9302 273.85V273.96C64.9302 273.96 64.9902 274.09 64.9302 273.96C64.8202 274.08 65.2502 273.74 64.2302 273.89C63.8902 274.44 64.1202 274.15 64.0502 274.24V274.13C63.8351 272.752 63.8351 271.348 64.0502 269.97C64.2302 268.62 64.4402 267.28 64.7302 265.97C65.2651 263.307 65.9496 260.676 66.7802 258.09V258.09Z" fill="#162B56"></path> <path opacity="0.42" d="M75 371.07C75 371.07 109.53 379.95 141.44 374.82L143.44 366.45C143.44 366.45 107.11 370.9 77.44 364.66C77.39 364.66 75.57 370.61 75 371.07Z" fill="#162B56"></path> <path opacity="0.43" d="M183.21 346C182.62 311.71 165 247.43 161.76 242.14C159.13 237.86 152.63 237.58 148.82 235.46C148.169 235.155 147.589 234.717 147.117 234.175C146.645 233.632 146.292 232.997 146.08 232.31C144.57 226.74 111.73 216.02 111.73 216.02L115.55 210.15C124.68 212.57 140.55 216.94 144.02 218.8C146.48 219.837 148.846 221.085 151.09 222.53C156.49 226.43 154.66 224.89 156.64 227.04C157.843 228.326 158.823 229.803 159.54 231.41C169.08 252.35 192.45 302.16 183.21 346Z" fill="#7896C1"></path> <path opacity="0.42" d="M82.3401 216.84L51.6801 241C51.6801 241 42.6801 229.82 31.5601 234.52C43.9301 225.35 76.1 213.81 76.1 213.81L82.3401 216.84Z" fill="#162B56"></path> <path d="M100.09 394.78V408.36C86.5802 407.84 74.2201 405.36 72.8601 402.82C70.4601 398.4 72.8601 391.11 72.8601 391.11C81.8186 393.091 90.927 394.319 100.09 394.78V394.78Z" fill="#728CB2"></path> <path d="M86.5802 393.53L85.5802 406.99C78.7002 405.91 73.7001 404.36 72.8601 402.82C70.4601 398.4 72.8601 391.11 72.8601 391.11C77.7701 392.16 82.3502 393 86.5802 393.53Z" fill="#516F93"></path> <path d="M123.54 219.71C122.264 222.509 120.009 224.746 117.2 226C107.86 230.62 103.51 223.26 103.51 223.26C100.662 229.544 95.666 234.607 89.42 237.54C83.49 240.27 73.96 234.42 66.91 228.93C63.7231 226.435 60.6783 223.764 57.79 220.93L76.1 213.73C77.1 214.2 78.16 214.6 79.1 214.95C93.7 220.16 102.76 213.66 106.47 209.95C107.203 209.254 107.872 208.494 108.47 207.68L124.26 212.52C124.754 214.934 124.502 217.441 123.54 219.71V219.71Z" fill="#90AAD6"></path> <path d="M79.5001 215.45L66.91 229C63.7231 226.505 60.6783 223.835 57.79 221L76.1 213.8C77.1 214.27 78.16 214.67 79.1 215.02L79.5001 215.45Z" fill="#7592BC"></path> <path d="M123.54 219.71L106.54 209.98C107.273 209.284 107.942 208.525 108.54 207.71L124.33 212.55C124.795 214.962 124.52 217.458 123.54 219.71V219.71Z" fill="#B0C8EA"></path> <path d="M116.88 206.23C116.039 205.348 114.912 204.795 113.7 204.67C113.89 204.58 116.16 203.31 113.43 199.97C112.704 199.159 111.695 198.658 110.61 198.57C111.83 198.57 111.68 196.45 109.04 194.13C108.566 193.833 108.031 193.648 107.474 193.589C106.918 193.53 106.356 193.599 105.83 193.79C106.98 192.57 106.83 188.93 104.76 188.13C103.21 187.53 97.8202 189.98 93.9502 191.92L92.3202 192.75C90.8202 193.53 89.8102 194.09 89.8102 194.09C89.001 190.045 87.9117 186.063 86.5502 182.17V182.17C84.7602 176.97 82.7802 172.67 81.7002 172.17C79.8002 171.25 80.0702 175.88 81.7002 183.61C83.3302 191.34 85.2202 200.61 84.7002 209.61C84.2902 216.5 87.5502 225.61 89.0802 229.42C89.3102 229.996 89.3949 230.621 89.3269 231.238C89.2589 231.855 89.0402 232.447 88.6902 232.96L85.8502 237.13L100.68 243.62C100.68 243.62 101.05 243.09 101.62 242.24C103.838 239.129 105.842 235.871 107.62 232.49C108.72 229.94 110.39 220.85 111.2 216.17C111.404 216.163 111.608 216.147 111.81 216.12C113.309 215.838 114.686 215.106 115.758 214.021C116.83 212.937 117.546 211.551 117.81 210.05C117.948 209.384 117.936 208.696 117.775 208.035C117.614 207.374 117.308 206.758 116.88 206.23V206.23ZM106.31 198.81C104.949 199.088 103.612 199.473 102.31 199.96C103.593 199.418 104.936 199.032 106.31 198.81ZM111.31 215.22C111.52 214.02 111.64 213.27 111.64 213.27L113.64 211.57C112.785 212.742 111.994 213.961 111.27 215.22H111.31Z" fill="#EDDDCE"></path> <path d="M117.71 210C117.2 213 114.53 216 111.12 216.12C110.799 215.732 110.57 215.277 110.449 214.789C110.328 214.3 110.32 213.791 110.423 213.299C110.527 212.806 110.741 212.344 111.049 211.946C111.356 211.548 111.75 211.224 112.2 211C112.2 211 117 206.86 117.71 210Z" fill="#E8C0AF"></path> <path d="M111.28 215.45C111.28 215.45 109.78 213.13 111.67 211.73C113.56 210.33 114.15 210.04 114.67 210.41C115.19 210.78 112.77 213.07 112.24 213.65C111.827 214.195 111.503 214.803 111.28 215.45V215.45Z" fill="#E5AD9C"></path> <path d="M92.3098 192.76C90.9098 193.9 90.1398 195.76 89.5698 195.85C88.7998 196.04 86.5698 182.17 86.5698 182.17C87.9314 186.063 89.0207 190.046 89.8298 194.09C89.8298 194.09 90.8098 193.54 92.3098 192.76Z" fill="#E5AD9C"></path> <path d="M104.07 188C104.07 188 106.82 190.58 105.14 193.51C105.14 193.51 100.36 193.83 98.7602 195.81C97.9603 196.685 97.3326 197.703 96.9102 198.81C96.9102 198.81 98.9102 195.53 101.83 194.81C104.75 194.09 106.31 193.66 106.31 193.66C106.459 192.577 106.522 191.484 106.5 190.39C106.4 189.38 105.33 187.85 104.07 188Z" fill="#E8C0AF"></path> <path d="M110.61 198.57C110.61 198.57 103.46 197.66 100.61 202.17C100.61 202.17 104.38 199.75 106.07 199.47C107.76 199.19 110.61 198.57 110.61 198.57Z" fill="#E8C0AF"></path> <path d="M113.7 204.67C113.7 204.67 106.86 204.13 104.48 207.79C105.937 206.924 107.482 206.216 109.09 205.68C110.72 205.29 113.7 204.67 113.7 204.67Z" fill="#E8C0AF"></path> <path d="M111.73 216.06C111.528 216.087 111.324 216.103 111.12 216.11C110.31 220.79 108.64 229.88 107.54 232.43C105.762 235.811 103.758 239.069 101.54 242.18L100.02 241.29C102.053 238.699 103.917 235.98 105.6 233.15C107.35 229.92 110.6 215.22 110.6 215.22L111.73 216.06Z" fill="#E8C0AF"></path> <path d="M75.86 369.32C71.94 378.55 60.26 389.48 50.86 383.75C49.071 382.636 47.6002 381.079 46.5901 379.23C45.0067 376.155 44.029 372.804 43.71 369.36C42.57 360.5 43.3 348.06 44.19 331.95C45.78 303 86.5901 233.68 86.5901 233.68L90.3401 235.81L102.19 242.54C103 261 79.79 360.09 75.86 369.32Z" fill="#233C84"></path> <path opacity="0.42" d="M90.3899 235.81C90.3899 235.81 47.6299 310.81 46.6399 379.23L43.7599 369.36C42.6199 360.5 43.3498 348.06 44.2398 331.95C45.8298 303 86.6399 233.68 86.6399 233.68L90.3899 235.81Z" fill="#162B56"></path> </svg> 