<?xml version="1.0" encoding="UTF-8"?> <svg xmlns="http://www.w3.org/2000/svg" width="449" height="1073" viewBox="0 0 449 1073" fill="none"> <g clip-path="url(#clip0_63_2204)"> <path d="M142.693 846.562C142.693 846.562 49.0699 1012.07 50.9722 1073H428.009C428.009 1073 369.9 860.765 311.784 843.33L244.167 871.047L142.693 846.562Z" fill="#304299"></path> <path d="M357.74 220.13C357.74 220.13 376.429 266.619 332.282 267.373C332.282 267.373 366.04 354.442 272.553 331.306C272.553 331.298 247.298 226.915 357.74 220.13Z" fill="#A07537"></path> <path d="M293.792 268.186C293.792 268.186 315.114 293.348 298.674 335.188C298.674 335.188 276.073 334.434 273.148 329.685C270.223 324.935 268.595 263.756 293.792 268.186Z" fill="#8C632D"></path> <path d="M286.65 263.372C290.117 268.738 293.036 274.439 295.362 280.389C297.699 286.327 299.486 292.504 300.413 298.832C301.34 305.159 301.303 311.648 299.986 317.905C299.663 319.469 299.252 321.015 298.755 322.533C298.268 324.055 297.691 325.547 297.028 327.001C295.7 329.907 294.059 332.659 292.133 335.209C295.918 330.051 298.541 324.136 299.823 317.869C301.107 311.625 301.079 305.159 300.164 298.867C299.25 292.575 297.513 286.388 295.206 280.45C294.05 277.48 292.756 274.568 291.324 271.715C289.92 268.85 288.36 266.065 286.65 263.372V263.372Z" fill="#D8A377"></path> <path d="M127.819 221.18C127.819 221.18 106.761 353.663 201.448 305.83C201.453 305.82 237.447 209.073 127.819 221.18Z" fill="#BC8F48"></path> <path d="M173.562 257.919C173.562 257.919 148.666 293.888 169.807 316.055C169.807 316.055 181.699 316.467 200.681 306.217C219.664 295.967 181.935 253.335 173.562 257.919Z" fill="#AA7F3F"></path> <path d="M161.643 248.604C160.919 251.315 160.228 254.036 159.547 256.758C158.866 259.479 158.188 262.203 157.537 264.932C156.23 270.393 154.996 275.869 153.881 281.367C152.765 286.865 151.71 292.381 150.958 297.952C150.594 300.731 150.29 303.523 150.182 306.325C150.112 307.725 150.128 309.128 150.229 310.527C150.279 311.225 150.377 311.92 150.523 312.605C150.653 313.295 150.901 313.957 151.257 314.562C150.895 313.96 150.64 313.299 150.503 312.61C150.346 311.925 150.236 311.229 150.174 310.529C150.053 309.13 150.017 307.724 150.066 306.32C150.157 303.511 150.451 300.714 150.8 297.927C151.524 292.356 152.534 286.827 153.645 281.324C154.755 275.821 156.049 270.355 157.381 264.902C158.051 262.175 158.737 259.453 159.439 256.735C160.141 254.018 160.876 251.307 161.643 248.604Z" fill="#D8A377"></path> <path d="M171.981 249.699C171.459 252.463 170.976 255.228 170.491 257.992C170.006 260.756 169.534 263.52 169.081 266.284C168.179 271.813 167.352 277.374 166.644 282.942C165.935 288.511 165.284 294.085 164.945 299.686C164.784 302.485 164.694 305.292 164.784 308.094C164.818 309.496 164.937 310.894 165.141 312.281C165.241 312.975 165.391 313.661 165.588 314.334C165.769 315.013 166.066 315.655 166.465 316.233C166.057 315.659 165.75 315.019 165.558 314.341C165.352 313.67 165.192 312.984 165.081 312.291C164.856 310.903 164.715 309.504 164.661 308.099C164.546 305.29 164.633 302.48 164.779 299.676C165.091 294.067 165.691 288.481 166.395 282.91C167.099 277.339 167.988 271.793 168.908 266.257C169.372 263.488 169.856 260.723 170.36 257.964C170.878 255.205 171.418 252.448 171.981 249.699Z" fill="#D8A377"></path> <path d="M195.6 355.427C195.6 355.427 229.743 405.685 278.114 361.116C278.114 361.116 275.269 282.269 286.658 252.931H195.6C195.6 252.931 207.928 339.302 195.6 355.427Z" fill="url(#paint0_linear_63_2204)"></path> <path d="M154.009 220.544C154.198 221.574 154.351 222.609 154.469 223.647C154.908 227.61 156.881 239.941 165.068 251.443C167.533 254.905 170.767 258.026 173.047 261.906C187.669 286.814 219.065 319.409 258.606 301.573C325.768 271.274 328.477 198.893 331.347 180.408C334.217 161.923 350.299 63.324 253.852 46.382C160.779 30.028 140.422 111.167 150.466 167.662C151.134 171.427 151.314 175.263 151.001 179.073C150.42 186.157 150.194 200.147 154.009 220.544Z" fill="url(#paint1_linear_63_2204)"></path> <path opacity="0.33" d="M172.788 89.5541C172.788 89.5541 137.351 231.187 208.147 298.761C208.147 298.761 180.517 277.67 173.924 263.372C167.139 248.694 127.405 171.294 131.513 143.79C135.622 116.286 139.419 84.5635 151.906 81.7716C164.392 78.9798 180.55 74.8385 172.788 89.5541Z" fill="#F3D9C1"></path> <path d="M290.425 59.4344C285.997 55.4665 279.071 56.5822 275.97 61.6558C269.334 72.509 253.804 90.127 224.456 85.6792C200.307 82.0204 181.091 85.453 168.539 91.3257C159.402 95.5976 153.793 101.164 152.383 106.225C149.038 118.239 156.806 136.897 156.175 158.395C155.544 179.893 148.134 177.996 151.282 200.687C154.409 223.281 166.237 236.647 166.636 251.611C167.066 267.656 90.4148 223.52 104.316 160.29C118.218 97.0601 132.77 102.744 132.77 102.744C132.77 102.744 143.528 9.17374 224.461 0.954024C305.394 -7.26569 352.812 39.5221 361.668 68.6015C370.523 97.6808 364.829 133.095 373.049 141.315C381.269 149.535 430.109 220.25 347.759 255.454C295.277 277.889 325.49 223.54 325.628 205.746C325.766 187.819 312 168.198 308.555 110.333C306.766 80.2438 297.833 66.0684 290.425 59.4344Z" fill="#E5BD89"></path> <path d="M289.271 58.1099C289.271 58.1099 280.896 39.4566 270.067 55.5794C259.239 71.7022 261.544 78.9192 254.312 81.7714C254.312 81.7714 264.929 77.5522 270.776 69.6491C276.624 61.746 287.374 56.8459 289.271 58.1099Z" fill="#DBA25E"></path> <path d="M303.454 83.3046C303.454 83.3046 310.136 50.2071 291.01 56.5396C291.01 56.5396 289.196 57.6176 287.688 57.982C286.18 58.3464 294.488 57.9519 303.454 83.3046Z" fill="#C6965C"></path> <path d="M172.788 89.5542C172.788 89.5542 151.428 77.3943 143.844 109.642C136.26 141.891 153.011 143.155 150.166 158.013C147.322 172.872 140.049 186.158 144.161 200.693C148.272 215.227 161.329 229.066 161.329 229.066C161.329 229.066 184.659 101.398 172.788 89.5542Z" fill="#D8A766"></path> <path d="M346.809 130.401C349.184 132.643 351.438 135.008 353.631 137.438C355.825 139.867 357.939 142.345 359.977 144.896C364.063 149.994 367.784 155.375 371.111 160.999C374.413 166.63 377.285 172.538 379.384 178.735C381.482 184.931 382.799 191.41 382.841 197.961C382.865 201.235 382.545 204.503 381.887 207.711C381.224 210.917 380.212 214.042 378.871 217.029C377.515 220.008 375.853 222.838 373.911 225.472L373.187 226.465C373.071 226.631 372.936 226.791 372.81 226.947L372.413 227.417L371.634 228.365L371.244 228.837C371.116 228.998 370.993 229.154 370.845 229.302L369.186 231.106C369.046 231.254 368.912 231.41 368.767 231.553L368.329 231.981L367.452 232.837L366.583 233.699C366.289 233.983 365.972 234.245 365.671 234.516L363.831 236.137L361.914 237.665L360.957 238.419L359.951 239.137L357.966 240.572C357.29 241.03 356.604 241.472 355.923 241.922C354.574 242.844 353.159 243.653 351.754 244.495C346.091 247.75 340.188 250.572 334.099 252.936C340.169 250.535 346.049 247.679 351.689 244.392C353.081 243.542 354.498 242.736 355.843 241.811C356.524 241.361 357.207 240.916 357.881 240.459L359.861 239.022L360.851 238.303L361.806 237.549L363.716 236.021L365.545 234.4C365.849 234.129 366.163 233.868 366.455 233.584L367.327 232.729L368.201 231.873L368.644 231.438C368.789 231.295 368.922 231.139 369.061 230.99L370.712 229.186C370.852 229.038 370.983 228.882 371.109 228.724L371.496 228.251L372.27 227.304L372.657 226.832C372.787 226.676 372.908 226.515 373.029 226.349L373.747 225.359C375.676 222.732 377.326 219.91 378.67 216.941C380 213.965 381.001 210.854 381.655 207.661C382.3 204.468 382.612 201.218 382.585 197.961C382.555 191.427 381.253 184.972 379.178 178.797C377.102 172.623 374.245 166.713 370.96 161.079C367.647 155.456 363.942 150.072 359.873 144.969C357.853 142.407 355.755 139.909 353.579 137.475C351.408 135.035 349.171 132.655 346.809 130.401Z" fill="#F4D7B8"></path> <path d="M296.048 49.0156C297.129 49.0217 298.205 49.1481 299.257 49.3926C300.312 49.6241 301.347 49.9401 302.351 50.3374C304.358 51.1419 306.245 52.2201 307.957 53.5414C309.668 54.8615 311.217 56.3798 312.571 58.0646C313.926 59.7492 315.129 61.5505 316.167 63.4472C318.225 67.2518 319.7 71.3453 320.795 75.5092C321.857 79.6983 322.603 83.9613 323.027 88.2622C323.952 96.8563 323.808 105.526 323.318 114.145C322.828 122.764 321.946 131.359 321.542 139.975C321.305 144.281 321.311 148.597 321.559 152.902C321.851 157.196 322.522 161.491 323.934 165.562C324.639 167.6 325.559 169.558 326.678 171.402C327.806 173.237 329.156 174.925 330.699 176.428C332.239 177.932 333.94 179.262 335.772 180.393C337.612 181.52 339.546 182.486 341.552 183.28L343.06 183.851C343.562 184.034 344.08 184.195 344.588 184.371C345.613 184.703 346.653 184.991 347.686 185.303C349.759 185.896 351.847 186.434 353.968 186.884L354.757 187.06L355.554 187.205L357.142 187.499C357.672 187.607 358.208 187.673 358.74 187.751L360.341 187.979C362.481 188.242 364.634 188.38 366.789 188.391C368.945 188.42 371.1 188.258 373.227 187.906C375.357 187.563 377.438 186.968 379.427 186.132C379.678 186.037 379.929 185.914 380.16 185.798L380.887 185.444L381.593 185.049C381.826 184.919 382.063 184.798 382.286 184.635L382.962 184.195C383.183 184.039 383.397 183.876 383.616 183.715C383.721 183.635 383.832 183.557 383.937 183.464L384.246 183.212C384.45 183.036 384.669 182.876 384.859 182.685C385.659 181.96 386.382 181.155 387.016 180.282C387.174 180.064 387.325 179.84 387.473 179.614C387.621 179.388 387.762 179.159 387.888 178.92C388.157 178.453 388.384 177.963 388.566 177.455C388.386 177.964 388.162 178.456 387.895 178.925C387.769 179.177 387.621 179.39 387.483 179.621C387.345 179.853 387.184 180.071 387.028 180.292C386.396 181.169 385.676 181.978 384.88 182.707C384.689 182.898 384.473 183.062 384.269 183.24L383.96 183.491C383.854 183.577 383.746 183.655 383.638 183.743C383.42 183.903 383.208 184.069 382.987 184.225L382.309 184.67C382.088 184.826 381.852 184.956 381.618 185.089L380.912 185.489L380.185 185.846C379.934 185.964 379.703 186.097 379.449 186.188C377.459 187.034 375.376 187.641 373.242 187.997C371.11 188.356 368.951 188.528 366.789 188.512C364.628 188.506 362.469 188.372 360.323 188.113L358.72 187.884C358.185 187.806 357.65 187.743 357.12 187.633L355.526 187.341L354.73 187.195L353.938 187.019C351.825 186.572 349.732 186.037 347.656 185.449C346.623 185.137 345.583 184.851 344.555 184.519C344.052 184.346 343.527 184.182 343.02 184.001L341.512 183.428C339.498 182.635 337.557 181.669 335.71 180.541C333.863 179.406 332.149 178.069 330.598 176.556C329.045 175.043 327.686 173.343 326.553 171.495C325.425 169.646 324.499 167.682 323.788 165.637C322.361 161.544 321.677 157.231 321.378 152.927C321.123 148.613 321.111 144.288 321.343 139.973C321.763 131.343 322.665 122.754 323.16 114.14C323.655 105.526 323.821 96.8739 322.909 88.2923C322.495 83.9977 321.757 79.7405 320.702 75.5569C319.656 71.3675 318.114 67.3182 316.106 63.495C315.081 61.5994 313.891 59.7981 312.548 58.1123C311.206 56.4222 309.668 54.8971 307.967 53.569C306.264 52.242 304.386 51.157 302.386 50.345C301.385 49.9417 300.353 49.6215 299.3 49.3875C298.233 49.1423 297.143 49.0176 296.048 49.0156V49.0156Z" fill="#F4D7B8"></path> <path d="M304.585 41.6758C307.03 41.7631 309.466 42.0302 311.872 42.4749C314.279 42.9089 316.656 43.4913 318.991 44.2188C323.674 45.6654 328.114 47.804 332.164 50.5639C333.169 51.26 334.142 52.0038 335.089 52.7803C336.036 53.5568 336.933 54.3911 337.8 55.253C339.533 56.9862 341.097 58.8812 342.469 60.9121C345.233 64.9604 347.156 69.5489 348.36 74.2908C348.944 76.6698 349.364 79.0863 349.616 81.5229L350.264 88.8229L350.428 90.6473L350.636 92.4641L351.058 96.1028C351.182 97.3191 351.39 98.5227 351.561 99.7315C351.732 100.94 351.9 102.149 352.104 103.353C352.544 105.752 352.936 108.165 353.491 110.542L353.88 112.331C354.019 112.924 354.182 113.512 354.333 114.105C354.639 115.284 354.928 116.472 355.305 117.623L355.835 119.382C356.014 119.965 356.238 120.533 356.436 121.111L356.743 121.973L356.896 122.405L357.072 122.828L357.773 124.519C358.024 125.077 358.301 125.617 358.562 126.17C358.63 126.305 358.69 126.446 358.765 126.579L358.989 126.976L359.439 127.775C360.085 128.803 360.753 129.849 361.68 130.65C360.746 129.856 360.067 128.816 359.419 127.791L358.961 126.996L358.733 126.599C358.657 126.466 358.595 126.326 358.527 126.19C358.258 125.642 357.974 125.099 357.723 124.544L357.004 122.855L356.826 122.433L356.667 122.003L356.353 121.141C356.15 120.566 355.921 119.998 355.737 119.415L355.192 117.656C354.808 116.495 354.519 115.306 354.207 114.125C354.054 113.532 353.888 112.944 353.75 112.351L353.355 110.56C352.79 108.182 352.39 105.77 351.945 103.368C351.737 102.161 351.576 100.95 351.39 99.744C351.204 98.5378 351.006 97.3291 350.888 96.1154L350.455 92.4742L350.239 90.6548L350.071 88.8305L349.402 81.543C349.149 79.1198 348.729 76.7168 348.146 74.3511C346.962 69.6293 345.065 65.0533 342.329 61.0327C340.967 59.0103 339.417 57.1214 337.7 55.3912C336.838 54.5293 335.941 53.7076 335.006 52.921C334.071 52.1345 333.099 51.4133 332.099 50.7047C328.067 47.9431 323.647 45.7978 318.984 44.3395C316.659 43.5932 314.289 42.9923 311.89 42.5402C309.479 42.072 307.038 41.7831 304.585 41.6758V41.6758Z" fill="#F4D7B8"></path> <path d="M292.754 41.6756C291.083 40.002 289.309 38.4364 287.494 36.9211C285.68 35.4058 283.811 33.9584 281.901 32.5688C278.078 29.7867 274.056 27.2897 269.866 25.0979C265.685 22.8924 261.303 21.09 256.779 19.7153C252.257 18.3305 247.576 17.5315 242.85 17.3381C235.745 17.0463 228.672 18.4315 222.202 21.3813C221.659 21.6125 221.134 21.8839 220.606 22.1352C220.355 22.2659 220.076 22.3865 219.814 22.5297L219.038 22.9519L218.261 23.3766L217.507 23.8214L215.98 24.7185C207.829 29.5134 200.175 35.1043 193.127 41.4092C189.609 44.5654 186.239 47.8799 182.995 51.3151C179.751 54.7502 176.597 58.2984 173.391 61.7788C170.184 65.2592 166.903 68.6843 163.204 71.6495C161.362 73.1435 159.397 74.4776 157.328 75.6375L154.18 77.2709C153.147 77.8394 152.147 78.4652 151.184 79.1455C147.327 81.867 144.126 85.4529 141.605 89.4358C139.106 93.4507 137.182 97.7959 135.888 102.345C133.243 111.456 132.614 121.034 134.044 130.414C132.574 121.032 133.163 111.443 135.77 102.312C137.056 97.744 138.977 93.3792 141.477 89.3454C143.99 85.3448 147.209 81.7388 151.084 78.9972C152.053 78.3112 153.059 77.6803 154.099 77.1075L157.245 75.4691C159.302 74.3149 161.257 72.9875 163.088 71.5012C166.767 68.541 170.046 65.1185 173.238 61.6381C176.429 58.1577 179.56 54.6019 182.809 51.1693C186.058 47.7367 189.423 44.3995 192.941 41.2333C200.012 34.9308 207.689 29.3425 215.859 24.5501L217.392 23.6555L218.146 23.2107L218.927 22.786L219.721 22.3639C219.973 22.2257 220.252 22.1126 220.515 21.9668C221.048 21.7155 221.576 21.4366 222.121 21.213C228.622 18.2632 235.726 16.8858 242.858 17.1923C247.594 17.3861 252.286 18.1867 256.819 19.5745C261.349 20.958 265.735 22.7714 269.919 24.9899C274.104 27.2035 278.12 29.7233 281.933 32.5286C283.84 33.9257 285.699 35.3849 287.512 36.9061C289.316 38.4213 291.085 39.9944 292.754 41.6756Z" fill="#F4D7B8"></path> <path d="M131.041 113.439C130.212 114.719 129.445 116.035 128.701 117.362C127.958 118.689 127.246 120.036 126.56 121.383C125.192 124.102 123.924 126.866 122.758 129.675C120.409 135.298 118.49 141.091 117.016 147.004C115.537 152.91 114.574 158.934 114.139 165.007C113.714 171.08 113.901 177.18 114.697 183.215C115.105 186.229 115.669 189.219 116.388 192.174L116.959 194.383L117.604 196.569C117.808 197.303 118.067 198.016 118.306 198.74L118.667 199.821C118.788 200.182 118.919 200.534 119.062 200.891C120.108 203.747 121.317 206.541 122.683 209.259C124.039 211.983 125.54 214.633 127.179 217.197L128.435 219.105C128.639 219.426 128.86 219.735 129.081 220.044L129.739 220.977C130.601 222.233 131.546 223.424 132.466 224.636C132.694 224.94 132.936 225.234 133.179 225.528L133.903 226.407L134.629 227.289L134.991 227.729L135.368 228.159C136.373 229.292 137.379 230.453 138.431 231.544C142.61 235.975 147.116 240.086 151.911 243.842C147.088 240.115 142.552 236.032 138.341 231.626C137.27 230.541 136.285 229.38 135.268 228.247L134.888 227.817L134.524 227.377L133.795 226.498L133.066 225.618C132.815 225.324 132.581 225.03 132.353 224.726C131.428 223.515 130.478 222.321 129.614 221.067L128.95 220.135C128.727 219.826 128.505 219.517 128.299 219.195L127.043 217.285C125.395 214.721 123.885 212.07 122.52 209.345C121.142 206.625 119.92 203.83 118.861 200.972C118.728 200.612 118.585 200.26 118.464 199.899L118.107 198.815C117.856 198.092 117.604 197.376 117.398 196.642L116.748 194.448L116.17 192.237C115.44 189.275 114.867 186.277 114.453 183.256C113.669 177.203 113.496 171.087 113.936 164.999C114.381 158.917 115.357 152.885 116.851 146.972C118.335 141.059 120.267 135.267 122.63 129.648C123.811 126.842 125.098 124.082 126.49 121.368C127.185 120.012 127.908 118.672 128.659 117.347C129.428 116.023 130.202 114.711 131.041 113.439Z" fill="#F4E3D3"></path> <path d="M303.343 262.849C306.811 268.213 309.73 273.914 312.056 279.864C314.393 285.802 316.179 291.978 317.104 298.306C318.029 304.633 317.996 311.122 316.679 317.379C316.356 318.944 315.945 320.49 315.448 322.01C314.96 323.532 314.384 325.024 313.722 326.478C312.392 329.383 310.751 332.135 308.826 334.685C312.611 329.528 315.234 323.613 316.516 317.346C317.8 311.101 317.772 304.636 316.858 298.343C315.943 292.051 314.207 285.864 311.9 279.924C310.744 276.955 309.45 274.044 308.017 271.189C306.613 268.325 305.053 265.541 303.343 262.849V262.849Z" fill="#D8A377"></path> <path d="M195.6 355.427C195.6 355.427 161.294 401.765 102.725 419.632C46.8912 436.664 105.374 780.839 142.897 825.717C174.615 863.662 302.363 867.449 315.868 823.82C331.144 774.469 414.527 455.481 382.734 431.837C342.296 401.765 304.899 404.609 278.114 361.116L195.6 355.427Z" fill="#304299"></path> <path d="M195.6 355.427L278.114 361.116C278.114 361.116 290.148 385.17 324.271 401.011C358.394 416.852 282.572 490.601 238.938 404.609C238.938 404.609 191.695 490.551 144.535 400.481C144.535 400.481 186.961 365.677 195.6 355.427Z" fill="#90AAD6"></path> <path d="M148.825 458.579C148.825 458.579 144.95 475.582 147.633 482.201C150.317 488.82 160.909 518.098 160.937 523.196C160.964 528.295 157.987 537.927 157.587 541.111C157.188 544.295 156.936 557.696 151.873 556.751C146.809 555.806 126.382 469.051 126.382 469.051L141.525 452.322L148.825 458.579Z" fill="#EBBAA4"></path> <path d="M117.604 451.659C117.604 451.659 120.549 440.798 132.611 427.975C144.673 415.151 152.84 404.318 154.768 406.58C156.695 408.841 157.683 414.051 154.908 419.102C152.134 424.153 141.542 438.2 141.542 438.2C141.542 438.2 121.122 452.45 117.604 451.659Z" fill="#F4D7CB"></path> <path d="M117.604 451.659C117.604 451.659 120.549 440.798 132.611 427.975C144.673 415.151 152.84 404.318 154.768 406.58C156.695 408.841 157.683 414.051 154.908 419.102C152.134 424.153 141.542 438.2 141.542 438.2C141.542 438.2 121.122 452.45 117.604 451.659Z" fill="url(#paint2_linear_63_2204)"></path> <path d="M172.2 420.295C172.2 420.295 143.085 432.106 137.773 434.644C132.461 437.182 121.354 443.529 119.879 445.834C118.403 448.138 106.786 473.951 106.957 477.921C107.128 481.891 152.594 445.223 152.594 445.223C152.594 445.223 164.696 437.365 167.006 435.488C169.315 433.611 184.546 418.528 172.2 420.295Z" fill="#F4D7CB"></path> <path d="M172.2 420.295C172.2 420.295 143.085 432.106 137.773 434.644C132.461 437.182 121.354 443.529 119.879 445.834C118.403 448.138 106.786 473.951 106.957 477.921C107.128 481.891 152.594 445.223 152.594 445.223C152.594 445.223 164.696 437.365 167.006 435.488C169.315 433.611 184.546 418.528 172.2 420.295Z" fill="url(#paint3_linear_63_2204)"></path> <path d="M106.414 511.574C106.414 511.574 97.5437 495.449 98.9233 491.219C100.303 486.99 117.24 457.152 121.268 453.423C125.296 449.694 147.44 445.13 149.232 445.336C151.023 445.542 172.976 443.391 175.813 445.688C178.65 447.985 167.571 461.127 152.076 458.773C152.076 458.773 136.335 467.513 134.215 466.98C132.094 466.447 131.558 482.241 131.558 482.241C131.558 482.241 123.077 518.16 106.414 511.574Z" fill="#F4D7CB"></path> <path d="M106.414 511.574C106.414 511.574 97.5437 495.449 98.9233 491.219C100.303 486.99 117.24 457.152 121.268 453.423C125.296 449.694 147.44 445.13 149.232 445.336C151.023 445.542 172.976 443.391 175.813 445.688C178.65 447.985 167.571 461.127 152.076 458.773C152.076 458.773 136.335 467.513 134.215 466.98C132.094 466.447 131.558 482.241 131.558 482.241C131.558 482.241 123.077 518.16 106.414 511.574Z" fill="url(#paint4_linear_63_2204)"></path> <path d="M176.369 465.048C175.301 464.621 174.107 464.651 172.981 464.909C166.993 466.282 143.97 472.054 131.558 482.249C117.207 494.034 106.507 502.018 106.816 510.838C107.125 519.658 120.622 532.366 117.371 546.632C114.119 560.897 98.6394 595.495 98.6394 595.495C98.6394 595.495 133.227 612.759 134.388 610.733C135.549 608.708 147.958 565.388 151.086 563.325C154.215 561.262 161.439 546.717 150.654 531.052C139.869 515.386 136.33 511.871 136.619 508.461C136.908 505.051 143.713 489.76 147.641 488.661C151.569 487.563 167.885 477.678 171.886 475.625C176.688 473.159 183.545 467.92 176.369 465.048Z" fill="#F4D0C0"></path> <path d="M176.369 465.048C175.301 464.621 174.107 464.651 172.981 464.909C166.993 466.282 143.97 472.054 131.558 482.249C117.207 494.034 106.507 502.018 106.816 510.838C107.125 519.658 120.622 532.366 117.371 546.632C114.119 560.897 98.6394 595.495 98.6394 595.495C98.6394 595.495 133.227 612.759 134.388 610.733C135.549 608.708 147.958 565.388 151.086 563.325C154.215 561.262 161.439 546.717 150.654 531.052C139.869 515.386 136.33 511.871 136.619 508.461C136.908 505.051 143.713 489.76 147.641 488.661C151.569 487.563 167.885 477.678 171.886 475.625C176.688 473.159 183.545 467.92 176.369 465.048Z" fill="url(#paint5_linear_63_2204)"></path> <path d="M98.2977 421.823C98.2977 421.823 -4.89476 431.008 0.181312 591.736C5.25738 752.464 47.135 836.146 59.8251 823.388C72.5153 810.63 75.0534 623.243 75.0534 623.243C75.0534 623.243 93.2927 555.211 97.6143 490.267C99.2436 465.782 105.247 441.521 98.2977 421.823Z" fill="#304299"></path> <path d="M111.538 555.133L144.535 580.493C144.535 580.493 107.196 829.861 61.6094 824.577C16.0227 819.292 37.4503 641.778 53.656 628.042C69.8617 614.307 110.671 574.153 111.538 555.133Z" fill="#1C3772"></path> <path d="M357.878 423.604C357.878 423.604 454.449 423.604 448.594 533.346C442.739 643.087 461.764 790.873 384.214 798.188C384.214 798.188 361.665 589.868 357.876 565.536C346.495 526.031 357.878 423.604 357.878 423.604Z" fill="#304299"></path> <g opacity="0.8"> <g opacity="0.8"> <path opacity="0.8" d="M278.114 361.117C278.114 361.117 281.051 385.96 291.181 396.707C301.31 407.455 327.339 428.026 328.706 425.719C330.073 423.412 338.408 412.345 328.706 403.103C292 387.5 278.114 361.117 278.114 361.117Z" fill="#6684AF"></path> </g> </g> <g opacity="0.43"> <g opacity="0.43"> <path opacity="0.43" d="M195.6 355.426C195.6 355.426 185.958 409.203 152.572 414.178L121.412 388.17L158.512 348.335L195.6 355.426Z" fill="#BED0EA"></path> </g> </g> <path d="M160.429 447.083C160.429 447.083 170.551 461.286 170.385 468.563C170.219 475.84 170.745 507.531 172.617 512.288C174.489 517.044 180.987 524.762 182.565 527.558C184.143 530.355 189.375 542.721 193.984 539.721C198.593 536.721 186.307 447.437 186.307 447.437L165.251 438.207L160.429 447.083Z" fill="#EBBAA4"></path> <path d="M188.421 427.578C188.421 427.578 181.492 418.704 164.907 411.819C148.322 404.934 136.293 398.27 135.255 401.182C134.217 404.094 135.182 409.356 139.778 412.897C144.374 416.438 159.977 425.075 159.977 425.075C159.977 425.075 185.279 429.781 188.421 427.578Z" fill="#F4D7CB"></path> <path d="M188.421 427.578C188.421 427.578 181.492 418.704 164.907 411.819C148.322 404.934 136.293 398.27 135.255 401.182C134.217 404.094 135.182 409.356 139.778 412.897C144.374 416.438 159.977 425.075 159.977 425.075C159.977 425.075 185.279 429.781 188.421 427.578Z" fill="url(#paint6_linear_63_2204)"></path> <path d="M123.289 421.24C123.289 421.24 156.208 420.042 162.342 420.182C168.476 420.323 181.729 421.577 184.033 423.105C186.337 424.633 207.315 443.791 208.629 447.548C209.944 451.305 151.765 436.24 151.765 436.24C151.765 436.24 136.989 433.993 134.029 433.224C131.068 432.455 110.538 424.766 123.289 421.24Z" fill="#F4D7CB"></path> <path d="M123.289 421.24C123.289 421.24 156.208 420.042 162.342 420.182C168.476 420.323 181.729 421.577 184.033 423.105C186.337 424.633 207.315 443.791 208.629 447.548C209.944 451.305 151.765 436.24 151.765 436.24C151.765 436.24 136.989 433.993 134.029 433.224C131.068 432.455 110.538 424.766 123.289 421.24Z" fill="url(#paint7_linear_63_2204)"></path> <path d="M221.689 478.65C221.689 478.65 224.375 459.931 221.453 456.574C218.53 453.217 190.833 432.538 185.498 430.754C180.163 428.97 156.786 434 155.105 434.935C153.423 435.87 131.126 443.064 129.204 446.389C127.282 449.714 143.025 457.308 157.321 448.631C157.321 448.631 175.989 450.173 177.869 448.791C179.749 447.409 186.149 461.871 186.149 461.871C186.149 461.871 207.818 491.75 221.689 478.65Z" fill="#F4D7CB"></path> <path d="M221.689 478.65C221.689 478.65 224.375 459.931 221.453 456.574C218.53 453.217 190.833 432.538 185.498 430.754C180.163 428.97 156.786 434 155.105 434.935C153.423 435.87 131.126 443.064 129.204 446.389C127.282 449.714 143.025 457.308 157.321 448.631C157.321 448.631 175.989 450.173 177.869 448.791C179.749 447.409 186.149 461.871 186.149 461.871C186.149 461.871 207.818 491.75 221.689 478.65Z" fill="url(#paint8_linear_63_2204)"></path> <path d="M135.863 464.635C136.783 463.819 137.916 463.283 139.13 463.09C145.498 461.871 170.199 457.599 186.149 461.871C204.589 466.832 218.04 469.782 221.02 478.12C224.001 486.457 215.512 503.937 224.008 515.851C232.504 527.764 260.541 553.484 260.541 553.484C260.541 553.484 233.092 584.031 231.203 582.634C229.313 581.237 201.048 546.114 197.203 545.503C193.358 544.892 180.869 534.381 185.616 515.283C190.363 496.185 192.494 491.443 190.951 488.395C189.408 485.347 177.045 473.961 172.788 474.574C168.531 475.187 148.875 472.827 144.191 472.594C138.569 472.317 129.917 470.314 135.863 464.635Z" fill="#F4D0C0"></path> <path d="M135.863 464.635C136.783 463.819 137.916 463.283 139.13 463.09C145.498 461.871 170.199 457.599 186.149 461.871C204.589 466.832 218.04 469.782 221.02 478.12C224.001 486.457 215.512 503.937 224.008 515.851C232.504 527.764 260.541 553.484 260.541 553.484C260.541 553.484 233.092 584.031 231.203 582.634C229.313 581.237 201.048 546.114 197.203 545.503C193.358 544.892 180.869 534.381 185.616 515.283C190.363 496.185 192.494 491.443 190.951 488.395C189.408 485.347 177.045 473.961 172.788 474.574C168.531 475.187 148.875 472.827 144.191 472.594C138.569 472.317 129.917 470.314 135.863 464.635Z" fill="url(#paint9_linear_63_2204)"></path> <g opacity="0.24"> <g opacity="0.24"> <path opacity="0.24" d="M238.691 358.397C238.691 358.397 225.697 437.775 189.986 441.575L286.65 445.537C286.65 445.537 237.101 389.839 244.685 358.814L248.188 330.635L234.786 339.179L238.691 358.397Z" fill="#AFC3E0"></path> </g> </g> <path opacity="0.5" d="M367.257 648.952C367.257 648.952 420.332 647.713 409.117 720.049C409.117 720.049 403.191 669.688 368.046 655.97L367.257 648.952Z" fill="#18124C"></path> <path opacity="0.24" d="M98.2977 421.823C98.2977 421.823 82.4664 481.565 41.7297 518.424C0.992949 555.284 28.1424 663.401 24.9913 683.635C24.9913 704.744 31.0222 726.48 17.8571 738.578C19.6437 745.747 6.50634 693.957 3.12897 637.523C-5.03797 573.067 6.14446 520.171 6.14446 520.171C6.14446 520.171 16.573 473.682 44.5919 448.93C71.7313 424.955 98.2977 421.823 98.2977 421.823Z" fill="#6D71A3"></path> <path d="M132.853 571.514L52.8843 823.226C52.8843 823.226 63.3246 829.44 69.0925 832.524C74.8604 835.609 73.6742 834.387 81.9083 835.665C125.128 842.374 147.495 743.065 147.495 743.065L171.981 581.02L132.853 571.514Z" fill="#20325B"></path> <path opacity="0.5" d="M365 626.5C365 626.5 299.911 861.671 163 842.92C163 842.92 196.422 870.338 214.319 870.972C232.215 871.605 284.931 864.941 302.197 847.086C319.464 829.232 360.5 652 365 626.5Z" fill="#18124C"></path> <path d="M243.752 526.031C243.752 526.031 227.65 569.927 217.407 571.389C207.164 572.852 337.393 818.674 384.216 798.189C431.039 777.704 405.307 676.341 384.216 662.716C363.03 649.03 243.752 526.031 243.752 526.031Z" fill="#1C3772"></path> <path d="M162.065 153.304C162.065 153.304 161.588 153.857 166.794 152.731C177.253 150.469 181.369 150.68 192.544 152.731C203.719 154.781 209.871 152.753 210.959 149.745C212.047 146.737 204.802 142.792 192.544 144.134C180.286 145.476 161.661 144.785 162.065 153.304Z" fill="#BC8F48"></path> <path opacity="0.51" d="M226.21 199.129C226.21 199.129 252.163 215.752 238.762 219.647C237.932 219.899 237.897 219.647 237.897 219.647C237.897 219.647 222.996 222.663 219.46 212.237C219.46 212.237 223.858 198.456 226.21 199.129Z" fill="#ED9B64"></path> <path d="M301.358 154.181C301.358 154.181 301.835 154.734 296.629 153.608C286.17 151.347 282.054 151.558 270.879 153.608C259.704 155.659 253.54 153.631 252.464 150.626C251.389 147.62 258.629 143.67 270.879 145.012C283.129 146.354 301.763 145.663 301.358 154.181Z" fill="#BC8F48"></path> <path d="M205.956 247.485C205.956 247.485 234.794 279.1 261.767 246.229L205.956 247.485Z" fill="white"></path> <path d="M260.541 247.669C260.541 247.669 250.427 269.406 231.879 267.958C213.331 266.511 205.345 247.433 205.345 247.433C205.345 247.433 210.119 247.38 210.971 248.855C211.823 250.33 232.891 262.028 257.131 248.855L260.541 247.669Z" fill="#EF7362"></path> <path d="M203.616 246.444C203.563 246.438 203.51 246.451 203.466 246.481C203.422 246.51 203.39 246.554 203.375 246.606C203.361 246.657 203.365 246.711 203.387 246.759C203.409 246.808 203.447 246.847 203.495 246.869C205.053 247.543 207.745 248.508 210.504 248.603C214.776 248.749 242.501 246.012 257.221 248.824C257.269 248.824 263.252 247.296 264.798 245.397C264.814 245.375 264.822 245.348 264.822 245.321C264.821 245.294 264.812 245.268 264.795 245.247C264.778 245.226 264.755 245.211 264.728 245.204C264.702 245.197 264.674 245.2 264.65 245.211C263.32 245.829 259.79 246.326 254.922 246.216C249.198 246.09 237.985 233.284 212.673 245.686H212.66C212.557 245.738 209.144 247.113 203.616 246.444Z" fill="#C4453F"></path> <path d="M226.727 153.377C226.727 153.377 218.116 208.41 219.55 212.948C220.985 217.486 227.207 221.562 238.691 219.647C238.691 219.647 225.292 218.212 225.772 211.752C226.252 205.291 226.727 153.377 226.727 153.377Z" fill="#ED9B64"></path> <path d="M187.312 186.754C191.066 186.754 194.11 182.338 194.11 176.891C194.11 171.443 191.066 167.027 187.312 167.027C183.558 167.027 180.515 171.443 180.515 176.891C180.515 182.338 183.558 186.754 187.312 186.754Z" fill="#263F8C"></path> <path d="M270.065 188.508C273.819 188.508 276.862 184.092 276.862 178.644C276.862 173.197 273.819 168.781 270.065 168.781C266.311 168.781 263.267 173.197 263.267 178.644C263.267 184.092 266.311 188.508 270.065 188.508Z" fill="#263F8C"></path> <path d="M205.516 169.23C205.516 169.23 186.644 155.158 167.604 170.565" stroke="#ED9B64" stroke-width="2" stroke-linecap="round" stroke-linejoin="round"></path> <path d="M289.13 169.23C291.324 172.246 272.505 153.826 253.465 169.23" stroke="#ED9B64" stroke-width="2" stroke-linecap="round" stroke-linejoin="round"></path> <path opacity="0.76" d="M195.135 176.569C197.972 176.569 200.271 175.437 200.271 174.041C200.271 172.645 197.972 171.513 195.135 171.513C192.298 171.513 189.999 172.645 189.999 174.041C189.999 175.437 192.298 176.569 195.135 176.569Z" fill="white"></path> <path opacity="0.76" d="M277.033 176.777C279.87 176.777 282.169 175.645 282.169 174.249C282.169 172.853 279.87 171.721 277.033 171.721C274.196 171.721 271.897 172.853 271.897 174.249C271.897 175.645 274.196 176.777 277.033 176.777Z" fill="white"></path> <path d="M296.219 175.672C296.594 175.458 296.973 175.272 297.358 175.074C297.742 174.875 298.111 174.689 298.493 174.486C298.682 174.383 298.87 174.285 299.061 174.189L299.622 173.882C299.999 173.686 300.376 173.475 300.737 173.269C301.476 172.852 302.207 172.419 302.929 171.97C303.65 171.518 304.366 171.058 305.07 170.565C304.492 171.207 303.849 171.787 303.15 172.294C302.457 172.809 301.734 173.28 300.984 173.707C300.231 174.127 299.456 174.504 298.662 174.837C298.267 175.013 297.858 175.149 297.456 175.3C297.054 175.451 296.634 175.561 296.219 175.672Z" fill="#ED9B64"></path> <path d="M297.172 179.732C297.827 179.785 298.473 179.858 299.119 179.931C299.765 180.004 300.403 180.077 301.044 180.127C301.362 180.16 301.681 180.183 302.001 180.195C302.321 180.212 302.64 180.215 302.956 180.21C303.271 180.204 303.585 180.171 303.894 180.112C304.208 180.06 304.505 179.93 304.756 179.732C304.565 180.015 304.289 180.23 303.969 180.348C303.654 180.471 303.325 180.555 302.989 180.599C302.329 180.682 301.661 180.692 300.999 180.63C300.343 180.569 299.693 180.464 299.051 180.315C298.409 180.175 297.78 179.98 297.172 179.732V179.732Z" fill="#ED9B64"></path> <path d="M297.172 177.425C297.722 177.38 298.265 177.357 298.805 177.335C299.345 177.312 299.881 177.292 300.413 177.252C300.682 177.252 300.946 177.214 301.21 177.186C301.474 177.159 301.738 177.121 301.996 177.081C302.528 177.017 303.041 176.846 303.504 176.578C303.338 176.808 303.123 176.998 302.876 177.136C302.629 177.274 302.369 177.386 302.099 177.47C301.565 177.631 301.013 177.729 300.456 177.762C299.905 177.794 299.352 177.785 298.803 177.734C298.25 177.686 297.704 177.582 297.172 177.425V177.425Z" fill="#ED9B64"></path> <path d="M166.636 179.905C166.133 179.8 165.661 179.677 165.176 179.546C164.691 179.415 164.214 179.265 163.744 179.094C162.794 178.775 161.867 178.39 160.952 177.98C160.042 177.557 159.155 177.085 158.296 176.566C157.431 176.058 156.618 175.469 155.866 174.807C156.728 175.309 157.605 175.779 158.487 176.234C159.369 176.689 160.263 177.119 161.163 177.533C161.613 177.739 162.063 177.95 162.52 178.144C162.977 178.337 163.43 178.538 163.884 178.739C164.339 178.94 164.802 179.124 165.259 179.325C165.716 179.526 166.181 179.694 166.636 179.905Z" fill="#EDAE83"></path> <path d="M165.475 183.964C164.725 184.213 163.958 184.408 163.181 184.549C162.404 184.696 161.62 184.799 160.831 184.858C160.037 184.924 159.239 184.916 158.447 184.836C158.045 184.792 157.65 184.708 157.266 184.584C156.873 184.477 156.52 184.259 156.248 183.956C156.571 184.168 156.939 184.301 157.323 184.346C157.704 184.402 158.087 184.432 158.472 184.436C158.859 184.436 159.246 184.436 159.633 184.418C160.02 184.401 160.407 184.383 160.794 184.351C161.57 184.3 162.347 184.222 163.126 184.155C163.905 184.087 164.686 184.016 165.475 183.964Z" fill="#EDAE83"></path> <path d="M165.475 181.66C164.832 181.813 164.177 181.913 163.518 181.959C162.857 182.01 162.194 182.02 161.532 181.989C160.871 181.958 160.214 181.864 159.57 181.707C159.242 181.626 158.923 181.516 158.615 181.378C158.306 181.243 158.026 181.047 157.793 180.803C158.374 181.086 159.002 181.262 159.645 181.323C160.281 181.406 160.927 181.456 161.573 181.486C162.218 181.516 162.869 181.542 163.52 181.567C164.171 181.592 164.814 181.612 165.475 181.66Z" fill="#EDAE83"></path> <path opacity="0.3" d="M272.709 210.616C290.49 210.616 304.904 196.202 304.904 178.421C304.904 160.64 290.49 146.226 272.709 146.226C254.928 146.226 240.513 160.64 240.513 178.421C240.513 196.202 254.928 210.616 272.709 210.616Z" fill="#C9D5E2"></path> <path d="M239.48 176.657C239.48 176.657 224.528 164.474 209.577 176.657" stroke="#5C7C99" stroke-width="4" stroke-linecap="round" stroke-linejoin="round"></path> <path opacity="0.2" d="M154.534 169.658L151.797 177.111L164.065 197.376L170.634 197.164L154.534 169.658Z" fill="white"></path> <path opacity="0.2" d="M155.836 165.512L175.107 198.938L179.251 196.807L157.929 162.903L155.836 165.512Z" fill="white"></path> <path opacity="0.2" d="M250.361 172.608L247.625 180.062L259.895 200.326L266.464 200.115L250.361 172.608Z" fill="white"></path> <path d="M312.016 238.714C320.214 225.567 317.424 209.026 305.784 201.768C294.144 194.51 278.063 199.285 269.865 212.432C261.667 225.579 264.457 242.121 276.097 249.379C287.737 256.636 303.818 251.862 312.016 238.714Z" fill="#F2BEB1"></path> <path d="M190.278 247.07C201.675 243.343 207.501 229.886 203.291 217.013C199.081 204.14 186.429 196.726 175.032 200.453C163.635 204.181 157.809 217.638 162.019 230.511C166.229 243.384 178.881 250.798 190.278 247.07Z" fill="#F2BEB1"></path> <path opacity="0.2" d="M253.756 165.854L251.665 168.462L270.937 201.889" fill="white"></path> <path d="M177.379 209.204C195.288 209.204 209.805 194.686 209.805 176.777C209.805 158.868 195.288 144.351 177.379 144.351C159.47 144.351 144.952 158.868 144.952 176.777C144.952 194.686 159.47 209.204 177.379 209.204Z" stroke="#5C7C99" stroke-width="4" stroke-linecap="round" stroke-linejoin="round"></path> <path d="M305.135 177.539C305.125 185.915 301.871 193.961 296.055 199.989C290.24 206.016 282.315 209.557 273.945 209.867C265.575 210.177 257.41 207.233 251.165 201.652C244.919 196.071 241.079 188.287 240.449 179.935C239.819 171.583 242.45 163.312 247.788 156.858C253.126 150.403 260.757 146.268 269.079 145.32C277.401 144.371 285.766 146.684 292.42 151.771C299.073 156.859 303.497 164.326 304.763 172.606C305.012 174.238 305.137 175.887 305.135 177.539Z" stroke="#5C7C99" stroke-width="4" stroke-linecap="round" stroke-linejoin="round"></path> <path d="M318.016 169.572C318.016 169.572 306.776 171.331 305.135 173.947" stroke="#5C7C99" stroke-width="4" stroke-linecap="round" stroke-linejoin="round"></path> <path d="M146.448 167.027L154.275 172.609" stroke="#5C7C99" stroke-width="4" stroke-linecap="round" stroke-linejoin="round"></path> <path opacity="0.3" d="M177.379 208.852C195.16 208.852 209.574 194.437 209.574 176.656C209.574 158.875 195.16 144.461 177.379 144.461C159.598 144.461 145.184 158.875 145.184 176.656C145.184 194.437 159.598 208.852 177.379 208.852Z" fill="#C9D5E2"></path> <path d="M146.978 829.946C146.978 829.946 140.994 844.109 143.56 852.872C146.126 861.634 188.021 883.137 227.353 885.539C266.685 887.942 310.819 864.134 314.048 855.372C317.277 846.609 313.503 835.359 309.761 832.972C306.02 830.585 234.794 882.845 146.978 829.946Z" fill="#90AAD6"></path> </g> <defs> <linearGradient id="paint0_linear_63_2204" x1="241.227" y1="268.629" x2="241.129" y2="379.55" gradientUnits="userSpaceOnUse"> <stop stop-color="#FFE0D7"></stop> <stop offset="1" stop-color="#E5AD9C"></stop> </linearGradient> <linearGradient id="paint1_linear_63_2204" x1="241.326" y1="76.7831" x2="241.12" y2="306.688" gradientUnits="userSpaceOnUse"> <stop stop-color="#FFE0D7"></stop> <stop offset="1" stop-color="#FBC7B8"></stop> </linearGradient> <linearGradient id="paint2_linear_63_2204" x1="137.157" y1="411.909" x2="137.128" y2="451.691" gradientUnits="userSpaceOnUse"> <stop stop-color="#FFE0D7"></stop> <stop offset="1" stop-color="#E5AD9C"></stop> </linearGradient> <linearGradient id="paint3_linear_63_2204" x1="142.04" y1="427.351" x2="142.013" y2="478.222" gradientUnits="userSpaceOnUse"> <stop stop-color="#FFE0D7"></stop> <stop offset="1" stop-color="#E5AD9C"></stop> </linearGradient> <linearGradient id="paint4_linear_63_2204" x1="137.601" y1="453.02" x2="137.568" y2="512.38" gradientUnits="userSpaceOnUse"> <stop stop-color="#FFE0D7"></stop> <stop offset="1" stop-color="#E5AD9C"></stop> </linearGradient> <linearGradient id="paint5_linear_63_2204" x1="139.145" y1="482.843" x2="138.998" y2="610.899" gradientUnits="userSpaceOnUse"> <stop stop-color="#FFE0D7"></stop> <stop offset="1" stop-color="#E5AD9C"></stop> </linearGradient> <linearGradient id="paint6_linear_63_2204" x1="161.706" y1="403.913" x2="161.698" y2="428.165" gradientUnits="userSpaceOnUse"> <stop stop-color="#FFE0D7"></stop> <stop offset="1" stop-color="#E5AD9C"></stop> </linearGradient> <linearGradient id="paint7_linear_63_2204" x1="163.999" y1="423.64" x2="163.994" y2="448.15" gradientUnits="userSpaceOnUse"> <stop stop-color="#FFE0D7"></stop> <stop offset="1" stop-color="#E5AD9C"></stop> </linearGradient> <linearGradient id="paint8_linear_63_2204" x1="176.031" y1="436.771" x2="176.015" y2="481.971" gradientUnits="userSpaceOnUse"> <stop stop-color="#FFE0D7"></stop> <stop offset="1" stop-color="#E5AD9C"></stop> </linearGradient> <linearGradient id="paint9_linear_63_2204" x1="197.337" y1="475.223" x2="197.271" y2="582.68" gradientUnits="userSpaceOnUse"> <stop stop-color="#FFE0D7"></stop> <stop offset="1" stop-color="#E5AD9C"></stop> </linearGradient> <clipPath id="clip0_63_2204"> <rect width="448.85" height="1073" fill="white"></rect> </clipPath> </defs> </svg> 