<svg width="17" height="18" viewBox="0 0 17 18" fill="none" xmlns="http://www.w3.org/2000/svg">
<g clip-path="url(#clip0_912_2132)">
<path d="M16.1704 6.99676L13.4227 4.24913C13.2891 4.1201 13.1102 4.04871 12.9245 4.05032C12.7388 4.05193 12.5611 4.12643 12.4298 4.25776C12.2984 4.38909 12.224 4.56675 12.2223 4.75247C12.2207 4.93819 12.2921 5.11712 12.4211 5.25071L15.1688 7.99834C15.2504 8.08159 15.3217 8.17433 15.3813 8.27459C15.3707 8.27459 15.3622 8.26892 15.3515 8.26892L4.24202 8.29159C4.05416 8.29159 3.874 8.36622 3.74116 8.49905C3.60832 8.63189 3.53369 8.81206 3.53369 8.99992C3.53369 9.18778 3.60832 9.36795 3.74116 9.50079C3.874 9.63363 4.05416 9.70826 4.24202 9.70826L15.3473 9.68559C15.3671 9.68559 15.3834 9.67567 15.4025 9.67426C15.3397 9.79408 15.26 9.90428 15.1659 10.0015L12.4183 12.7491C12.3507 12.8145 12.2967 12.8926 12.2596 12.9791C12.2225 13.0655 12.2029 13.1584 12.2021 13.2525C12.2013 13.3465 12.2192 13.4398 12.2548 13.5268C12.2904 13.6139 12.343 13.693 12.4095 13.7595C12.476 13.826 12.5551 13.8786 12.6422 13.9142C12.7292 13.9498 12.8225 13.9678 12.9166 13.9669C13.0106 13.9661 13.1036 13.9466 13.19 13.9095C13.2764 13.8723 13.3546 13.8184 13.4199 13.7507L16.1675 11.0031C16.6987 10.4718 16.9971 9.75122 16.9971 8.99992C16.9971 8.24862 16.6987 7.52808 16.1675 6.99676H16.1704Z" fill="#304299"/>
<path d="M4.95833 16.0833H3.54167C2.97808 16.0833 2.43758 15.8594 2.03906 15.4609C1.64055 15.0624 1.41667 14.5219 1.41667 13.9583V4.04167C1.41667 3.47808 1.64055 2.93758 2.03906 2.53906C2.43758 2.14055 2.97808 1.91667 3.54167 1.91667H4.95833C5.1462 1.91667 5.32636 1.84204 5.4592 1.7092C5.59204 1.57636 5.66667 1.39619 5.66667 1.20833C5.66667 1.02047 5.59204 0.840304 5.4592 0.707466C5.32636 0.574628 5.1462 0.5 4.95833 0.5H3.54167C2.6027 0.501125 1.70252 0.874625 1.03857 1.53857C0.374625 2.20252 0.00112473 3.1027 0 4.04167L0 13.9583C0.00112473 14.8973 0.374625 15.7975 1.03857 16.4614C1.70252 17.1254 2.6027 17.4989 3.54167 17.5H4.95833C5.1462 17.5 5.32636 17.4254 5.4592 17.2925C5.59204 17.1597 5.66667 16.9795 5.66667 16.7917C5.66667 16.6038 5.59204 16.4236 5.4592 16.2908C5.32636 16.158 5.1462 16.0833 4.95833 16.0833Z" fill="#304299"/>
</g>
<defs>
<clipPath id="clip0_912_2132">
<rect width="17" height="17" fill="white" transform="translate(0 0.5)"/>
</clipPath>
</defs>
</svg>
