<svg width="40" height="21" viewBox="0 0 40 21" fill="none" xmlns="http://www.w3.org/2000/svg">
<rect width="40" height="21" rx="6" fill="white"/>
<path d="M37 10.4999C37 16.299 32.2925 21 26.4856 21C20.6786 21 15.9711 16.299 15.9711 10.4999C15.9711 4.70099 20.6786 0 26.4856 0C32.2925 0 37 4.70099 37 10.4999Z" fill="#F79F1A"/>
<path d="M24.0288 10.4999C24.0288 16.299 19.3214 21 13.5144 21C7.70745 21 3 16.299 3 10.4999C3 4.70099 7.70745 0 13.5144 0C19.3214 0 24.0288 4.70099 24.0288 10.4999Z" fill="#EA001B"/>
<path d="M20 2.23423C17.5467 4.15642 15.9711 7.14442 15.9711 10.4999C15.9711 13.8553 17.5467 16.8437 20 18.7659C22.4532 16.8437 24.0288 13.8553 24.0288 10.4999C24.0288 7.14442 22.4532 4.15642 20 2.23423Z" fill="#FF5F01"/>
</svg>
