<svg width="358" height="411" viewBox="0 0 358 411" fill="none" xmlns="http://www.w3.org/2000/svg">
<path d="M119.681 324.625C119.681 324.625 158.18 313.832 210.103 324.625C210.103 324.625 170.736 343.579 119.681 324.625Z" fill="#D4D5D6" stroke="#F4F4F4" stroke-linecap="round" stroke-linejoin="round"/>
<path d="M119.681 324.625C119.681 324.625 171.605 338.845 210.103 324.625L196.23 386.228C196.23 386.228 159.526 398.864 135.35 386.228L119.681 324.625Z" fill="#E9E9E9" stroke="#F4F4F4" stroke-linecap="round" stroke-linejoin="round"/>
<path d="M144.306 169.831C144.306 169.831 172.502 238.939 164.892 324.625L169.38 177.44" stroke="#263238" stroke-linecap="round" stroke-linejoin="round"/>
<path d="M164.883 324.625C162.648 241.702 185.478 194.706 185.478 194.706" stroke="#263238" stroke-linecap="round" stroke-linejoin="round"/>
<path d="M137.565 189.576C137.565 189.576 170.366 247.246 164.883 319.866" stroke="#263238" stroke-linecap="round" stroke-linejoin="round"/>
<path d="M188.015 217.215C188.015 217.215 161.76 283.818 165.165 315.768" stroke="#263238" stroke-linecap="round" stroke-linejoin="round"/>
<path opacity="0.67" d="M188.015 217.215C188.015 217.215 196.522 122.844 341.102 144.164C341.102 144.164 331.248 164.305 308.428 169.039L297.696 164.736L301.716 171.053C301.716 171.053 273.52 173.816 248.456 194.353L240.397 185.264L242.641 197.9L227.411 206.576L220.25 202.625L222.035 209.735L188.015 217.215Z" fill="#9AA5C9"/>
<path opacity="0.67" d="M137.565 189.576C137.565 189.576 121.467 118.136 13.1125 145.851C13.1125 145.851 22.6933 160.484 40.6255 162.283L48.4306 158.108L45.9915 163.272C45.9915 163.272 67.8262 163.152 89.0756 176.872L94.3148 169.289L93.8855 179.127L106.403 184.558L111.476 180.978L110.832 186.547L137.565 189.576Z" fill="#9AA5C9"/>
<path opacity="0.67" d="M185.488 194.706C185.488 194.706 199.81 117.705 257.1 82.1656C257.1 82.1656 254.865 119.332 248.143 125.202L235.128 120.503L246.836 134.687L221.323 168.643L213.235 158.375L215.02 173.773C215.02 173.773 194.435 191.943 185.488 194.706Z" fill="#A7ADBE"/>
<path opacity="0.67" d="M144.306 169.831C144.306 169.831 125.291 109.786 78.0509 86.0733C78.0509 86.0733 83.6706 115.416 89.3976 119.573L98.7441 114.77L91.4171 126.984L114.374 151.945L119.408 143.157L119.672 155.526C119.672 155.526 137.213 168.342 144.306 169.831Z" fill="#BABECB"/>
<path opacity="0.67" d="M169.195 177.242C169.195 177.242 155.165 176.717 154.56 161.448L153.965 146.178V128.249L162.912 124.04L153.965 122.456V90.1015L161.575 87.4677L153.965 84.8338C153.965 84.8338 156.346 49.036 184.103 34.0506C184.103 34.0506 207.371 55.9046 206.484 76.4417L196.63 88.8104L206.513 84.3518L199.03 130.909L188.298 128.542L197.849 136.96L194.269 154.863L183.224 153.021L192.2 161.706C192.2 161.706 183.81 179.342 169.195 177.242Z" fill="#9AA5C9"/>
</svg>
