<svg width="20" height="20" viewBox="0 0 20 20" fill="none" xmlns="http://www.w3.org/2000/svg">
<path d="M9.99979 2.85718C10.3943 2.85718 10.7141 3.17697 10.7141 3.57146V9.28575H16.4284C16.8229 9.28575 17.1426 9.60555 17.1426 10C17.1426 10.3945 16.8229 10.7143 16.4284 10.7143H10.7141V16.4286C10.7141 16.8231 10.3943 17.1429 9.99979 17.1429C9.6053 17.1429 9.2855 16.8231 9.2855 16.4286V10.7143H3.57122C3.17673 10.7143 2.85693 10.3945 2.85693 10C2.85693 9.60555 3.17673 9.28575 3.57122 9.28575H9.2855V3.57146C9.2855 3.17697 9.6053 2.85718 9.99979 2.85718Z" fill="#304299"/>
</svg>
