<svg width="42" height="42" viewBox="0 0 42 42" fill="none" xmlns="http://www.w3.org/2000/svg">
<g clip-path="url(#clip0_912_2058)">
<rect width="42" height="42" rx="21" fill="#304299"/>
<path d="M30.4904 30.5H12.5096C12.5631 29.1367 12.837 28.0806 13.2607 27.2593C13.7323 26.3453 14.4028 25.6959 15.2169 25.2303C16.8723 24.2838 19.1255 24.0926 21.5 24.0926C23.8745 24.0926 26.1277 24.2838 27.7831 25.2303C28.5972 25.6959 29.2677 26.3453 29.7393 27.2593C30.163 28.0806 30.4369 29.1367 30.4904 30.5ZM25.75 16.9259C25.75 18.6735 25.189 20.2354 24.3637 21.3508C23.5312 22.4758 22.4767 23.0926 21.5 23.0926C20.5233 23.0926 19.4688 22.4758 18.6363 21.3508C17.811 20.2354 17.25 18.6735 17.25 16.9259C17.25 15.1348 17.6344 13.7788 18.3323 12.8809C19.0145 12.0033 20.0453 11.5 21.5 11.5C22.9547 11.5 23.9855 12.0033 24.6677 12.8809C25.3656 13.7788 25.75 15.1348 25.75 16.9259Z" fill="#F9F9F9" stroke="#F9F9F9" stroke-linecap="round" stroke-linejoin="round"/>
</g>
<defs>
<clipPath id="clip0_912_2058">
<rect width="42" height="42" fill="white"/>
</clipPath>
</defs>
</svg>
