<svg width="19" height="19" viewBox="0 0 19 19" fill="none" xmlns="http://www.w3.org/2000/svg">
<g clip-path="url(#clip0_912_2096)">
<path d="M18.9145 15.1439L18.82 14.859C18.596 14.1932 17.8618 13.4989 17.1874 13.316L14.6912 12.6341C14.0142 12.4499 13.0486 12.6975 12.5534 13.1928L11.6499 14.0962C8.36672 13.209 5.79216 10.6344 4.90619 7.35179L5.80964 6.44833C6.30492 5.95306 6.55251 4.98872 6.36835 4.31179L5.68768 1.81436C5.50351 1.13867 4.80791 0.404524 4.14345 0.183009L3.8585 0.0872042C3.19276 -0.13431 2.24331 0.0897128 1.74808 0.584945L0.396694 1.93757C0.155269 2.17772 0.000969679 2.8646 0.000969679 2.86711C-0.0462958 7.15763 1.63607 11.2913 4.67101 14.3263C7.69851 17.3538 11.8167 19.0337 16.0948 18.9977C16.1172 18.9977 16.824 18.8458 17.0654 18.6056L18.4168 17.2542C18.912 16.7591 19.136 15.8096 18.9145 15.1439Z" fill="#292929"/>
</g>
<defs>
<clipPath id="clip0_912_2096">
<rect width="19" height="19" fill="white"/>
</clipPath>
</defs>
</svg>
