<svg width="19" height="19" viewBox="0 0 19 19" fill="none" xmlns="http://www.w3.org/2000/svg">
<g clip-path="url(#clip0_912_2094)">
<path d="M9.5 0C4.25329 0 0 4.25329 0 9.5C0 14.7467 4.25329 19 9.5 19C14.7467 19 19 14.7467 19 9.5C19 4.25329 14.7467 0 9.5 0ZM14.4377 6.00934L12.7504 14.0645C12.73 14.1619 12.6855 14.2526 12.6208 14.3283C12.5562 14.404 12.4736 14.4623 12.3806 14.4977C12.2875 14.5332 12.1871 14.5447 12.0885 14.5312C11.9899 14.5177 11.8962 14.4796 11.8161 14.4204L9.36188 12.6072L7.87498 14.01C7.85552 14.0283 7.83259 14.0426 7.80754 14.052C7.78249 14.0615 7.75582 14.0658 7.72908 14.0648C7.70234 14.0637 7.67607 14.0574 7.65181 14.0461C7.62754 14.0349 7.60577 14.0189 7.58775 13.9991L7.5558 13.964L7.81416 11.4637L12.4708 7.20909C12.4938 7.18808 12.5081 7.15921 12.5109 7.12817C12.5137 7.09712 12.5048 7.06616 12.4858 7.04139C12.4669 7.01662 12.4394 6.99983 12.4087 6.99435C12.378 6.98887 12.3464 6.99509 12.3201 7.01178L6.36481 10.781L3.8 9.9196C3.7318 9.89669 3.67236 9.85323 3.62984 9.7952C3.58732 9.73717 3.56379 9.66741 3.56249 9.59548C3.56119 9.52355 3.58218 9.45298 3.62258 9.39345C3.66297 9.33392 3.7208 9.28834 3.78813 9.26298L13.8232 5.48269C13.9007 5.45356 13.9845 5.44576 14.0659 5.4601C14.1474 5.47445 14.2235 5.51041 14.2863 5.56424C14.3491 5.61806 14.3963 5.68777 14.4229 5.76607C14.4496 5.84437 14.4547 5.92839 14.4377 6.00934Z" fill="url(#paint0_linear_912_2094)"/>
</g>
<defs>
<linearGradient id="paint0_linear_912_2094" x1="6.94944e-08" y1="19" x2="18.6548" y2="0.345228" gradientUnits="userSpaceOnUse">
<stop stop-color="#2081C7"/>
<stop offset="1" stop-color="#38AFE2"/>
</linearGradient>
<clipPath id="clip0_912_2094">
<rect width="19" height="19" fill="white"/>
</clipPath>
</defs>
</svg>
