<svg width="40" height="26" viewBox="0 0 40 26" fill="none" xmlns="http://www.w3.org/2000/svg">
<g clip-path="url(#clip0_932_4350)">
<path d="M40 0.00817871H0V25.7695H40V0.00817871Z" fill="#0E4595"/>
<path d="M15.0361 17.9758L16.7469 7.88967H19.4833L17.7712 17.9758H15.0361ZM27.6571 8.10709C27.115 7.90275 26.2654 7.68347 25.2047 7.68347C22.5008 7.68347 20.5962 9.0514 20.5801 11.012C20.5647 12.4613 21.9398 13.2698 22.9776 13.7523C24.0428 14.2466 24.4008 14.5619 24.3958 15.0034C24.389 15.6794 23.5452 15.9883 22.7587 15.9883C21.6635 15.9883 21.0817 15.8354 20.183 15.4589L19.8304 15.2986L19.4463 17.5565C20.0854 17.838 21.2673 18.0819 22.4944 18.0946C25.3708 18.0946 27.238 16.7423 27.2593 14.6486C27.2696 13.5013 26.5406 12.6281 24.9619 11.9082C24.0054 11.4417 23.4197 11.1303 23.4259 10.6579C23.4259 10.2386 23.9217 9.79029 24.9929 9.79029C25.8878 9.77638 26.536 9.97242 27.041 10.1767L27.2862 10.2931L27.6571 8.10709ZM34.6986 7.88951H32.5842C31.9291 7.88951 31.4389 8.06917 31.1513 8.72593L27.0875 17.9691H29.9609C29.9609 17.9691 30.4306 16.7262 30.5369 16.4534C30.851 16.4534 33.6423 16.4577 34.0414 16.4577C34.1232 16.8108 34.3742 17.9691 34.3742 17.9691H36.9134L34.6986 7.8892V7.88951ZM31.3439 14.4025C31.5701 13.8214 32.4341 11.583 32.4341 11.583C32.4179 11.6099 32.6587 10.9991 32.7969 10.6204L32.9818 11.49C32.9818 11.49 33.5058 13.8976 33.6153 14.4025H31.3439ZM12.7131 7.88951L10.0341 14.7678L9.74863 13.37C9.24991 11.7587 7.69606 10.013 5.95898 9.13904L8.40852 17.9597L11.3037 17.9564L15.6116 7.88941H12.7131" fill="white"/>
<path d="M7.5342 7.88912H3.12184L3.08691 8.09897C6.51963 8.93385 8.79102 10.9514 9.73409 13.3754L8.77461 8.74043C8.60897 8.10181 8.12861 7.91123 7.5343 7.88892" fill="#F2AE14"/>
</g>
<defs>
<clipPath id="clip0_932_4350">
<rect width="40" height="25.7778" rx="3" fill="white"/>
</clipPath>
</defs>
</svg>
