<svg width="19" height="19" viewBox="0 0 19 19" fill="none" xmlns="http://www.w3.org/2000/svg">
<g clip-path="url(#clip0_912_2090)">
<path d="M0 19L1.634 14.0983C0.804879 12.7038 0.327586 11.0763 0.327586 9.33621C0.327586 4.18 4.50759 0 9.66379 0C14.82 0 19 4.18 19 9.33621C19 14.4924 14.82 18.6724 9.66379 18.6724C8.09498 18.6724 6.61757 18.2836 5.32 17.6002L0 19Z" fill="#2CB742"/>
<path d="M15.6204 12.4433C15.1893 11.6286 13.5995 10.6969 13.5995 10.6969C13.2398 10.4919 12.8057 10.4689 12.6007 10.8345C12.6007 10.8345 12.0841 11.454 11.9527 11.5431C11.3526 11.9496 10.7967 11.9339 10.2355 11.3727L8.93138 10.0686L7.62726 8.76449C7.0661 8.20334 7.05038 7.64742 7.45691 7.04729C7.54602 6.91592 8.16548 6.39932 8.16548 6.39932C8.53107 6.19392 8.50814 5.7602 8.30307 5.40051C8.30307 5.40051 7.37141 3.81073 6.55671 3.37963C6.21012 3.19618 5.78459 3.26039 5.50745 3.53753L4.93155 4.11342C3.1046 5.94037 4.00416 8.00286 5.8311 9.8298L7.50081 11.4995L9.17052 13.1692C10.9975 14.9962 13.0599 15.8957 14.8869 14.0688L15.4628 13.4929C15.7399 13.2151 15.8038 12.7895 15.6204 12.4433Z" fill="white"/>
</g>
<defs>
<clipPath id="clip0_912_2090">
<rect width="19" height="19" fill="white"/>
</clipPath>
</defs>
</svg>
